<svg id="Layer_1" data-name="Layer 1" xmlns="http://www.w3.org/2000/svg" viewBox="0 0 82 100"><defs><style>.cls-1{opacity:0.33;}.cls-2{fill:#231f20;}</style></defs><title>bg</title><g class="cls-1"><polygon class="cls-2" points="53 26 29 26 13 50 29 74 53 74 69 50 53 26"/><polygon class="cls-2" points="29 76 13 100 69 100 53 76 29 76"/><polygon class="cls-2" points="53 24 69 0 13 0 29 24 53 24"/><polygon class="cls-2" points="54 25 70 49 82 49 82 1 70 1 54 25"/><polygon class="cls-2" points="28 25 12 1 0 1 0 49 12 49 28 25"/><polygon class="cls-2" points="54 75 70 99 82 99 82 51 70 51 54 75"/><polygon class="cls-2" points="28 75 12 51 0 51 0 99 12 99 28 75"/></g></svg>