<svg id="Layer_1" data-name="Layer 1" xmlns="http://www.w3.org/2000/svg" viewBox="0 0 631.41 411.74"><defs><style>.cls-1{fill:#d3d0cb;}.cls-2{fill:#3f88c5;}.cls-3{fill:#fdb833;}</style></defs><title>speed-graph</title><path class="cls-1" d="M410.21,392.63h-383a.5.5,0,0,1,0-1h383a.5.5,0,0,1,0,1Z" transform="translate(0.38)"/><path class="cls-1" d="M27.21,392.63a.5.5,0,0,1-.5-.5v-9.58a.5.5,0,0,1,1,0v9.58A.5.5,0,0,1,27.21,392.63Z" transform="translate(0.38)"/><path class="cls-1" d="M81.92,392.63a.5.5,0,0,1-.5-.5v-9.58a.5.5,0,0,1,1,0v9.58A.5.5,0,0,1,81.92,392.63Z" transform="translate(0.38)"/><path class="cls-1" d="M136.64,392.63a.5.5,0,0,1-.5-.5v-9.58a.5.5,0,0,1,1,0v9.58A.5.5,0,0,1,136.64,392.63Z" transform="translate(0.38)"/><path class="cls-1" d="M191.35,392.63a.5.5,0,0,1-.5-.5v-9.58a.5.5,0,0,1,1,0v9.58A.5.5,0,0,1,191.35,392.63Z" transform="translate(0.38)"/><path class="cls-1" d="M246.06,392.63a.5.5,0,0,1-.5-.5v-9.58a.5.5,0,0,1,1,0v9.58A.5.5,0,0,1,246.06,392.63Z" transform="translate(0.38)"/><path class="cls-1" d="M300.78,392.63a.5.5,0,0,1-.5-.5v-9.58a.5.5,0,0,1,1,0v9.58A.5.5,0,0,1,300.78,392.63Z" transform="translate(0.38)"/><path class="cls-1" d="M355.49,392.63a.5.5,0,0,1-.5-.5v-9.58a.5.5,0,0,1,1,0v9.58A.5.5,0,0,1,355.49,392.63Z" transform="translate(0.38)"/><path class="cls-1" d="M410.21,392.63a.5.5,0,0,1-.5-.5v-9.58a.5.5,0,0,1,1,0v9.58A.5.5,0,0,1,410.21,392.63Z" transform="translate(0.38)"/><path class="cls-1" d="M3.55,399a3.81,3.81,0,0,1-2.18-.61A3.56,3.56,0,0,1,0,396.78a6.28,6.28,0,0,1-.42-2.41v-6.73a5.35,5.35,0,0,1,1-3.41A3.53,3.53,0,0,1,3.55,383a3.53,3.53,0,0,1,2.94,1.25,5.34,5.34,0,0,1,1,3.4v6.73a5.29,5.29,0,0,1-1,3.38A3.51,3.51,0,0,1,3.55,399Zm0-1.84q1.68,0,1.68-2.8v-6.73q0-.47,0-.85a4.1,4.1,0,0,0-.15-.75,2.1,2.1,0,0,0-.29-.64,1.32,1.32,0,0,0-.49-.41,1.57,1.57,0,0,0-.73-.16,1.57,1.57,0,0,0-.73.16,1.32,1.32,0,0,0-.49.41A2.1,2.1,0,0,0,2,386a4.1,4.1,0,0,0-.15.75q0,.37,0,.85v6.73a6.42,6.42,0,0,0,.07,1,3.74,3.74,0,0,0,.25.89,1.52,1.52,0,0,0,.52.66A1.41,1.41,0,0,0,3.55,397.18Z" transform="translate(0.38)"/><path class="cls-1" d="M8.88,398.87v-2.24h2.24v2.24Z" transform="translate(0.38)"/><path class="cls-1" d="M16.45,399a3.81,3.81,0,0,1-2.18-.61A3.56,3.56,0,0,1,13,396.78a6.28,6.28,0,0,1-.42-2.41v-6.73a5.35,5.35,0,0,1,1-3.41A3.53,3.53,0,0,1,16.45,383a3.53,3.53,0,0,1,2.94,1.25,5.34,5.34,0,0,1,1,3.4v6.73a5.29,5.29,0,0,1-1,3.38A3.51,3.51,0,0,1,16.45,399Zm0-1.84q1.68,0,1.68-2.8v-6.73q0-.47,0-.85A4.1,4.1,0,0,0,18,386a2.1,2.1,0,0,0-.29-.64,1.32,1.32,0,0,0-.49-.41,1.75,1.75,0,0,0-1.46,0,1.32,1.32,0,0,0-.49.41A2.1,2.1,0,0,0,15,386a4.1,4.1,0,0,0-.15.75q0,.37,0,.85v6.73a6.42,6.42,0,0,0,.07,1,3.74,3.74,0,0,0,.25.89,1.52,1.52,0,0,0,.52.66A1.41,1.41,0,0,0,16.45,397.18Z" transform="translate(0.38)"/><path class="cls-1" d="M3.88,322.43a3.81,3.81,0,0,1-2.18-.61,3.56,3.56,0,0,1-1.32-1.63A6.28,6.28,0,0,1,0,317.78V311a5.35,5.35,0,0,1,1-3.41,3.53,3.53,0,0,1,2.95-1.24,3.53,3.53,0,0,1,2.94,1.25,5.34,5.34,0,0,1,1,3.4v6.73a5.29,5.29,0,0,1-1,3.38A3.51,3.51,0,0,1,3.88,322.43Zm0-1.84q1.68,0,1.68-2.8V311q0-.47,0-.85a4.1,4.1,0,0,0-.15-.75,2.1,2.1,0,0,0-.29-.64,1.32,1.32,0,0,0-.49-.41,1.57,1.57,0,0,0-.73-.16,1.57,1.57,0,0,0-.73.16,1.32,1.32,0,0,0-.49.41,2.1,2.1,0,0,0-.29.64,4.1,4.1,0,0,0-.15.75q0,.37,0,.85v6.73a6.42,6.42,0,0,0,.07,1,3.74,3.74,0,0,0,.25.89,1.52,1.52,0,0,0,.52.66A1.41,1.41,0,0,0,3.88,320.58Z" transform="translate(0.38)"/><path class="cls-1" d="M9.21,322.27V320h2.24v2.24Z" transform="translate(0.38)"/><path class="cls-1" d="M16.71,322.43a3.52,3.52,0,0,1-3-1.18,5.68,5.68,0,0,1-.89-3.47h2.24v.35c0,.3,0,.56,0,.78a4.06,4.06,0,0,0,.12.68,1.6,1.6,0,0,0,.25.56,1.23,1.23,0,0,0,.44.36,1.47,1.47,0,0,0,.67.14,1.94,1.94,0,0,0,.56-.07,1.86,1.86,0,0,0,.43-.18,1,1,0,0,0,.32-.32,4,4,0,0,0,.23-.39,1.9,1.9,0,0,0,.15-.5q.06-.31.09-.53c0-.14,0-.34,0-.6s0-.46,0-.61v-.93q0-.38,0-.64c0-.18,0-.37,0-.58a2.83,2.83,0,0,0-.11-.52,2.27,2.27,0,0,0-.19-.42,1,1,0,0,0-.3-.33,1.45,1.45,0,0,0-.43-.2,2.11,2.11,0,0,0-.58-.07,1.52,1.52,0,0,0-1,.39,2.29,2.29,0,0,0-.64.91H13.18v-8.47h6.94v2.24H15.21l-.14,3.8a4.32,4.32,0,0,1,2.24-.56,3.63,3.63,0,0,1,1.35.23,2.62,2.62,0,0,1,1,.64,3.19,3.19,0,0,1,.62,1,5.6,5.6,0,0,1,.34,1.26,9.92,9.92,0,0,1,.1,1.48,14.3,14.3,0,0,1-.11,1.82A7.39,7.39,0,0,1,20.2,320a4,4,0,0,1-.71,1.26,3.09,3.09,0,0,1-1.14.81A4.13,4.13,0,0,1,16.71,322.43Z" transform="translate(0.38)"/><path class="cls-1" d="M5,245.67V233.32H3.27v-1.68A3.79,3.79,0,0,0,5.51,230H7.2v15.71Z" transform="translate(0.38)"/><path class="cls-1" d="M8.88,245.67v-2.24h2.24v2.24Z" transform="translate(0.38)"/><path class="cls-1" d="M16.45,245.82a3.81,3.81,0,0,1-2.18-.61A3.56,3.56,0,0,1,13,243.58a6.28,6.28,0,0,1-.42-2.41v-6.73a5.35,5.35,0,0,1,1-3.41,3.53,3.53,0,0,1,2.95-1.24A3.53,3.53,0,0,1,19.4,231a5.34,5.34,0,0,1,1,3.4v6.73a5.29,5.29,0,0,1-1,3.38A3.51,3.51,0,0,1,16.45,245.82Zm0-1.84q1.68,0,1.68-2.8v-6.73q0-.47,0-.85a4.1,4.1,0,0,0-.15-.75,2.1,2.1,0,0,0-.29-.64,1.32,1.32,0,0,0-.49-.41,1.75,1.75,0,0,0-1.46,0,1.32,1.32,0,0,0-.49.41,2.1,2.1,0,0,0-.29.64,4.1,4.1,0,0,0-.15.75q0,.37,0,.85v6.73a6.42,6.42,0,0,0,.07,1,3.74,3.74,0,0,0,.25.89,1.52,1.52,0,0,0,.52.66A1.41,1.41,0,0,0,16.45,244Z" transform="translate(0.38)"/><path class="cls-1" d="M5.29,169.07V156.72H3.6V155a3.79,3.79,0,0,0,2.24-1.68H7.53v15.71Z" transform="translate(0.38)"/><path class="cls-1" d="M9.21,169.07v-2.24h2.24v2.24Z" transform="translate(0.38)"/><path class="cls-1" d="M16.71,169.23a3.52,3.52,0,0,1-3-1.18,5.68,5.68,0,0,1-.89-3.47h2.24v.35c0,.3,0,.56,0,.78a4.06,4.06,0,0,0,.12.68,1.6,1.6,0,0,0,.25.56,1.23,1.23,0,0,0,.44.36,1.47,1.47,0,0,0,.67.14,1.94,1.94,0,0,0,.56-.07,1.86,1.86,0,0,0,.43-.18,1,1,0,0,0,.32-.32,4,4,0,0,0,.23-.39,1.9,1.9,0,0,0,.15-.5q.06-.31.09-.53c0-.14,0-.34,0-.6s0-.46,0-.61v-.93q0-.38,0-.64c0-.18,0-.37,0-.58a2.83,2.83,0,0,0-.11-.52,2.27,2.27,0,0,0-.19-.42,1,1,0,0,0-.3-.33,1.45,1.45,0,0,0-.43-.2,2.11,2.11,0,0,0-.58-.07,1.52,1.52,0,0,0-1,.39,2.29,2.29,0,0,0-.64.91H13.18v-8.47h6.94v2.24H15.21l-.14,3.8a4.32,4.32,0,0,1,2.24-.56,3.63,3.63,0,0,1,1.35.23,2.62,2.62,0,0,1,1,.64,3.19,3.19,0,0,1,.62,1,5.6,5.6,0,0,1,.34,1.26,9.92,9.92,0,0,1,.1,1.48,14.3,14.3,0,0,1-.11,1.82,7.39,7.39,0,0,1-.38,1.57,4,4,0,0,1-.71,1.26,3.09,3.09,0,0,1-1.14.81A4.13,4.13,0,0,1,16.71,169.23Z" transform="translate(0.38)"/><path class="cls-1" d="M0,92.47V90.22l3.94-5.61.31-.42.32-.45.27-.42a4.26,4.26,0,0,0,.27-.46l.2-.46a3.1,3.1,0,0,0,.18-.53c0-.16.07-.34.1-.54a4.53,4.53,0,0,0,0-.64,2.81,2.81,0,0,0-.43-1.59,1.41,1.41,0,0,0-1.25-.65,1.41,1.41,0,0,0-.82.24,1.48,1.48,0,0,0-.52.66,3.9,3.9,0,0,0-.26.89,6.16,6.16,0,0,0-.08,1v.56H0v-.56A5.47,5.47,0,0,1,1,77.82a3.54,3.54,0,0,1,3-1.22,3.81,3.81,0,0,1,2.92,1.07,4.23,4.23,0,0,1,1,3A6.87,6.87,0,0,1,7.74,82a5.15,5.15,0,0,1-.4,1.21,10.34,10.34,0,0,1-.51,1c-.15.25-.37.57-.64,1l-3.93,5H7.86v2.24Z" transform="translate(0.38)"/><path class="cls-1" d="M8.88,92.47V90.22h2.24v2.24Z" transform="translate(0.38)"/><path class="cls-1" d="M16.45,92.62A3.81,3.81,0,0,1,14.28,92,3.56,3.56,0,0,1,13,90.38,6.28,6.28,0,0,1,12.53,88V81.25a5.35,5.35,0,0,1,1-3.41,3.53,3.53,0,0,1,2.95-1.24,3.53,3.53,0,0,1,2.94,1.25,5.34,5.34,0,0,1,1,3.4V88a5.29,5.29,0,0,1-1,3.38A3.51,3.51,0,0,1,16.45,92.62Zm0-1.84q1.68,0,1.68-2.8V81.25q0-.47,0-.85a4.1,4.1,0,0,0-.15-.75,2.1,2.1,0,0,0-.29-.64,1.32,1.32,0,0,0-.49-.41,1.75,1.75,0,0,0-1.46,0,1.32,1.32,0,0,0-.49.41,2.1,2.1,0,0,0-.29.64,4.1,4.1,0,0,0-.15.75q0,.37,0,.85V88a6.42,6.42,0,0,0,.07,1,3.74,3.74,0,0,0,.25.89,1.52,1.52,0,0,0,.52.66A1.41,1.41,0,0,0,16.45,90.78Z" transform="translate(0.38)"/><path class="cls-1" d="M.33,15.87V13.62L4.27,8l.31-.43.32-.45.27-.42a4.21,4.21,0,0,0,.27-.46l.2-.46a3.1,3.1,0,0,0,.18-.53q.05-.23.1-.54a4.54,4.54,0,0,0,0-.64,2.81,2.81,0,0,0-.43-1.59,1.41,1.41,0,0,0-1.25-.65,1.41,1.41,0,0,0-.82.24,1.49,1.49,0,0,0-.52.66,3.9,3.9,0,0,0-.26.89,6.16,6.16,0,0,0-.08,1v.56H.34V4.65a5.47,5.47,0,0,1,.95-3.43A3.54,3.54,0,0,1,4.27,0,3.81,3.81,0,0,1,7.19,1.07a4.23,4.23,0,0,1,1,3,6.86,6.86,0,0,1-.13,1.36,5.16,5.16,0,0,1-.4,1.21,10.35,10.35,0,0,1-.51,1q-.23.38-.64,1l-3.93,5H8.2v2.24Z" transform="translate(0.38)"/><path class="cls-1" d="M9.21,15.87V13.62h2.24v2.24Z" transform="translate(0.38)"/><path class="cls-1" d="M16.71,16a3.52,3.52,0,0,1-3-1.18,5.67,5.67,0,0,1-.89-3.47h2.24v.35c0,.3,0,.56,0,.78a4,4,0,0,0,.12.67,1.61,1.61,0,0,0,.25.56,1.22,1.22,0,0,0,.44.35,1.47,1.47,0,0,0,.67.14,1.94,1.94,0,0,0,.56-.07,1.8,1.8,0,0,0,.43-.18,1,1,0,0,0,.32-.32,4,4,0,0,0,.23-.39,1.91,1.91,0,0,0,.15-.5q.06-.32.09-.53t0-.6q0-.39,0-.6V10.1c0-.25,0-.47,0-.64s0-.37,0-.58a2.82,2.82,0,0,0-.11-.52,2.29,2.29,0,0,0-.19-.42,1,1,0,0,0-.3-.33,1.47,1.47,0,0,0-.43-.2,2.12,2.12,0,0,0-.58-.07,1.52,1.52,0,0,0-1,.39,2.29,2.29,0,0,0-.64.91H13.18V.16h6.94V2.4H15.21l-.14,3.8a4.32,4.32,0,0,1,2.24-.56,3.62,3.62,0,0,1,1.35.23,2.62,2.62,0,0,1,1,.64,3.2,3.2,0,0,1,.62,1,5.59,5.59,0,0,1,.34,1.26,9.93,9.93,0,0,1,.1,1.48,14.3,14.3,0,0,1-.11,1.82,7.39,7.39,0,0,1-.38,1.57,4,4,0,0,1-.71,1.26,3.09,3.09,0,0,1-1.14.81A4.12,4.12,0,0,1,16.71,16Z" transform="translate(0.38)"/><path class="cls-1" d="M27.21,392.63a.5.5,0,0,1-.5-.5V9.13a.5.5,0,0,1,1,0v383A.5.5,0,0,1,27.21,392.63Z" transform="translate(0.38)"/><path class="cls-1" d="M36.78,392.63H27.21a.5.5,0,0,1,0-1h9.58a.5.5,0,1,1,0,1Z" transform="translate(0.38)"/><path class="cls-1" d="M36.78,316H27.21a.5.5,0,0,1,0-1h9.58a.5.5,0,0,1,0,1Z" transform="translate(0.38)"/><path class="cls-1" d="M36.78,239.43H27.21a.5.5,0,1,1,0-1h9.58a.5.5,0,0,1,0,1Z" transform="translate(0.38)"/><path class="cls-1" d="M36.78,162.83H27.21a.5.5,0,0,1,0-1h9.58a.5.5,0,0,1,0,1Z" transform="translate(0.38)"/><path class="cls-1" d="M36.78,86.23H27.21a.5.5,0,0,1,0-1h9.58a.5.5,0,0,1,0,1Z" transform="translate(0.38)"/><path class="cls-1" d="M36.78,9.63H27.21a.5.5,0,0,1,0-1h9.58a.5.5,0,0,1,0,1Z" transform="translate(0.38)"/><path class="cls-2" d="M467.27,29.28H419.39a1,1,0,0,1,0-2h47.88a1,1,0,0,1,0,2Z" transform="translate(0.38)"/><path class="cls-2" d="M54.56,300.26a1,1,0,0,1-.3-2L109,281.07a1,1,0,0,1,.6,1.91L54.86,300.21A1,1,0,0,1,54.56,300.26Z" transform="translate(0.38)"/><path class="cls-2" d="M109.28,283a1,1,0,0,1-.39-1.92l54.71-23.46a1,1,0,1,1,.79,1.84l-54.71,23.46A1,1,0,0,1,109.28,283Z" transform="translate(0.38)"/><path class="cls-2" d="M164,259.56a1,1,0,0,1-.63-1.78l54.71-44a1,1,0,0,1,1.25,1.56l-54.71,44A1,1,0,0,1,164,259.56Z" transform="translate(0.38)"/><path class="cls-2" d="M218.71,215.52a1,1,0,0,1-.54-1.84l54.71-35.43a1,1,0,1,1,1.09,1.68l-54.71,35.43A1,1,0,0,1,218.71,215.52Z" transform="translate(0.38)"/><path class="cls-2" d="M273.42,180.09a1,1,0,0,1-.46-1.89L327.68,150a1,1,0,0,1,.92,1.78L273.88,180A1,1,0,0,1,273.42,180.09Z" transform="translate(0.38)"/><path class="cls-2" d="M328.13,151.84a1,1,0,0,1-.77-1.64l54.71-65.59a1,1,0,1,1,1.54,1.28L328.9,151.48A1,1,0,0,1,328.13,151.84Z" transform="translate(0.38)"/><path class="cls-3" d="M467.27,86.73H419.39a1,1,0,0,1,0-2h47.88a1,1,0,0,1,0,2Z" transform="translate(0.38)"/><path class="cls-3" d="M54.56,284.52a1,1,0,0,1-.55-1.84l54.71-35.76a1,1,0,1,1,1.09,1.67L55.11,284.36A1,1,0,0,1,54.56,284.52Z" transform="translate(0.38)"/><path class="cls-3" d="M109.28,248.76a1,1,0,0,1-.67-1.75l54.71-48.66a1,1,0,0,1,1.33,1.49l-54.71,48.66A1,1,0,0,1,109.28,248.76Z" transform="translate(0.38)"/><path class="cls-3" d="M164,200.1a1,1,0,0,1-.75-1.67L218,137.16a1,1,0,0,1,1.49,1.33l-54.71,61.28A1,1,0,0,1,164,200.1Z" transform="translate(0.38)"/><path class="cls-3" d="M218.71,138.82a1,1,0,0,1-.57-1.82l54.71-38.3a1,1,0,1,1,1.15,1.64l-54.71,38.3A1,1,0,0,1,218.71,138.82Z" transform="translate(0.38)"/><path class="cls-3" d="M273.42,100.52a1,1,0,0,1-.59-1.81l54.71-39.83a1,1,0,0,1,1.18,1.62L274,100.33A1,1,0,0,1,273.42,100.52Z" transform="translate(0.38)"/><path class="cls-3" d="M328.14,60.69a1,1,0,0,1-.57-1.82l54.71-38.3a1,1,0,0,1,1.15,1.64l-54.71,38.3A1,1,0,0,1,328.14,60.69Z" transform="translate(0.38)"/><path class="cls-2" d="M473.39,35l3.37-15.71H479L482.37,35h-2.24l-.84-3.93h-2.81L475.64,35Zm3.37-5.61H479l-1.12-6.73Z" transform="translate(0.38)"/><path class="cls-2" d="M485.15,35,482.63,23.8h2.16l1.56,8.42,1.42-8.42h2.16L487.41,35Z" transform="translate(0.38)"/><path class="cls-2" d="M494.67,38.37H494l-.72,0a6.78,6.78,0,0,1-.76-.07l-.7-.12a2.7,2.7,0,0,1-.65-.2,3.37,3.37,0,0,1-.5-.29,1.08,1.08,0,0,1-.35-.41,1.2,1.2,0,0,1-.12-.54,2.42,2.42,0,0,1,.47-1.5,3.35,3.35,0,0,1,1.21-1,2.3,2.3,0,0,1-.79-.37.74.74,0,0,1-.33-.61,1.53,1.53,0,0,1,0-.32,3,3,0,0,1,.08-.3,1.83,1.83,0,0,1,.14-.31l.15-.28a3.11,3.11,0,0,1,.19-.28l.18-.25.19-.24.16-.2a5,5,0,0,1-1.12-3.37,5.52,5.52,0,0,1,.37-2.08,3.22,3.22,0,0,1,1.14-1.46,3.13,3.13,0,0,1,1.85-.55,3.08,3.08,0,0,1,1.09.18,2.35,2.35,0,0,1,.76.44,3.53,3.53,0,0,1,.57.71,2.25,2.25,0,0,1,1.89-1.31h.17v1.83h-.71a2,2,0,0,0-.43.07.84.84,0,0,0-.38.21,4.34,4.34,0,0,1,.28.91,5.12,5.12,0,0,1,.12,1,5.66,5.66,0,0,1-.35,2.08A3.12,3.12,0,0,1,496,31.25a3.2,3.2,0,0,1-1.88.54L493,31.66l-.09.15-.11.18a1,1,0,0,0-.07.18.68.68,0,0,0,0,.21.46.46,0,0,0,.22.39,1.53,1.53,0,0,0,.6.23q.39.07.74.11l.79.06.6,0q.5.07.89.16a4.79,4.79,0,0,1,.8.27,2.33,2.33,0,0,1,.67.42,1.9,1.9,0,0,1,.43.63,2.16,2.16,0,0,1,.17.89,2.66,2.66,0,0,1-.21,1.1,2.26,2.26,0,0,1-.57.8,3,3,0,0,1-.87.52,4.85,4.85,0,0,1-1.07.29A7.83,7.83,0,0,1,494.67,38.37Zm0-1.66h.42l.43,0a2.23,2.23,0,0,0,.43-.08,2,2,0,0,0,.34-.15.64.64,0,0,0,.25-.23.63.63,0,0,0,.09-.33q0-.94-1.8-1.15L493,34.52a2,2,0,0,0-.58.71,2.09,2.09,0,0,0-.24,1,.34.34,0,0,0,.1.24.61.61,0,0,0,.29.15l.39.09a3.33,3.33,0,0,0,.47,0h1.27Zm-.56-6.61q1.4,0,1.4-2.38a6.11,6.11,0,0,0-.06-.89,3.82,3.82,0,0,0-.21-.8,1.38,1.38,0,0,0-.44-.61,1.1,1.1,0,0,0-.69-.22,1.11,1.11,0,0,0-.7.22A1.35,1.35,0,0,0,493,26a4,4,0,0,0-.21.8,6,6,0,0,0-.06.89Q492.71,30.11,494.11,30.11Z" transform="translate(0.38)"/><path class="cls-2" d="M498.76,35V32.77H501V35Z" transform="translate(0.38)"/><path class="cls-2" d="M510.37,35.17a5,5,0,0,1-1.74-.28,3.3,3.3,0,0,1-1.24-.78,3.8,3.8,0,0,1-.78-1.24,6.73,6.73,0,0,1-.43-1.58,13.4,13.4,0,0,1-.12-1.9V24.92a13.4,13.4,0,0,1,.12-1.9,6.73,6.73,0,0,1,.43-1.58,3.76,3.76,0,0,1,.78-1.23,3.33,3.33,0,0,1,1.24-.77,5.63,5.63,0,0,1,3.64,0,3,3,0,0,1,1.28,1,4.44,4.44,0,0,1,.72,1.46,8.18,8.18,0,0,1,.29,1.95q0,.17,0,.52h-2.24v-.5q0-.47,0-.79a5.81,5.81,0,0,0-.1-.68,1.88,1.88,0,0,0-.21-.58,1.94,1.94,0,0,0-.34-.43,1.23,1.23,0,0,0-.52-.29,2.63,2.63,0,0,0-.74-.09,2.27,2.27,0,0,0-.93.18,1.6,1.6,0,0,0-.61.45,2,2,0,0,0-.34.74,5.39,5.39,0,0,0-.15.91q0,.44,0,1.09V30a9.72,9.72,0,0,0,0,1,4.72,4.72,0,0,0,.19.91,2.58,2.58,0,0,0,.36.76,1.63,1.63,0,0,0,.6.5,1.9,1.9,0,0,0,.87.19,1.8,1.8,0,0,0,.86-.19,1.58,1.58,0,0,0,.57-.49,2.38,2.38,0,0,0,.32-.76,5.4,5.4,0,0,0,.15-.9q0-.44,0-1v-.56h2.24V30a9.46,9.46,0,0,1-.21,2.14,4.84,4.84,0,0,1-.69,1.63,3,3,0,0,1-1.3,1.07A4.8,4.8,0,0,1,510.37,35.17Z" transform="translate(0.38)"/><path class="cls-2" d="M521.69,34.12a3.7,3.7,0,0,1-5.17,0,5,5,0,0,1-.78-3V27.72a5,5,0,0,1,.78-3,3.7,3.7,0,0,1,5.17,0,5,5,0,0,1,.78,3v3.37A5,5,0,0,1,521.69,34.12Zm-3-.86a1.27,1.27,0,0,0,.83,0,1,1,0,0,0,.3-.17.73.73,0,0,0,.2-.3c.05-.13.09-.25.12-.35a2.07,2.07,0,0,0,.06-.43c0-.19,0-.33,0-.44s0-.27,0-.49V27.72c0-.22,0-.38,0-.49s0-.26,0-.44a2.07,2.07,0,0,0-.06-.43c0-.1-.07-.21-.12-.35a.73.73,0,0,0-.2-.3,1,1,0,0,0-.3-.17,1.27,1.27,0,0,0-.83,0,1,1,0,0,0-.3.17.74.74,0,0,0-.2.3,3.63,3.63,0,0,0-.12.35,2.07,2.07,0,0,0-.06.43c0,.19,0,.33,0,.44s0,.27,0,.49v3.37c0,.22,0,.38,0,.49s0,.26,0,.44a2.07,2.07,0,0,0,.06.43,3.63,3.63,0,0,0,.12.35.74.74,0,0,0,.2.3A1,1,0,0,0,518.68,33.26Z" transform="translate(0.38)"/><path class="cls-2" d="M524.31,35V23.8h2.24V25q.5-.46.82-.7a3.58,3.58,0,0,1,.87-.46,3.28,3.28,0,0,1,1.19-.21,1.46,1.46,0,0,1,1.17.53,1.92,1.92,0,0,1,.45,1.29V35H528.8V26.6a1.68,1.68,0,0,0-.17-.85.74.74,0,0,0-.67-.27,1.49,1.49,0,0,0-.57.12,2.25,2.25,0,0,0-.43.22l-.4.32V35Z" transform="translate(0.38)"/><path class="cls-2" d="M533,35V23.8h2.24V25q.5-.46.82-.7a3.58,3.58,0,0,1,.87-.46,3.28,3.28,0,0,1,1.19-.21,1.46,1.46,0,0,1,1.17.53,1.92,1.92,0,0,1,.45,1.29V35h-2.24V26.6a1.68,1.68,0,0,0-.17-.85.74.74,0,0,0-.67-.27,1.49,1.49,0,0,0-.57.12,2.25,2.25,0,0,0-.43.22l-.4.32V35Z" transform="translate(0.38)"/><path class="cls-2" d="M544.87,35.17a3.32,3.32,0,0,1-1.42-.28,2.57,2.57,0,0,1-1-.73,3.55,3.55,0,0,1-.57-1.16,7.84,7.84,0,0,1-.3-1.41q-.08-.71-.1-1.64,0-.74,0-1.47a15.05,15.05,0,0,1,.12-1.56A6.53,6.53,0,0,1,542,25.6a3.18,3.18,0,0,1,.59-1.05,2.61,2.61,0,0,1,1-.66,3.52,3.52,0,0,1,1.38-.25,3.9,3.9,0,0,1,1.27.19,2.24,2.24,0,0,1,.91.57,3.66,3.66,0,0,1,.61.85,4.08,4.08,0,0,1,.36,1.13,12.13,12.13,0,0,1,.17,1.3q0,.64,0,1.47v.26h-4.49v.92q0,.32,0,.67t0,.68a3.23,3.23,0,0,0,.1.64,2.72,2.72,0,0,0,.19.53.86.86,0,0,0,.81.49,1.12,1.12,0,0,0,.58-.14.81.81,0,0,0,.34-.41,2.52,2.52,0,0,0,.15-.54,5.09,5.09,0,0,0,.05-.68v-.47h2.23v.45a4.31,4.31,0,0,1-.89,2.72A3.13,3.13,0,0,1,544.87,35.17Zm-1.1-6.89H546v-.67a7.12,7.12,0,0,0-.05-.78,3.65,3.65,0,0,0-.15-.67,1,1,0,0,0-.34-.51,1,1,0,0,0-1.13,0,1.06,1.06,0,0,0-.34.53,3.87,3.87,0,0,0-.15.68,7.26,7.26,0,0,0-.05.8Z" transform="translate(0.38)"/><path class="cls-2" d="M552.68,35.17a3.42,3.42,0,0,1-1.42-.27,2.6,2.6,0,0,1-1-.71,3.37,3.37,0,0,1-.58-1.12,7.3,7.3,0,0,1-.3-1.36,15.66,15.66,0,0,1-.1-1.58q0-.73,0-1.46a15.74,15.74,0,0,1,.1-1.58,7.15,7.15,0,0,1,.31-1.36,3.43,3.43,0,0,1,.58-1.11,2.58,2.58,0,0,1,1-.71,3.42,3.42,0,0,1,1.42-.27,3.08,3.08,0,0,1,2.54,1,4.65,4.65,0,0,1,.82,2.83v.3h-2.24v-.32a5.7,5.7,0,0,0-.06-.74,3.55,3.55,0,0,0-.16-.63,1,1,0,0,0-.34-.49.93.93,0,0,0-.57-.17.83.83,0,0,0-.56.2,1.22,1.22,0,0,0-.35.57,4.39,4.39,0,0,0-.17.76,7.8,7.8,0,0,0-.06.9q0,1.09,0,3.28a8,8,0,0,0,.07.85,3.72,3.72,0,0,0,.17.7,1.13,1.13,0,0,0,.35.52.85.85,0,0,0,.55.18,1.09,1.09,0,0,0,.51-.11.9.9,0,0,0,.33-.28,1.35,1.35,0,0,0,.18-.45,3.47,3.47,0,0,0,.08-.52q0-.24,0-.61v-.27h2.24v.29a6.44,6.44,0,0,1-.22,1.56,3.47,3.47,0,0,1-.58,1.19,2.46,2.46,0,0,1-1,.78A4,4,0,0,1,552.68,35.17Z" transform="translate(0.38)"/><path class="cls-2" d="M560.56,35.17a2.45,2.45,0,0,1-1.92-.67,3.06,3.06,0,0,1-.62-2v-7h-1.12V23.8H558V19.87h2.24V23.8h1.68v1.68h-1.68V32a2,2,0,0,0,.18,1,.79.79,0,0,0,.75.32,4.91,4.91,0,0,0,.75-.09v1.82A11.63,11.63,0,0,1,560.56,35.17Z" transform="translate(0.38)"/><path class="cls-2" d="M563.68,22.11V19.87h2.24v2.24Zm0,12.9V23.8h2.24V35Z" transform="translate(0.38)"/><path class="cls-2" d="M573.81,34.12a3.7,3.7,0,0,1-5.17,0,5,5,0,0,1-.78-3V27.72a5,5,0,0,1,.78-3,3.7,3.7,0,0,1,5.17,0,5,5,0,0,1,.78,3v3.37A5,5,0,0,1,573.81,34.12Zm-3-.86a1.27,1.27,0,0,0,.83,0,1,1,0,0,0,.3-.17.73.73,0,0,0,.2-.3c.05-.13.09-.25.12-.35a2.07,2.07,0,0,0,.06-.43c0-.19,0-.33,0-.44s0-.27,0-.49V27.72c0-.22,0-.38,0-.49s0-.26,0-.44a2.07,2.07,0,0,0-.06-.43c0-.1-.07-.21-.12-.35a.73.73,0,0,0-.2-.3,1,1,0,0,0-.3-.17,1.27,1.27,0,0,0-.83,0,1,1,0,0,0-.3.17.74.74,0,0,0-.2.3,3.63,3.63,0,0,0-.12.35,2.07,2.07,0,0,0-.06.43c0,.19,0,.33,0,.44s0,.27,0,.49v3.37c0,.22,0,.38,0,.49s0,.26,0,.44a2.07,2.07,0,0,0,.06.43,3.63,3.63,0,0,0,.12.35.74.74,0,0,0,.2.3A1,1,0,0,0,570.81,33.26Z" transform="translate(0.38)"/><path class="cls-2" d="M576.43,35V23.8h2.24V25q.5-.46.82-.7a3.58,3.58,0,0,1,.87-.46,3.28,3.28,0,0,1,1.19-.21,1.46,1.46,0,0,1,1.17.53,1.92,1.92,0,0,1,.45,1.29V35h-2.24V26.6a1.68,1.68,0,0,0-.17-.85.74.74,0,0,0-.67-.27,1.49,1.49,0,0,0-.57.12,2.25,2.25,0,0,0-.43.22l-.4.32V35Z" transform="translate(0.38)"/><path class="cls-2" d="M593,35.17a4.13,4.13,0,0,1-3.24-1.24,5.43,5.43,0,0,1-1.25-3.4l2.24-.56q.17,3.37,2.24,3.37a1.49,1.49,0,0,0,1.68-1.68,3,3,0,0,0-.14-.92,2.45,2.45,0,0,0-.42-.78,5.38,5.38,0,0,0-.51-.57c-.15-.14-.36-.32-.62-.53l-2.8-2.24a4.39,4.39,0,0,1-1.23-1.54,4.75,4.75,0,0,1-.46-2.13,3.63,3.63,0,0,1,1.08-2.76,4,4,0,0,1,2.86-1,4.61,4.61,0,0,1,3,.93,4.1,4.1,0,0,1,1.39,2.64q0,.18.06.51l-2.24.56c0-.1,0-.25,0-.45a3.42,3.42,0,0,0-.67-1.71A1.85,1.85,0,0,0,592.4,21a1.65,1.65,0,0,0-1.25.45,1.73,1.73,0,0,0-.44,1.26,2.73,2.73,0,0,0,1.12,2.22l2.81,2.24a5.43,5.43,0,0,1,2.24,4.34,3.47,3.47,0,0,1-1.07,2.7A4.08,4.08,0,0,1,593,35.17Z" transform="translate(0.38)"/><path class="cls-2" d="M598.43,38.38V23.8h2.24v1.12l.38-.39.36-.32a2.11,2.11,0,0,1,.45-.31,3.34,3.34,0,0,1,.48-.17,2.24,2.24,0,0,1,.61-.08,2.4,2.4,0,0,1,1,.21,2.5,2.5,0,0,1,.74.5,2.29,2.29,0,0,1,.49.83,7.83,7.83,0,0,1,.3,1,8,8,0,0,1,.15,1.18q.05.75.06,1.21t0,1.27V30a13.07,13.07,0,0,1-.08,1.42,8.5,8.5,0,0,1-.27,1.39,5.17,5.17,0,0,1-.5,1.22,2.51,2.51,0,0,1-.81.85,2.07,2.07,0,0,1-1.15.33A3.15,3.15,0,0,1,600.68,34v4.37Zm3.93-5a.78.78,0,0,0,.6-.26,1.62,1.62,0,0,0,.35-.75,7.14,7.14,0,0,0,.15-1q0-.48,0-1.12l0-1.48q0-.39,0-.64t0-.64a5.82,5.82,0,0,0-.07-.65,5,5,0,0,0-.15-.56,1.55,1.55,0,0,0-.23-.48,1.18,1.18,0,0,0-.35-.3,1,1,0,0,0-.49-.12l-.25,0-.25.06-.21.07-.21.1-.19.1-.2.12-.18.11v6.94A3.25,3.25,0,0,0,602.36,33.33Z" transform="translate(0.38)"/><path class="cls-2" d="M610.74,35.17a3.32,3.32,0,0,1-1.42-.28,2.57,2.57,0,0,1-1-.73A3.55,3.55,0,0,1,607.8,33a7.84,7.84,0,0,1-.3-1.41q-.08-.71-.1-1.64,0-.74,0-1.47a15.05,15.05,0,0,1,.12-1.56,6.53,6.53,0,0,1,.32-1.32,3.18,3.18,0,0,1,.59-1.05,2.61,2.61,0,0,1,1-.66,3.52,3.52,0,0,1,1.38-.25,3.9,3.9,0,0,1,1.27.19,2.24,2.24,0,0,1,.91.57,3.66,3.66,0,0,1,.61.85,4.08,4.08,0,0,1,.36,1.13,12.13,12.13,0,0,1,.17,1.3q0,.64,0,1.47v.26h-4.49v.92q0,.32,0,.67t0,.68a3.23,3.23,0,0,0,.1.64,2.72,2.72,0,0,0,.19.53.86.86,0,0,0,.81.49,1.12,1.12,0,0,0,.58-.14.81.81,0,0,0,.34-.41,2.52,2.52,0,0,0,.15-.54,5.09,5.09,0,0,0,.05-.68v-.47h2.23v.45a4.31,4.31,0,0,1-.89,2.72A3.13,3.13,0,0,1,610.74,35.17Zm-1.1-6.89h2.23v-.67a7.12,7.12,0,0,0-.05-.78,3.65,3.65,0,0,0-.15-.67,1,1,0,0,0-.34-.51,1,1,0,0,0-1.13,0,1.06,1.06,0,0,0-.34.53,3.87,3.87,0,0,0-.15.68,7.26,7.26,0,0,0-.05.8Z" transform="translate(0.38)"/><path class="cls-2" d="M618.92,35.17a3.32,3.32,0,0,1-1.42-.28,2.57,2.57,0,0,1-1-.73A3.55,3.55,0,0,1,616,33a7.84,7.84,0,0,1-.3-1.41q-.08-.71-.1-1.64,0-.74,0-1.47a15.05,15.05,0,0,1,.12-1.56A6.53,6.53,0,0,1,616,25.6a3.18,3.18,0,0,1,.59-1.05,2.61,2.61,0,0,1,1-.66,3.52,3.52,0,0,1,1.38-.25,3.9,3.9,0,0,1,1.27.19,2.24,2.24,0,0,1,.91.57,3.66,3.66,0,0,1,.61.85,4.08,4.08,0,0,1,.36,1.13,12.13,12.13,0,0,1,.17,1.3q0,.64,0,1.47v.26h-4.49v.92q0,.32,0,.67t0,.68a3.23,3.23,0,0,0,.1.64,2.72,2.72,0,0,0,.19.53.86.86,0,0,0,.81.49,1.12,1.12,0,0,0,.58-.14.81.81,0,0,0,.34-.41,2.52,2.52,0,0,0,.15-.54,5.09,5.09,0,0,0,.05-.68v-.47h2.23v.45a4.31,4.31,0,0,1-.89,2.72A3.13,3.13,0,0,1,618.92,35.17Zm-1.1-6.89H620v-.67a7.12,7.12,0,0,0-.05-.78,3.65,3.65,0,0,0-.15-.67,1,1,0,0,0-.34-.51,1,1,0,0,0-1.13,0,1.06,1.06,0,0,0-.34.53,3.87,3.87,0,0,0-.15.68,7.26,7.26,0,0,0-.05.8Z" transform="translate(0.38)"/><path class="cls-2" d="M626.55,35.17a2.1,2.1,0,0,1-1.3-.42,2.7,2.7,0,0,1-.86-1.14,7.47,7.47,0,0,1-.45-1.5,11.16,11.16,0,0,1-.18-1.67q0-.41,0-2,0-.58.05-1c0-.31.06-.64.12-1a6.1,6.1,0,0,1,.21-.9,3.93,3.93,0,0,1,.34-.75,2.24,2.24,0,0,1,.49-.6,2.16,2.16,0,0,1,.68-.38,2.6,2.6,0,0,1,.88-.14,2.4,2.4,0,0,1,.71.1,2.15,2.15,0,0,1,.63.32,5.15,5.15,0,0,1,.48.38q.18.17.47.47V19.32H631V35h-2.24V34a5.37,5.37,0,0,1-1,.85A2.26,2.26,0,0,1,626.55,35.17Zm.56-1.84a4.48,4.48,0,0,0,1.68-.35V25.93a3.23,3.23,0,0,0-1.68-.45,1,1,0,0,0-.56.16,1,1,0,0,0-.34.47,3.42,3.42,0,0,0-.17.64,5.68,5.68,0,0,0-.06.78q0,2,0,3.11a9.72,9.72,0,0,0,.06,1,5.28,5.28,0,0,0,.17.85,1.38,1.38,0,0,0,.35.63A.77.77,0,0,0,627.11,33.33Z" transform="translate(0.38)"/><path class="cls-2" d="M478.3,57.12a4,4,0,0,1-1.27-.19,2.42,2.42,0,0,1-1-.59,5.55,5.55,0,0,1-.69-.84,3.7,3.7,0,0,1-.47-1.14q-.18-.7-.29-1.26a10.22,10.22,0,0,1-.16-1.45q0-.88-.06-1.46t0-1.5q0-1.07,0-1.72t.09-1.65a10.72,10.72,0,0,1,.23-1.61,10.33,10.33,0,0,1,.43-1.34,3.24,3.24,0,0,1,.7-1.13,3.41,3.41,0,0,1,1-.68,3.5,3.5,0,0,1,1.42-.28V42a1.12,1.12,0,0,0-.76.28,1.88,1.88,0,0,0-.5.7,4.66,4.66,0,0,0-.28,1.06,11.16,11.16,0,0,0-.14,1.22q0,.58,0,1.31,0,.42,0,1.15t0,1q0,.28,0,1t0,1.17q0,.74,0,1.31a10.86,10.86,0,0,0,.14,1.21,4.65,4.65,0,0,0,.28,1.05,1.84,1.84,0,0,0,.5.69,1.13,1.13,0,0,0,.76.27Z" transform="translate(0.38)"/><path class="cls-2" d="M480,56.56V40.85h3.1l2.23,12,2.23-12h3.1V56.56H488.4V44.17l-2.24,12.4h-1.68l-2.24-12.4v12.4Z" transform="translate(0.38)"/><path class="cls-2" d="M492.89,56.56V40.85h3.37a7.61,7.61,0,0,1,1.95.23,4.53,4.53,0,0,1,1.5.69,3,3,0,0,1,1,1.23,4.27,4.27,0,0,1,.35,1.78,3.48,3.48,0,0,1-.62,2.24,3.64,3.64,0,0,1-1.92,1.13,4.29,4.29,0,0,1,2.1,1.36,4.09,4.09,0,0,1,.7,2.56,4.16,4.16,0,0,1-4.49,4.49Zm2.24-9h1.12a2.48,2.48,0,0,0,2.8-2.81,2.68,2.68,0,0,0-.11-.82,2.41,2.41,0,0,0-.27-.59,1.21,1.21,0,0,0-.48-.4,4.29,4.29,0,0,0-.58-.25,3.36,3.36,0,0,0-.75-.13l-.81,0h-.92Zm0,7.29h1.12a2.82,2.82,0,1,0,0-5.61h-1.12Z" transform="translate(0.38)"/><path class="cls-2" d="M501.81,56.56l5-15.71h2.25l-5,15.71Z" transform="translate(0.38)"/><path class="cls-2" d="M513.08,56.72a3,3,0,0,1-2.22-.82,4.29,4.29,0,0,1-1.14-2.14l1.68-.56q.6,1.68,1.68,1.68a1,1,0,0,0,1.12-1.12,1.69,1.69,0,0,0-.56-1.3l-2.24-1.68a6.19,6.19,0,0,1-.63-.48,4.43,4.43,0,0,1-.52-.55,2.29,2.29,0,0,1-.4-.73,3,3,0,0,1,.78-3.08,3.71,3.71,0,0,1,2.45-.76,3.55,3.55,0,0,1,1.32.23,2.72,2.72,0,0,1,1,.65A3.94,3.94,0,0,1,516,47a5.16,5.16,0,0,1,.41,1.14l-1.68.56a5.57,5.57,0,0,0-.25-.57,3.93,3.93,0,0,0-.33-.52,1.5,1.5,0,0,0-.49-.43,1.28,1.28,0,0,0-.62-.15A1,1,0,0,0,512,48.15a1.19,1.19,0,0,0,.56.95l2.24,1.68a6.68,6.68,0,0,1,.64.57,5.31,5.31,0,0,1,.52.64,2.79,2.79,0,0,1,.39.81,3.4,3.4,0,0,1,.13,1,2.7,2.7,0,0,1-.92,2.2A3.7,3.7,0,0,1,513.08,56.72Z" transform="translate(0.38)"/><path class="cls-2" d="M521,56.72a3.32,3.32,0,0,1-1.42-.28,2.57,2.57,0,0,1-1-.73,3.55,3.55,0,0,1-.57-1.16,7.84,7.84,0,0,1-.3-1.41q-.08-.71-.1-1.64,0-.74,0-1.47a15.05,15.05,0,0,1,.12-1.56,6.53,6.53,0,0,1,.32-1.32,3.18,3.18,0,0,1,.59-1.05,2.61,2.61,0,0,1,1-.66,3.52,3.52,0,0,1,1.38-.25,3.9,3.9,0,0,1,1.27.19,2.24,2.24,0,0,1,.91.57,3.66,3.66,0,0,1,.61.85,4.08,4.08,0,0,1,.36,1.13,12.13,12.13,0,0,1,.17,1.3q0,.64,0,1.47V51h-4.49v.92q0,.32,0,.67t0,.68a3.23,3.23,0,0,0,.1.64,2.72,2.72,0,0,0,.19.53.86.86,0,0,0,.81.49,1.12,1.12,0,0,0,.58-.14.81.81,0,0,0,.34-.41,2.52,2.52,0,0,0,.15-.54,5.09,5.09,0,0,0,.05-.68v-.47h2.23v.45a4.31,4.31,0,0,1-.89,2.72A3.13,3.13,0,0,1,521,56.72Zm-1.1-6.89h2.23v-.67a7.12,7.12,0,0,0-.05-.78,3.65,3.65,0,0,0-.15-.67,1,1,0,0,0-.34-.51,1,1,0,0,0-1.13,0,1.06,1.06,0,0,0-.34.53,3.87,3.87,0,0,0-.15.68,7.26,7.26,0,0,0-.05.8Z" transform="translate(0.38)"/><path class="cls-2" d="M528.8,56.72a3.42,3.42,0,0,1-1.42-.27,2.6,2.6,0,0,1-1-.71,3.37,3.37,0,0,1-.58-1.12,7.3,7.3,0,0,1-.3-1.36,15.66,15.66,0,0,1-.1-1.58q0-.73,0-1.46a15.74,15.74,0,0,1,.1-1.58,7.15,7.15,0,0,1,.31-1.36,3.43,3.43,0,0,1,.58-1.11,2.58,2.58,0,0,1,1-.71,3.42,3.42,0,0,1,1.42-.27,3.08,3.08,0,0,1,2.54,1,4.65,4.65,0,0,1,.82,2.83v.3h-2.24V49a5.7,5.7,0,0,0-.06-.74,3.55,3.55,0,0,0-.16-.63,1,1,0,0,0-.34-.49.93.93,0,0,0-.57-.17.83.83,0,0,0-.56.2,1.22,1.22,0,0,0-.35.57,4.39,4.39,0,0,0-.17.76,7.8,7.8,0,0,0-.06.9q0,1.09,0,3.28a8,8,0,0,0,.07.85,3.72,3.72,0,0,0,.17.7,1.13,1.13,0,0,0,.35.52.85.85,0,0,0,.55.18,1.09,1.09,0,0,0,.51-.11.9.9,0,0,0,.33-.28,1.35,1.35,0,0,0,.18-.45,3.47,3.47,0,0,0,.08-.52q0-.24,0-.61v-.27h2.24v.29a6.44,6.44,0,0,1-.22,1.56,3.47,3.47,0,0,1-.58,1.19,2.46,2.46,0,0,1-1,.78A4,4,0,0,1,528.8,56.72Z" transform="translate(0.38)"/><path class="cls-2" d="M533.09,57.12V55.44a1.12,1.12,0,0,0,.76-.28,1.88,1.88,0,0,0,.5-.7,4.65,4.65,0,0,0,.28-1.06,11.41,11.41,0,0,0,.14-1.22q0-.58,0-1.31,0-.42,0-1.15t0-1q0-.28,0-1t0-1.17q0-.74,0-1.31a11.1,11.1,0,0,0-.14-1.21,4.65,4.65,0,0,0-.28-1.05,1.84,1.84,0,0,0-.5-.69,1.13,1.13,0,0,0-.76-.27V40.29a4,4,0,0,1,1.27.19,2.42,2.42,0,0,1,1,.59,5.58,5.58,0,0,1,.69.84A3.7,3.7,0,0,1,536.5,43q.18.7.29,1.26a10.22,10.22,0,0,1,.16,1.45q0,.88.06,1.46t0,1.5q0,1.07,0,1.72t-.09,1.65a10.72,10.72,0,0,1-.23,1.61,10.33,10.33,0,0,1-.43,1.34,3.24,3.24,0,0,1-.7,1.13,3.41,3.41,0,0,1-1,.68A3.5,3.5,0,0,1,533.09,57.12Z" transform="translate(0.38)"/><path class="cls-1" d="M366.68,411.58v-2.24l3.94-5.61.31-.42.32-.45.27-.42a4.28,4.28,0,0,0,.27-.46l.2-.46a3.24,3.24,0,0,0,.18-.53c0-.16.07-.34.1-.54a4.53,4.53,0,0,0,0-.63,2.81,2.81,0,0,0-.43-1.59,1.53,1.53,0,0,0-2.07-.42,1.48,1.48,0,0,0-.52.66,3.9,3.9,0,0,0-.26.89,6.15,6.15,0,0,0-.08,1v.56h-2.24v-.56a5.47,5.47,0,0,1,.95-3.43,3.54,3.54,0,0,1,3-1.22,3.81,3.81,0,0,1,2.92,1.07,4.23,4.23,0,0,1,1,3,6.87,6.87,0,0,1-.13,1.36,5.15,5.15,0,0,1-.4,1.21,10.35,10.35,0,0,1-.51,1q-.23.38-.64,1l-3.93,5h5.61v2.24Z" transform="translate(0.38)"/><path class="cls-1" d="M379.77,411.74a3.81,3.81,0,0,1-2.18-.61,3.56,3.56,0,0,1-1.32-1.63,6.28,6.28,0,0,1-.42-2.41v-6.73a5.35,5.35,0,0,1,1-3.41,4.11,4.11,0,0,1,5.89,0,5.34,5.34,0,0,1,1,3.4v6.73a5.29,5.29,0,0,1-1,3.38A3.51,3.51,0,0,1,379.77,411.74Zm0-1.84q1.68,0,1.68-2.8v-6.73q0-.47,0-.85a4.18,4.18,0,0,0-.14-.75,2.12,2.12,0,0,0-.29-.64,1.32,1.32,0,0,0-.49-.41,1.76,1.76,0,0,0-1.46,0,1.33,1.33,0,0,0-.49.41,2.1,2.1,0,0,0-.29.64,4.1,4.1,0,0,0-.14.75q0,.37,0,.85v6.73a6.42,6.42,0,0,0,.07,1,3.79,3.79,0,0,0,.25.89,1.53,1.53,0,0,0,.52.66A1.41,1.41,0,0,0,379.77,409.9Z" transform="translate(0.38)"/><path class="cls-1" d="M386.78,411.58V399.24H385.1v-1.68a3.79,3.79,0,0,0,2.24-1.68H389v15.71Z" transform="translate(0.38)"/><path class="cls-1" d="M395.06,411.74a3.79,3.79,0,0,1-1.46-.27,3.19,3.19,0,0,1-1.11-.75,4.26,4.26,0,0,1-.76-1.13,5.83,5.83,0,0,1-.45-1.43,9,9,0,0,1-.14-1.63v-5a13,13,0,0,1,.11-1.78,7.35,7.35,0,0,1,.39-1.57,4.36,4.36,0,0,1,.72-1.28,3.05,3.05,0,0,1,1.13-.83,4.37,4.37,0,0,1,4.48.77,4.21,4.21,0,0,1,1,3h-2.24a3.14,3.14,0,0,0-.36-1.68,1.45,1.45,0,0,0-1.32-.56q-1.68,0-1.68,3.37v2.24a2.38,2.38,0,0,1,2.24-1.12,3.65,3.65,0,0,1,1.62.33,2.44,2.44,0,0,1,1,1,4.63,4.63,0,0,1,.54,1.41,9.61,9.61,0,0,1-.05,3.82,5.49,5.49,0,0,1-.67,1.64,3.17,3.17,0,0,1-1.23,1.13A3.82,3.82,0,0,1,395.06,411.74Zm-.82-2.08a1.56,1.56,0,0,0,1.65,0,1.49,1.49,0,0,0,.52-.66,4,4,0,0,0,.26-.89,6.27,6.27,0,0,0,.08-1v-.5c0-.11,0-.28,0-.49s0-.37,0-.49,0-.26-.06-.43a1.74,1.74,0,0,0-.1-.41l-.15-.34a.88.88,0,0,0-.21-.3l-.28-.21a1.06,1.06,0,0,0-.37-.15,2.24,2.24,0,0,0-.46,0,1.84,1.84,0,0,0-1.68,1.12v2.24a6.13,6.13,0,0,0,.08,1,3.89,3.89,0,0,0,.26.89A1.49,1.49,0,0,0,394.23,409.66Z" transform="translate(0.38)"/><path class="cls-1" d="M312.11,411.58v-2.24l3.94-5.61.31-.42.32-.45.27-.42a4.28,4.28,0,0,0,.27-.46l.2-.46a3.24,3.24,0,0,0,.18-.53c0-.16.07-.34.1-.54a4.53,4.53,0,0,0,0-.63,2.81,2.81,0,0,0-.43-1.59,1.53,1.53,0,0,0-2.07-.42,1.48,1.48,0,0,0-.52.66,3.9,3.9,0,0,0-.26.89,6.15,6.15,0,0,0-.08,1v.56h-2.24v-.56a5.47,5.47,0,0,1,.95-3.43,3.54,3.54,0,0,1,3-1.22,3.81,3.81,0,0,1,2.92,1.07,4.23,4.23,0,0,1,1,3,6.87,6.87,0,0,1-.13,1.36,5.15,5.15,0,0,1-.4,1.21,10.35,10.35,0,0,1-.51,1q-.23.38-.64,1l-3.93,5H320v2.24Z" transform="translate(0.38)"/><path class="cls-1" d="M325.2,411.74a3.81,3.81,0,0,1-2.18-.61,3.56,3.56,0,0,1-1.32-1.63,6.28,6.28,0,0,1-.42-2.41v-6.73a5.35,5.35,0,0,1,1-3.41,4.11,4.11,0,0,1,5.89,0,5.34,5.34,0,0,1,1,3.4v6.73a5.29,5.29,0,0,1-1,3.38A3.51,3.51,0,0,1,325.2,411.74Zm0-1.84q1.68,0,1.68-2.8v-6.73q0-.47,0-.85a4.18,4.18,0,0,0-.14-.75,2.12,2.12,0,0,0-.29-.64,1.32,1.32,0,0,0-.49-.41,1.76,1.76,0,0,0-1.46,0,1.33,1.33,0,0,0-.49.41,2.1,2.1,0,0,0-.29.64,4.1,4.1,0,0,0-.14.75q0,.37,0,.85v6.73a6.42,6.42,0,0,0,.07,1,3.79,3.79,0,0,0,.25.89,1.53,1.53,0,0,0,.52.66A1.41,1.41,0,0,0,325.2,409.9Z" transform="translate(0.38)"/><path class="cls-1" d="M332.21,411.58V399.24h-1.68v-1.68a3.79,3.79,0,0,0,2.24-1.68h1.68v15.71Z" transform="translate(0.38)"/><path class="cls-1" d="M340.27,411.74a3.52,3.52,0,0,1-3-1.18,5.68,5.68,0,0,1-.89-3.47h2.24v.35q0,.45,0,.78a4.12,4.12,0,0,0,.12.68,1.6,1.6,0,0,0,.25.56,1.23,1.23,0,0,0,.44.36,1.47,1.47,0,0,0,.67.14,1.94,1.94,0,0,0,.56-.07,1.88,1.88,0,0,0,.43-.18,1.05,1.05,0,0,0,.32-.32,4,4,0,0,0,.23-.39,1.9,1.9,0,0,0,.15-.5c0-.21.07-.39.09-.53s0-.34,0-.6,0-.46,0-.61v-.93q0-.38,0-.64c0-.18,0-.37,0-.58a2.72,2.72,0,0,0-.11-.52,2.24,2.24,0,0,0-.19-.42,1.05,1.05,0,0,0-.3-.33,1.46,1.46,0,0,0-.43-.2,2.1,2.1,0,0,0-.58-.07,1.52,1.52,0,0,0-1,.39,2.29,2.29,0,0,0-.64.91h-1.91v-8.47h6.94v2.24h-4.91l-.14,3.8a4.32,4.32,0,0,1,2.24-.56,3.63,3.63,0,0,1,1.35.23,2.63,2.63,0,0,1,1,.64,3.21,3.21,0,0,1,.62,1,5.62,5.62,0,0,1,.34,1.26,10.06,10.06,0,0,1,.1,1.48,14.3,14.3,0,0,1-.11,1.82,7.39,7.39,0,0,1-.38,1.57,4,4,0,0,1-.71,1.26,3.09,3.09,0,0,1-1.14.81A4.13,4.13,0,0,1,340.27,411.74Z" transform="translate(0.38)"/><path class="cls-1" d="M257.23,411.58v-2.24l3.94-5.61.31-.42.32-.45.27-.42a4.28,4.28,0,0,0,.27-.46l.2-.46a3.24,3.24,0,0,0,.18-.53c0-.16.07-.34.1-.54a4.53,4.53,0,0,0,0-.63,2.81,2.81,0,0,0-.43-1.59,1.53,1.53,0,0,0-2.07-.42,1.48,1.48,0,0,0-.52.66,3.9,3.9,0,0,0-.26.89,6.15,6.15,0,0,0-.08,1v.56h-2.24v-.56a5.47,5.47,0,0,1,.95-3.43,3.54,3.54,0,0,1,3-1.22,3.81,3.81,0,0,1,2.92,1.07,4.23,4.23,0,0,1,1,3,6.87,6.87,0,0,1-.13,1.36,5.15,5.15,0,0,1-.4,1.21,10.35,10.35,0,0,1-.51,1q-.23.38-.64,1l-3.93,5h5.61v2.24Z" transform="translate(0.38)"/><path class="cls-1" d="M270.32,411.74a3.81,3.81,0,0,1-2.18-.61,3.56,3.56,0,0,1-1.32-1.63,6.28,6.28,0,0,1-.42-2.41v-6.73a5.35,5.35,0,0,1,1-3.41,4.11,4.11,0,0,1,5.89,0,5.34,5.34,0,0,1,1,3.4v6.73a5.29,5.29,0,0,1-1,3.38A3.51,3.51,0,0,1,270.32,411.74Zm0-1.84q1.68,0,1.68-2.8v-6.73q0-.47,0-.85a4.18,4.18,0,0,0-.14-.75,2.12,2.12,0,0,0-.29-.64,1.32,1.32,0,0,0-.49-.41,1.76,1.76,0,0,0-1.46,0,1.33,1.33,0,0,0-.49.41,2.1,2.1,0,0,0-.29.64,4.1,4.1,0,0,0-.14.75q0,.37,0,.85v6.73a6.42,6.42,0,0,0,.07,1,3.79,3.79,0,0,0,.25.89,1.53,1.53,0,0,0,.52.66A1.41,1.41,0,0,0,270.32,409.9Z" transform="translate(0.38)"/><path class="cls-1" d="M277.33,411.58V399.24h-1.68v-1.68a3.79,3.79,0,0,0,2.24-1.68h1.68v15.71Z" transform="translate(0.38)"/><path class="cls-1" d="M285.92,411.58v-4h-4.49v-2.5l3.93-9.19h2.8v9.56h1.74v2.12h-1.74v4Zm-2.24-6.15h2.24v-6.75Z" transform="translate(0.38)"/><path class="cls-1" d="M202.78,411.58v-2.24l3.94-5.61.31-.42.32-.45.27-.42a4.28,4.28,0,0,0,.27-.46l.2-.46a3.24,3.24,0,0,0,.18-.53c0-.16.07-.34.1-.54a4.53,4.53,0,0,0,0-.63,2.81,2.81,0,0,0-.43-1.59,1.53,1.53,0,0,0-2.07-.42,1.48,1.48,0,0,0-.52.66,3.9,3.9,0,0,0-.26.89,6.15,6.15,0,0,0-.08,1v.56h-2.24v-.56a5.47,5.47,0,0,1,.95-3.43,3.54,3.54,0,0,1,3-1.22,3.81,3.81,0,0,1,2.92,1.07,4.23,4.23,0,0,1,1,3,6.87,6.87,0,0,1-.13,1.36,5.15,5.15,0,0,1-.4,1.21,10.35,10.35,0,0,1-.51,1q-.23.38-.64,1l-3.93,5h5.61v2.24Z" transform="translate(0.38)"/><path class="cls-1" d="M215.87,411.74a3.81,3.81,0,0,1-2.18-.61,3.56,3.56,0,0,1-1.32-1.63,6.28,6.28,0,0,1-.42-2.41v-6.73a5.35,5.35,0,0,1,1-3.41,4.11,4.11,0,0,1,5.89,0,5.34,5.34,0,0,1,1,3.4v6.73a5.29,5.29,0,0,1-1,3.38A3.51,3.51,0,0,1,215.87,411.74Zm0-1.84q1.68,0,1.68-2.8v-6.73q0-.47,0-.85a4.18,4.18,0,0,0-.14-.75,2.12,2.12,0,0,0-.29-.64,1.32,1.32,0,0,0-.49-.41,1.76,1.76,0,0,0-1.46,0,1.33,1.33,0,0,0-.49.41,2.1,2.1,0,0,0-.29.64,4.1,4.1,0,0,0-.14.75q0,.37,0,.85v6.73a6.42,6.42,0,0,0,.07,1,3.79,3.79,0,0,0,.25.89,1.53,1.53,0,0,0,.52.66A1.41,1.41,0,0,0,215.87,409.9Z" transform="translate(0.38)"/><path class="cls-1" d="M222.88,411.58V399.24H221.2v-1.68a3.79,3.79,0,0,0,2.24-1.68h1.68v15.71Z" transform="translate(0.38)"/><path class="cls-1" d="M230.86,411.74a3.81,3.81,0,0,1-2.92-1.07,4.23,4.23,0,0,1-1-3v-.56h2.24q0,.53,0,.9a4.34,4.34,0,0,0,.13.76,1.75,1.75,0,0,0,.28.62,1.29,1.29,0,0,0,.49.38,2,2,0,0,0,1.51,0,1.28,1.28,0,0,0,.49-.38,1.75,1.75,0,0,0,.28-.62,4.43,4.43,0,0,0,.13-.76q0-.37,0-.9A3.53,3.53,0,0,0,232,405a2,2,0,0,0-1.72-.73V402a1.88,1.88,0,0,0,2.24-2.24,3.1,3.1,0,0,0-.37-1.68,1.45,1.45,0,0,0-1.31-.56,1.74,1.74,0,0,0-.75.15,1.29,1.29,0,0,0-.49.38,1.75,1.75,0,0,0-.28.62,4.35,4.35,0,0,0-.13.76q0,.37,0,.9h-2.24v-.56a4.22,4.22,0,0,1,1-3,4.49,4.49,0,0,1,5.83,0,4.23,4.23,0,0,1,1,3,3.74,3.74,0,0,1-.6,2.19,3,3,0,0,1-1.65,1.18,2.94,2.94,0,0,1,1.67,1.38,5.1,5.1,0,0,1,.57,2.55,5.47,5.47,0,0,1-.95,3.43A3.54,3.54,0,0,1,230.86,411.74Z" transform="translate(0.38)"/><path class="cls-1" d="M148.1,411.58v-2.24l3.94-5.61.31-.42.32-.45.27-.42a4.28,4.28,0,0,0,.27-.46l.2-.46a3.24,3.24,0,0,0,.18-.53c0-.16.07-.34.1-.54a4.53,4.53,0,0,0,0-.63,2.81,2.81,0,0,0-.43-1.59,1.53,1.53,0,0,0-2.07-.42,1.48,1.48,0,0,0-.52.66,3.9,3.9,0,0,0-.26.89,6.15,6.15,0,0,0-.08,1v.56h-2.24v-.56a5.47,5.47,0,0,1,.95-3.43,3.54,3.54,0,0,1,3-1.22,3.81,3.81,0,0,1,2.92,1.07,4.23,4.23,0,0,1,1,3,6.87,6.87,0,0,1-.13,1.36,5.15,5.15,0,0,1-.4,1.21,10.35,10.35,0,0,1-.51,1q-.23.38-.64,1l-3.93,5H156v2.24Z" transform="translate(0.38)"/><path class="cls-1" d="M161.19,411.74a3.81,3.81,0,0,1-2.18-.61,3.56,3.56,0,0,1-1.32-1.63,6.28,6.28,0,0,1-.42-2.41v-6.73a5.35,5.35,0,0,1,1-3.41,4.11,4.11,0,0,1,5.89,0,5.34,5.34,0,0,1,1,3.4v6.73a5.29,5.29,0,0,1-1,3.38A3.51,3.51,0,0,1,161.19,411.74Zm0-1.84q1.68,0,1.68-2.8v-6.73q0-.47,0-.85a4.18,4.18,0,0,0-.14-.75,2.12,2.12,0,0,0-.29-.64,1.32,1.32,0,0,0-.49-.41,1.76,1.76,0,0,0-1.46,0,1.33,1.33,0,0,0-.49.41,2.1,2.1,0,0,0-.29.64,4.1,4.1,0,0,0-.14.75q0,.37,0,.85v6.73a6.42,6.42,0,0,0,.07,1,3.79,3.79,0,0,0,.25.89,1.53,1.53,0,0,0,.52.66A1.41,1.41,0,0,0,161.19,409.9Z" transform="translate(0.38)"/><path class="cls-1" d="M168.2,411.58V399.24h-1.68v-1.68a3.79,3.79,0,0,0,2.24-1.68h1.68v15.71Z" transform="translate(0.38)"/><path class="cls-1" d="M172.19,411.58v-2.24l3.94-5.61.31-.42.32-.45.27-.42a4.28,4.28,0,0,0,.27-.46l.2-.46a3.24,3.24,0,0,0,.18-.53c0-.16.07-.34.1-.54a4.53,4.53,0,0,0,0-.63,2.81,2.81,0,0,0-.43-1.59,1.53,1.53,0,0,0-2.07-.42,1.48,1.48,0,0,0-.52.66,3.9,3.9,0,0,0-.26.89,6.15,6.15,0,0,0-.08,1v.56H172.2v-.56a5.47,5.47,0,0,1,.95-3.43,3.54,3.54,0,0,1,3-1.22,3.81,3.81,0,0,1,2.92,1.07,4.23,4.23,0,0,1,1,3,6.87,6.87,0,0,1-.13,1.36,5.15,5.15,0,0,1-.4,1.21,10.35,10.35,0,0,1-.51,1q-.23.38-.64,1l-3.93,5h5.61v2.24Z" transform="translate(0.38)"/><path class="cls-1" d="M95.05,411.58v-2.24L99,403.73l.31-.42.32-.45.27-.42a4.28,4.28,0,0,0,.27-.46l.2-.46a3.24,3.24,0,0,0,.18-.53c0-.16.07-.34.1-.54a4.53,4.53,0,0,0,0-.63,2.81,2.81,0,0,0-.43-1.59,1.53,1.53,0,0,0-2.07-.42,1.48,1.48,0,0,0-.52.66,3.9,3.9,0,0,0-.26.89,6.15,6.15,0,0,0-.08,1v.56H95.06v-.56a5.47,5.47,0,0,1,.95-3.43,3.54,3.54,0,0,1,3-1.22,3.81,3.81,0,0,1,2.92,1.07,4.23,4.23,0,0,1,1,3,6.87,6.87,0,0,1-.13,1.36,5.15,5.15,0,0,1-.4,1.21,10.35,10.35,0,0,1-.51,1q-.23.38-.64,1l-3.93,5h5.61v2.24Z" transform="translate(0.38)"/><path class="cls-1" d="M108.14,411.74a3.81,3.81,0,0,1-2.18-.61,3.56,3.56,0,0,1-1.32-1.63,6.28,6.28,0,0,1-.42-2.41v-6.73a5.35,5.35,0,0,1,1-3.41,4.11,4.11,0,0,1,5.89,0,5.34,5.34,0,0,1,1,3.4v6.73a5.29,5.29,0,0,1-1,3.38A3.51,3.51,0,0,1,108.14,411.74Zm0-1.84q1.68,0,1.68-2.8v-6.73q0-.47,0-.85a4.18,4.18,0,0,0-.14-.75,2.12,2.12,0,0,0-.29-.64,1.32,1.32,0,0,0-.49-.41,1.76,1.76,0,0,0-1.46,0,1.33,1.33,0,0,0-.49.41,2.1,2.1,0,0,0-.29.64,4.1,4.1,0,0,0-.14.75q0,.37,0,.85v6.73a6.42,6.42,0,0,0,.07,1,3.79,3.79,0,0,0,.25.89,1.53,1.53,0,0,0,.52.66A1.41,1.41,0,0,0,108.14,409.9Z" transform="translate(0.38)"/><path class="cls-1" d="M115.15,411.58V399.24h-1.68v-1.68a3.79,3.79,0,0,0,2.24-1.68h1.68v15.71Z" transform="translate(0.38)"/><path class="cls-1" d="M120.76,411.58V399.24h-1.68v-1.68a3.79,3.79,0,0,0,2.24-1.68H123v15.71Z" transform="translate(0.38)"/><path class="cls-1" d="M38.37,411.58v-2.24l3.94-5.61.31-.42.32-.45.27-.42a4.28,4.28,0,0,0,.27-.46l.2-.46a3.24,3.24,0,0,0,.18-.53c0-.16.07-.34.1-.54a4.53,4.53,0,0,0,0-.63,2.81,2.81,0,0,0-.43-1.59,1.53,1.53,0,0,0-2.07-.42,1.48,1.48,0,0,0-.52.66,3.9,3.9,0,0,0-.26.89,6.15,6.15,0,0,0-.08,1v.56H38.38v-.56a5.47,5.47,0,0,1,.95-3.43,3.54,3.54,0,0,1,3-1.22,3.81,3.81,0,0,1,2.92,1.07,4.23,4.23,0,0,1,1,3,6.87,6.87,0,0,1-.13,1.36,5.15,5.15,0,0,1-.4,1.21,10.35,10.35,0,0,1-.51,1q-.23.38-.64,1l-3.93,5h5.61v2.24Z" transform="translate(0.38)"/><path class="cls-1" d="M51.46,411.74a3.81,3.81,0,0,1-2.18-.61A3.56,3.56,0,0,1,48,409.5a6.28,6.28,0,0,1-.42-2.41v-6.73a5.35,5.35,0,0,1,1-3.41,4.11,4.11,0,0,1,5.89,0,5.34,5.34,0,0,1,1,3.4v6.73a5.29,5.29,0,0,1-1,3.38A3.51,3.51,0,0,1,51.46,411.74Zm0-1.84q1.68,0,1.68-2.8v-6.73q0-.47,0-.85a4.18,4.18,0,0,0-.14-.75,2.12,2.12,0,0,0-.29-.64,1.32,1.32,0,0,0-.49-.41,1.76,1.76,0,0,0-1.46,0,1.33,1.33,0,0,0-.49.41,2.1,2.1,0,0,0-.29.64,4.1,4.1,0,0,0-.14.75q0,.37,0,.85v6.73a6.42,6.42,0,0,0,.07,1,3.79,3.79,0,0,0,.25.89,1.53,1.53,0,0,0,.52.66A1.41,1.41,0,0,0,51.46,409.9Z" transform="translate(0.38)"/><path class="cls-1" d="M58.47,411.58V399.24H56.79v-1.68A3.79,3.79,0,0,0,59,395.87h1.68v15.71Z" transform="translate(0.38)"/><path class="cls-1" d="M66.61,411.74a3.81,3.81,0,0,1-2.18-.61,3.56,3.56,0,0,1-1.32-1.63,6.28,6.28,0,0,1-.42-2.41v-6.73a5.35,5.35,0,0,1,1-3.41,4.11,4.11,0,0,1,5.89,0,5.34,5.34,0,0,1,1,3.4v6.73a5.29,5.29,0,0,1-1,3.38A3.51,3.51,0,0,1,66.61,411.74Zm0-1.84q1.68,0,1.68-2.8v-6.73q0-.47,0-.85a4.18,4.18,0,0,0-.14-.75,2.12,2.12,0,0,0-.29-.64,1.32,1.32,0,0,0-.49-.41,1.76,1.76,0,0,0-1.46,0,1.33,1.33,0,0,0-.49.41,2.1,2.1,0,0,0-.29.64,4.1,4.1,0,0,0-.14.75q0,.37,0,.85v6.73a6.42,6.42,0,0,0,.07,1,3.79,3.79,0,0,0,.25.89,1.53,1.53,0,0,0,.52.66A1.41,1.41,0,0,0,66.61,409.9Z" transform="translate(0.38)"/><path class="cls-3" d="M473.39,92.47l3.33-15.55h2.22l3.33,15.55h-2.22l-.83-3.89h-2.78l-.83,3.89Zm3.33-5.55h2.22l-1.11-6.66Z" transform="translate(0.38)"/><path class="cls-3" d="M485,92.47l-2.5-11.1h2.13l1.54,8.34,1.41-8.34h2.13l-2.48,11.1Z" transform="translate(0.38)"/><path class="cls-3" d="M494.45,95.79h-.68l-.71,0a6.63,6.63,0,0,1-.75-.07l-.69-.12a2.69,2.69,0,0,1-.65-.2,3.33,3.33,0,0,1-.49-.29,1.06,1.06,0,0,1-.35-.4,1.19,1.19,0,0,1-.12-.53,2.39,2.39,0,0,1,.46-1.48,3.31,3.31,0,0,1,1.2-1,2.27,2.27,0,0,1-.78-.37.73.73,0,0,1-.33-.6,1.52,1.52,0,0,1,0-.31,3,3,0,0,1,.08-.3,1.81,1.81,0,0,1,.14-.31l.15-.27a3.09,3.09,0,0,1,.19-.28l.18-.24.19-.23.16-.2a5,5,0,0,1-1.11-3.33,5.45,5.45,0,0,1,.36-2.06,3.19,3.19,0,0,1,1.13-1.44,3.1,3.1,0,0,1,1.83-.54,3,3,0,0,1,1.08.17,2.32,2.32,0,0,1,.75.44,3.47,3.47,0,0,1,.57.7,2.22,2.22,0,0,1,1.87-1.3h.17V83h-.7a1.93,1.93,0,0,0-.43.07.83.83,0,0,0-.37.2,4.29,4.29,0,0,1,.27.9,5.08,5.08,0,0,1,.12,1,5.59,5.59,0,0,1-.35,2.06,3.09,3.09,0,0,1-1.12,1.43,3.16,3.16,0,0,1-1.86.54l-1.12-.13-.09.15-.11.18a1,1,0,0,0-.07.18.67.67,0,0,0,0,.2.46.46,0,0,0,.22.38,1.51,1.51,0,0,0,.6.23q.38.07.73.11l.79.06.6,0q.49.07.88.16a4.78,4.78,0,0,1,.79.26,2.29,2.29,0,0,1,.66.42,1.89,1.89,0,0,1,.43.62,2.14,2.14,0,0,1,.17.88,2.64,2.64,0,0,1-.21,1.08,2.25,2.25,0,0,1-.57.79,3,3,0,0,1-.86.52,4.77,4.77,0,0,1-1.06.29A7.71,7.71,0,0,1,494.45,95.79Zm0-1.64h.42l.43,0a2.17,2.17,0,0,0,.42-.08,2,2,0,0,0,.34-.14.63.63,0,0,0,.25-.23.62.62,0,0,0,.09-.33q0-.93-1.78-1.14L492.78,92a2,2,0,0,0-.58.7,2.06,2.06,0,0,0-.24,1,.33.33,0,0,0,.1.24.61.61,0,0,0,.28.15l.38.09a3.3,3.3,0,0,0,.46,0h1.26Zm-.56-6.54q1.39,0,1.39-2.36a5.93,5.93,0,0,0-.06-.88,3.79,3.79,0,0,0-.21-.79,1.36,1.36,0,0,0-.43-.61,1.09,1.09,0,0,0-.69-.22,1.1,1.1,0,0,0-.69.22,1.33,1.33,0,0,0-.43.61,4,4,0,0,0-.2.79,5.93,5.93,0,0,0-.06.88Q492.51,87.61,493.89,87.61Z" transform="translate(0.38)"/><path class="cls-3" d="M498.5,92.47V90.25h2.22v2.22Z" transform="translate(0.38)"/><path class="cls-3" d="M506,92.47V76.92h3.89q3.89,0,3.89,4.44a3.49,3.49,0,0,1-3.89,3.89h-1.67v7.22Zm2.22-8.88h.56A7.2,7.2,0,0,0,510,83.5a2.3,2.3,0,0,0,.85-.33,1.32,1.32,0,0,0,.53-.68,3.35,3.35,0,0,0,.16-1.13,6.08,6.08,0,0,0-.12-1.35,1.65,1.65,0,0,0-1.29-1.3,6,6,0,0,0-1.37-.13h-.56Z" transform="translate(0.38)"/><path class="cls-3" d="M516.8,92.62a2,2,0,0,1-1.57-.8,2.81,2.81,0,0,1-.65-1.81,3.79,3.79,0,0,1,.27-1.47,4.68,4.68,0,0,1,.58-1.05,3.58,3.58,0,0,1,1-.82,10.44,10.44,0,0,1,1.08-.58l1.27-.51.23-.1v-.8a3,3,0,0,0-.23-1.31,1.05,1.05,0,0,0-1.7-.07,2.26,2.26,0,0,0-.28,1.09q0,.1,0,.29h-2.22a3.65,3.65,0,0,1,.89-2.54,3.6,3.6,0,0,1,4.88,0,3.57,3.57,0,0,1,.89,2.53v5a10.83,10.83,0,0,0,.29,2.78h-2.21L519,90.8q-.17.35-.28.54a5,5,0,0,1-.32.47,2,2,0,0,1-.42.43,2.08,2.08,0,0,1-.52.26A2,2,0,0,1,516.8,92.62Zm1.11-1.82a.85.85,0,0,0,.46-.14,1.49,1.49,0,0,0,.33-.27L519,90l0-.06V86.91l-.46.29-.51.33a5.64,5.64,0,0,0-.46.35,2.37,2.37,0,0,0-.42.43,2.17,2.17,0,0,0-.26.5,1.71,1.71,0,0,0-.11.62Q516.8,90.8,517.92,90.8Z" transform="translate(0.38)"/><path class="cls-3" d="M526.67,95.79H526l-.71,0a6.63,6.63,0,0,1-.75-.07l-.69-.12a2.69,2.69,0,0,1-.65-.2,3.33,3.33,0,0,1-.49-.29,1.06,1.06,0,0,1-.35-.4,1.19,1.19,0,0,1-.12-.53,2.39,2.39,0,0,1,.46-1.48,3.31,3.31,0,0,1,1.2-1,2.27,2.27,0,0,1-.78-.37.73.73,0,0,1-.33-.6,1.52,1.52,0,0,1,0-.31,3,3,0,0,1,.08-.3,1.81,1.81,0,0,1,.14-.31l.15-.27a3.09,3.09,0,0,1,.19-.28l.18-.24.19-.23.16-.2a5,5,0,0,1-1.11-3.33,5.45,5.45,0,0,1,.36-2.06,3.19,3.19,0,0,1,1.13-1.44,3.1,3.1,0,0,1,1.83-.54,3,3,0,0,1,1.08.17,2.32,2.32,0,0,1,.75.44,3.47,3.47,0,0,1,.57.7,2.22,2.22,0,0,1,1.87-1.3h.17V83h-.7a1.93,1.93,0,0,0-.43.07.83.83,0,0,0-.37.2,4.29,4.29,0,0,1,.27.9,5.08,5.08,0,0,1,.12,1,5.59,5.59,0,0,1-.35,2.06A3.09,3.09,0,0,1,528,88.74a3.16,3.16,0,0,1-1.86.54L525,89.14l-.09.15-.11.18a1,1,0,0,0-.07.18.67.67,0,0,0,0,.2.46.46,0,0,0,.22.38,1.51,1.51,0,0,0,.6.23q.38.07.73.11l.79.06.6,0q.49.07.88.16a4.78,4.78,0,0,1,.79.26,2.29,2.29,0,0,1,.66.42,1.89,1.89,0,0,1,.43.62,2.14,2.14,0,0,1,.17.88,2.64,2.64,0,0,1-.21,1.08,2.25,2.25,0,0,1-.57.79,3,3,0,0,1-.86.52,4.77,4.77,0,0,1-1.06.29A7.71,7.71,0,0,1,526.67,95.79Zm0-1.64h.42l.43,0a2.17,2.17,0,0,0,.42-.08,2,2,0,0,0,.34-.14.63.63,0,0,0,.25-.23.62.62,0,0,0,.09-.33q0-.93-1.78-1.14L525,92a2,2,0,0,0-.58.7,2.06,2.06,0,0,0-.24,1,.33.33,0,0,0,.1.24.61.61,0,0,0,.28.15l.38.09a3.3,3.3,0,0,0,.46,0h1.26Zm-.56-6.54q1.39,0,1.39-2.36a5.93,5.93,0,0,0-.06-.88,3.79,3.79,0,0,0-.21-.79,1.36,1.36,0,0,0-.43-.61,1.09,1.09,0,0,0-.69-.22,1.1,1.1,0,0,0-.69.22,1.33,1.33,0,0,0-.43.61,4,4,0,0,0-.2.79,5.93,5.93,0,0,0-.06.88Q524.73,87.61,526.11,87.61Z" transform="translate(0.38)"/><path class="cls-3" d="M534.32,92.62a3.28,3.28,0,0,1-1.4-.28,2.55,2.55,0,0,1-.95-.72,3.53,3.53,0,0,1-.57-1.15,7.77,7.77,0,0,1-.3-1.4q-.08-.7-.1-1.63,0-.73,0-1.46a14.92,14.92,0,0,1,.12-1.54,6.47,6.47,0,0,1,.32-1.31,3.15,3.15,0,0,1,.59-1,2.57,2.57,0,0,1,.95-.65,3.49,3.49,0,0,1,1.37-.25,3.85,3.85,0,0,1,1.25.19,2.22,2.22,0,0,1,.9.56,3.63,3.63,0,0,1,.6.84,4,4,0,0,1,.36,1.11,12,12,0,0,1,.17,1.29q0,.63,0,1.46v.26h-4.44v.91q0,.32,0,.66t0,.67a3.14,3.14,0,0,0,.1.63,2.7,2.7,0,0,0,.19.52.85.85,0,0,0,.8.49,1.1,1.1,0,0,0,.57-.13.8.8,0,0,0,.33-.4,2.5,2.5,0,0,0,.15-.54,5,5,0,0,0,.05-.68v-.47h2.2V89a4.27,4.27,0,0,1-.88,2.69A3.09,3.09,0,0,1,534.32,92.62Zm-1.09-6.82h2.2v-.67a7.06,7.06,0,0,0-.05-.77,3.62,3.62,0,0,0-.15-.66,1,1,0,0,0-.33-.5,1,1,0,0,0-1.12,0,1.05,1.05,0,0,0-.34.52,3.93,3.93,0,0,0-.15.67,7.21,7.21,0,0,0-.05.79Z" transform="translate(0.38)"/><path class="cls-3" d="M547,92.62a4.09,4.09,0,0,1-3.21-1.23A5.37,5.37,0,0,1,542.59,88l2.22-.56Q545,90.8,547,90.8a1.47,1.47,0,0,0,1.67-1.67,3,3,0,0,0-.13-.92,2.43,2.43,0,0,0-.41-.77,5.29,5.29,0,0,0-.5-.56q-.23-.21-.62-.52l-2.78-2.22A4.34,4.34,0,0,1,543,82.62a4.7,4.7,0,0,1-.46-2.1,3.59,3.59,0,0,1,1.07-2.73,3.93,3.93,0,0,1,2.83-1,4.57,4.57,0,0,1,3,.92,4.05,4.05,0,0,1,1.38,2.62q0,.18.06.5l-2.22.56q0-.15,0-.44a3.39,3.39,0,0,0-.66-1.7,1.83,1.83,0,0,0-1.51-.64,1.64,1.64,0,0,0-1.23.45,1.71,1.71,0,0,0-.43,1.24,2.7,2.7,0,0,0,1.11,2.19l2.78,2.22A5.37,5.37,0,0,1,550.92,89a3.44,3.44,0,0,1-1.05,2.67A4,4,0,0,1,547,92.62Z" transform="translate(0.38)"/><path class="cls-3" d="M552.54,79.7V77.48h2.22V79.7Zm0,12.77V81.36h2.22v11.1Z" transform="translate(0.38)"/><path class="cls-3" d="M556.48,92.47V90.8L560.37,83H557V81.36h5.55V83l-3.89,7.77h3.89v1.67Z" transform="translate(0.38)"/><path class="cls-3" d="M567.12,92.62a3.28,3.28,0,0,1-1.4-.28,2.55,2.55,0,0,1-.95-.72,3.53,3.53,0,0,1-.57-1.15,7.77,7.77,0,0,1-.3-1.4q-.08-.7-.1-1.63,0-.73,0-1.46a14.92,14.92,0,0,1,.12-1.54,6.47,6.47,0,0,1,.32-1.31,3.15,3.15,0,0,1,.59-1,2.57,2.57,0,0,1,.95-.65,3.49,3.49,0,0,1,1.37-.25,3.85,3.85,0,0,1,1.25.19,2.22,2.22,0,0,1,.9.56,3.63,3.63,0,0,1,.6.84,4,4,0,0,1,.36,1.11,12,12,0,0,1,.17,1.29q0,.63,0,1.46v.26H566v.91q0,.32,0,.66t0,.67a3.14,3.14,0,0,0,.1.63,2.7,2.7,0,0,0,.19.52.85.85,0,0,0,.8.49,1.1,1.1,0,0,0,.57-.13.8.8,0,0,0,.33-.4,2.5,2.5,0,0,0,.15-.54,5,5,0,0,0,.05-.68v-.47h2.2V89a4.27,4.27,0,0,1-.88,2.69A3.09,3.09,0,0,1,567.12,92.62ZM566,85.8h2.2v-.67a7.06,7.06,0,0,0-.05-.77,3.62,3.62,0,0,0-.15-.66,1,1,0,0,0-.33-.5,1,1,0,0,0-1.12,0,1.05,1.05,0,0,0-.34.52,3.93,3.93,0,0,0-.15.67,7.21,7.21,0,0,0-.05.79Z" transform="translate(0.38)"/><path class="cls-3" d="M579.66,93a4,4,0,0,1-1.26-.19,2.4,2.4,0,0,1-1-.58,5.51,5.51,0,0,1-.69-.83,3.66,3.66,0,0,1-.47-1.12q-.18-.69-.29-1.25a10,10,0,0,1-.16-1.43q0-.87-.06-1.44t0-1.49q0-1.06,0-1.7t.09-1.63a10.63,10.63,0,0,1,.23-1.6,10.13,10.13,0,0,1,.43-1.33,3.2,3.2,0,0,1,.69-1.12,3.38,3.38,0,0,1,1-.68,3.46,3.46,0,0,1,1.41-.27V78a1.11,1.11,0,0,0-.75.27,1.86,1.86,0,0,0-.49.69,4.61,4.61,0,0,0-.28,1,11.06,11.06,0,0,0-.13,1.21q0,.57,0,1.3,0,.42,0,1.14t0,1q0,.28,0,1t0,1.16q0,.73,0,1.3a10.76,10.76,0,0,0,.13,1.19,4.61,4.61,0,0,0,.28,1,1.82,1.82,0,0,0,.49.69,1.12,1.12,0,0,0,.75.27Z" transform="translate(0.38)"/><path class="cls-3" d="M581.33,92.47V76.92h3.07l2.2,11.9,2.2-11.9h3.07V92.47h-2.22V80.2l-2.22,12.27h-1.67L583.55,80.2V92.47Z" transform="translate(0.38)"/><path class="cls-3" d="M594.1,92.47V76.92h3.33a7.52,7.52,0,0,1,1.93.23,4.48,4.48,0,0,1,1.49.69,3,3,0,0,1,1,1.21,4.22,4.22,0,0,1,.34,1.76,3.45,3.45,0,0,1-.62,2.22,3.6,3.6,0,0,1-1.9,1.11,4.24,4.24,0,0,1,2.08,1.35,4,4,0,0,1,.69,2.54A4.12,4.12,0,0,1,598,92.47Zm2.22-8.88h1.11a2.45,2.45,0,0,0,2.78-2.78,2.66,2.66,0,0,0-.11-.81,2.35,2.35,0,0,0-.27-.59,1.21,1.21,0,0,0-.47-.39,4.31,4.31,0,0,0-.58-.25,3.31,3.31,0,0,0-.74-.13l-.8,0h-.91Zm0,7.22h1.11a2.79,2.79,0,1,0,0-5.55h-1.11Z" transform="translate(0.38)"/><path class="cls-3" d="M603.49,93V91.36a1.11,1.11,0,0,0,.75-.27,1.86,1.86,0,0,0,.49-.69,4.61,4.61,0,0,0,.28-1,11.06,11.06,0,0,0,.13-1.21q0-.57,0-1.3,0-.42,0-1.14t0-1q0-.28,0-1t0-1.16q0-.73,0-1.3A10.76,10.76,0,0,0,605,80a4.61,4.61,0,0,0-.28-1,1.82,1.82,0,0,0-.49-.69,1.12,1.12,0,0,0-.75-.27V76.37a4,4,0,0,1,1.26.19,2.4,2.4,0,0,1,1,.58,5.51,5.51,0,0,1,.69.83,3.66,3.66,0,0,1,.47,1.12q.18.69.29,1.25a10,10,0,0,1,.16,1.43q0,.87.06,1.44t0,1.49q0,1.06,0,1.7T607.27,88a10.63,10.63,0,0,1-.23,1.6,10.13,10.13,0,0,1-.43,1.33,3.2,3.2,0,0,1-.69,1.12,3.38,3.38,0,0,1-1,.68A3.46,3.46,0,0,1,603.49,93Z" transform="translate(0.38)"/></svg>