<svg id="Layer_1" data-name="Layer 1" xmlns="http://www.w3.org/2000/svg" viewBox="0 0 631.43 411.77"><defs><style>.cls-1{fill:#d3d0cb;}.cls-2{fill:#fdb833;}.cls-3{opacity:0;}.cls-4{fill:#3f88c5;}</style></defs><title>speed-graph</title><path class="cls-1" d="M410.59,392.63h-383a.5.5,0,0,1,0-1h383a.5.5,0,0,1,0,1Z" transform="translate(0.05 0.01)"/><path class="cls-1" d="M27.59,392.63a.5.5,0,0,1-.5-.5v-9.58a.5.5,0,0,1,1,0v9.58A.5.5,0,0,1,27.59,392.63Z" transform="translate(0.05 0.01)"/><path class="cls-1" d="M82.3,392.63a.5.5,0,0,1-.5-.5v-9.58a.5.5,0,0,1,1,0v9.58A.5.5,0,0,1,82.3,392.63Z" transform="translate(0.05 0.01)"/><path class="cls-1" d="M137,392.63a.5.5,0,0,1-.5-.5v-9.58a.5.5,0,0,1,1,0v9.58A.5.5,0,0,1,137,392.63Z" transform="translate(0.05 0.01)"/><path class="cls-1" d="M191.73,392.63a.5.5,0,0,1-.5-.5v-9.58a.5.5,0,0,1,1,0v9.58A.5.5,0,0,1,191.73,392.63Z" transform="translate(0.05 0.01)"/><path class="cls-1" d="M246.44,392.63a.5.5,0,0,1-.5-.5v-9.58a.5.5,0,0,1,1,0v9.58A.5.5,0,0,1,246.44,392.63Z" transform="translate(0.05 0.01)"/><path class="cls-1" d="M301.16,392.63a.5.5,0,0,1-.5-.5v-9.58a.5.5,0,0,1,1,0v9.58A.5.5,0,0,1,301.16,392.63Z" transform="translate(0.05 0.01)"/><path class="cls-1" d="M355.87,392.63a.5.5,0,0,1-.5-.5v-9.58a.5.5,0,0,1,1,0v9.58A.5.5,0,0,1,355.87,392.63Z" transform="translate(0.05 0.01)"/><path class="cls-1" d="M410.59,392.63a.5.5,0,0,1-.5-.5v-9.58a.5.5,0,1,1,1,0v9.58A.5.5,0,0,1,410.59,392.63Z" transform="translate(0.05 0.01)"/><path class="cls-1" d="M3.93,399a3.81,3.81,0,0,1-2.18-.61,3.56,3.56,0,0,1-1.37-1.61A6.28,6.28,0,0,1,0,394.37v-6.73a5.35,5.35,0,0,1,1-3.41,3.53,3.53,0,0,1,3-1.23,3.53,3.53,0,0,1,2.94,1.25,5.34,5.34,0,0,1,1,3.4v6.73a5.29,5.29,0,0,1-1,3.38A3.51,3.51,0,0,1,3.93,399Zm0-1.84q1.68,0,1.68-2.8v-7.58a4.1,4.1,0,0,0-.15-.75,2.1,2.1,0,0,0-.29-.64,1.32,1.32,0,0,0-.49-.41,1.57,1.57,0,0,0-.73-.16,1.57,1.57,0,0,0-.73.16,1.32,1.32,0,0,0-.49.41,2.1,2.1,0,0,0-.35.61,4.1,4.1,0,0,0-.15.75v7.58a6.42,6.42,0,0,0,.07,1,3.74,3.74,0,0,0,.25.89,1.52,1.52,0,0,0,.52.66,1.41,1.41,0,0,0,.86.3Z" transform="translate(0.05 0.01)"/><path class="cls-1" d="M9.26,398.87v-2.24H11.5v2.24Z" transform="translate(0.05 0.01)"/><path class="cls-1" d="M16.83,399a3.81,3.81,0,0,1-2.18-.61,3.56,3.56,0,0,1-1.27-1.61,6.28,6.28,0,0,1-.42-2.41v-6.73a5.35,5.35,0,0,1,1-3.41A3.53,3.53,0,0,1,16.83,383a3.53,3.53,0,0,1,2.94,1.25,5.34,5.34,0,0,1,1,3.4v6.73a5.29,5.29,0,0,1-1,3.38A3.51,3.51,0,0,1,16.83,399Zm0-1.84q1.68,0,1.68-2.8v-7.58a4.1,4.1,0,0,0-.13-.78,2.1,2.1,0,0,0-.29-.64,1.32,1.32,0,0,0-.49-.41,1.75,1.75,0,0,0-1.46,0,1.32,1.32,0,0,0-.49.41,2.1,2.1,0,0,0-.27.64,4.1,4.1,0,0,0-.15.75q0,.37,0,.85v6.73a6.42,6.42,0,0,0,.07,1,3.74,3.74,0,0,0,.25.89,1.52,1.52,0,0,0,.52.66,1.41,1.41,0,0,0,.76.3Z" transform="translate(0.05 0.01)"/><path class="cls-1" d="M4.26,322.43a3.81,3.81,0,0,1-2.18-.61,3.56,3.56,0,0,1-1.32-1.63,6.28,6.28,0,0,1-.38-2.41V311a5.35,5.35,0,0,1,1-3.41,3.53,3.53,0,0,1,3-1.24,3.53,3.53,0,0,1,2.94,1.25,5.34,5.34,0,0,1,1,3.4v6.73a5.29,5.29,0,0,1-1,3.38A3.51,3.51,0,0,1,4.26,322.43Zm0-1.84q1.68,0,1.68-2.8v-7.64a4.1,4.1,0,0,0-.15-.75,2.1,2.1,0,0,0-.29-.64,1.32,1.32,0,0,0-.49-.41,1.57,1.57,0,0,0-.73-.16,1.57,1.57,0,0,0-.73.16,1.32,1.32,0,0,0-.49.41,2.1,2.1,0,0,0-.29.64,4.1,4.1,0,0,0-.15.75v7.58a6.42,6.42,0,0,0,.07,1,3.74,3.74,0,0,0,.25.89,1.52,1.52,0,0,0,.52.66,1.41,1.41,0,0,0,.8.3Z" transform="translate(0.05 0.01)"/><path class="cls-1" d="M9.59,322.27V320h2.24v2.24Z" transform="translate(0.05 0.01)"/><path class="cls-1" d="M17.09,322.43a3.52,3.52,0,0,1-3-1.18,5.68,5.68,0,0,1-.89-3.47h2.24v1.13a4.06,4.06,0,0,0,.12.68,1.6,1.6,0,0,0,.25.56,1.23,1.23,0,0,0,.44.36,1.47,1.47,0,0,0,.67.14,1.94,1.94,0,0,0,.56-.07,1.86,1.86,0,0,0,.43-.18,1,1,0,0,0,.32-.32,4,4,0,0,0,.23-.39,1.9,1.9,0,0,0,.15-.5q.06-.31.09-.53V315.3a2.83,2.83,0,0,0-.11-.52,2.27,2.27,0,0,0-.19-.42,1,1,0,0,0-.3-.33,1.45,1.45,0,0,0-.43-.2,2.11,2.11,0,0,0-.58-.07,1.52,1.52,0,0,0-1,.39,2.29,2.29,0,0,0-.64.91H13.56v-8.47H20.5v2.24H15.59l-.14,3.8a4.32,4.32,0,0,1,2.24-.56,3.63,3.63,0,0,1,1.35.23,2.62,2.62,0,0,1,1,.64,3.19,3.19,0,0,1,.62,1A5.6,5.6,0,0,1,21,315.2a9.92,9.92,0,0,1,.1,1.48A14.3,14.3,0,0,1,21,318.5a7.39,7.39,0,0,1-.41,1.5,4,4,0,0,1-.71,1.26,3.09,3.09,0,0,1-1.14.81A4.13,4.13,0,0,1,17.09,322.43Z" transform="translate(0.05 0.01)"/><path class="cls-1" d="M5.38,245.67V233.32H3.65v-1.68A3.79,3.79,0,0,0,5.89,230H7.58v15.71Z" transform="translate(0.05 0.01)"/><path class="cls-1" d="M9.26,245.67v-2.24H11.5v2.24Z" transform="translate(0.05 0.01)"/><path class="cls-1" d="M16.83,245.82a3.81,3.81,0,0,1-2.18-.61,3.56,3.56,0,0,1-1.27-1.63,6.28,6.28,0,0,1-.42-2.41v-6.73A5.35,5.35,0,0,1,14,231a3.53,3.53,0,0,1,3-1.24A3.53,3.53,0,0,1,19.78,231a5.34,5.34,0,0,1,1,3.4v6.73a5.29,5.29,0,0,1-1,3.38A3.51,3.51,0,0,1,16.83,245.82Zm0-1.84q1.68,0,1.68-2.8V233.6a4.1,4.1,0,0,0-.15-.75,2.1,2.1,0,0,0-.29-.64,1.32,1.32,0,0,0-.49-.41,1.75,1.75,0,0,0-1.46,0,1.32,1.32,0,0,0-.49.41,2.1,2.1,0,0,0-.29.64,4.1,4.1,0,0,0-.15.75v7.58a6.42,6.42,0,0,0,.07,1,3.74,3.74,0,0,0,.25.89,1.52,1.52,0,0,0,.52.66,1.41,1.41,0,0,0,.8.27Z" transform="translate(0.05 0.01)"/><path class="cls-1" d="M5.67,169.07V156.72H4V155a3.79,3.79,0,0,0,2.24-1.68H7.91V169Z" transform="translate(0.05 0.01)"/><path class="cls-1" d="M9.59,169.07v-2.24h2.24v2.24Z" transform="translate(0.05 0.01)"/><path class="cls-1" d="M17.09,169.23a3.52,3.52,0,0,1-3-1.18,5.68,5.68,0,0,1-.89-3.47h2.24v1.13a4.06,4.06,0,0,0,.12.68,1.6,1.6,0,0,0,.25.56,1.23,1.23,0,0,0,.44.36,1.47,1.47,0,0,0,.67.14,1.94,1.94,0,0,0,.56-.07,1.86,1.86,0,0,0,.43-.18,1,1,0,0,0,.32-.32,4,4,0,0,0,.23-.39,1.9,1.9,0,0,0,.15-.5q.06-.31.09-.53V162.1a2.83,2.83,0,0,0-.11-.52,2.27,2.27,0,0,0-.19-.42,1,1,0,0,0-.3-.33,1.45,1.45,0,0,0-.43-.2,2.11,2.11,0,0,0-.58-.07,1.52,1.52,0,0,0-1,.39,2.29,2.29,0,0,0-.64.91H13.56v-8.47H20.5v2.24H15.59l-.14,3.8a4.32,4.32,0,0,1,2.24-.56,3.63,3.63,0,0,1,1.35.23,2.62,2.62,0,0,1,1,.64,3.19,3.19,0,0,1,.62,1A5.6,5.6,0,0,1,21,162a9.92,9.92,0,0,1,.1,1.48A14.3,14.3,0,0,1,21,165.3a7.39,7.39,0,0,1-.38,1.57,4,4,0,0,1-.71,1.26,3.09,3.09,0,0,1-1.14.81A4.13,4.13,0,0,1,17.09,169.23Z" transform="translate(0.05 0.01)"/><path class="cls-1" d="M.38,92.47V90.22l3.94-5.61.31-.42L5,83.74l.27-.42a4.26,4.26,0,0,0,.27-.46l.2-.46a3.1,3.1,0,0,0,.18-.53,4.51,4.51,0,0,1,.1-.54,4.53,4.53,0,0,0,0-.64,2.81,2.81,0,0,0-.43-1.59,1.41,1.41,0,0,0-1.25-.65,1.41,1.41,0,0,0-.82.24,1.48,1.48,0,0,0-.52.66,3.9,3.9,0,0,0-.26.89,6.16,6.16,0,0,0-.08,1v.56H.38v-.56a5.47,5.47,0,0,1,1-3.42,3.54,3.54,0,0,1,3-1.22A3.81,3.81,0,0,1,7.3,77.67a4.23,4.23,0,0,1,1,3A6.87,6.87,0,0,1,8.12,82a5.15,5.15,0,0,1-.4,1.21,10.34,10.34,0,0,1-.51,1c-.15.25-.37.57-.64,1l-3.93,5h5.6v2.24Z" transform="translate(0.05 0.01)"/><path class="cls-1" d="M9.26,92.47V90.22H11.5v2.24Z" transform="translate(0.05 0.01)"/><path class="cls-1" d="M16.83,92.62A3.81,3.81,0,0,1,14.66,92a3.56,3.56,0,0,1-1.28-1.62A6.28,6.28,0,0,1,12.91,88V81.25a5.35,5.35,0,0,1,1-3.41,3.53,3.53,0,0,1,2.95-1.24,3.53,3.53,0,0,1,2.94,1.25,5.34,5.34,0,0,1,1,3.4V88a5.29,5.29,0,0,1-1,3.38A3.51,3.51,0,0,1,16.83,92.62Zm0-1.84q1.68,0,1.68-2.8V80.4a4.1,4.1,0,0,0-.15-.75,2.1,2.1,0,0,0-.29-.64,1.32,1.32,0,0,0-.49-.41,1.75,1.75,0,0,0-1.46,0,1.32,1.32,0,0,0-.49.41,2.1,2.1,0,0,0-.29.64,4.1,4.1,0,0,0-.15.75V88a6.42,6.42,0,0,0,.07,1,3.74,3.74,0,0,0,.25.89,1.52,1.52,0,0,0,.52.66A1.41,1.41,0,0,0,16.83,90.78Z" transform="translate(0.05 0.01)"/><path class="cls-1" d="M.71,15.87V13.62L4.65,8,5,7.57l.32-.45.27-.42a4.21,4.21,0,0,0,.27-.46L6,5.78a3.1,3.1,0,0,0,.18-.53q0-.23.1-.54a4.54,4.54,0,0,0,0-.64,2.81,2.81,0,0,0-.43-1.59,1.41,1.41,0,0,0-1.25-.65,1.41,1.41,0,0,0-.82.24,1.49,1.49,0,0,0-.52.66A3.9,3.9,0,0,0,3,3.62a6.16,6.16,0,0,0-.08,1v.56H.72V4.65a5.47,5.47,0,0,1,.95-3.43A3.54,3.54,0,0,1,4.65,0,3.81,3.81,0,0,1,7.57,1.07a4.23,4.23,0,0,1,1,3,6.86,6.86,0,0,1-.13,1.36A5.16,5.16,0,0,1,8,6.64a10.35,10.35,0,0,1-.51,1q-.23.38-.64,1L3,13.64H8.58v2.24Z" transform="translate(0.05 0.01)"/><path class="cls-1" d="M9.59,15.87V13.62h2.24v2.24Z" transform="translate(0.05 0.01)"/><path class="cls-1" d="M17.09,16a3.52,3.52,0,0,1-3-1.18,5.67,5.67,0,0,1-.89-3.47h2.24v1.13a4,4,0,0,0,.12.67,1.61,1.61,0,0,0,.25.56,1.22,1.22,0,0,0,.44.35,1.47,1.47,0,0,0,.67.14,1.94,1.94,0,0,0,.56-.07,1.8,1.8,0,0,0,.43-.18,1,1,0,0,0,.32-.32,4,4,0,0,0,.23-.39,1.91,1.91,0,0,0,.15-.5q.06-.32.09-.53a2.94,2.94,0,0,0,0-.6V8.88a2.82,2.82,0,0,0-.11-.52,2.29,2.29,0,0,0-.19-.42,1,1,0,0,0-.3-.33,1.47,1.47,0,0,0-.43-.2,2.12,2.12,0,0,0-.58-.07,1.52,1.52,0,0,0-1,.39,2.29,2.29,0,0,0-.64.91H13.56V.16H20.5V2.4H15.59l-.14,3.8a4.32,4.32,0,0,1,2.24-.56A3.62,3.62,0,0,1,19,5.87a2.62,2.62,0,0,1,1,.64,3.2,3.2,0,0,1,.62,1A5.59,5.59,0,0,1,21,8.77a9.93,9.93,0,0,1,.1,1.48A14.3,14.3,0,0,1,21,12.07a7.39,7.39,0,0,1-.38,1.57,4,4,0,0,1-.71,1.26,3.09,3.09,0,0,1-1.14.81A4.12,4.12,0,0,1,17.09,16Z" transform="translate(0.05 0.01)"/><path class="cls-1" d="M27.59,392.63a.5.5,0,0,1-.5-.5V9.13a.5.5,0,1,1,1,0v383A.5.5,0,0,1,27.59,392.63Z" transform="translate(0.05 0.01)"/><path class="cls-1" d="M37.16,392.63H27.59a.5.5,0,1,1,0-1h9.58a.5.5,0,0,1,0,1Z" transform="translate(0.05 0.01)"/><path class="cls-1" d="M37.16,316H27.59a.5.5,0,1,1,0-1h9.58a.5.5,0,0,1,0,1Z" transform="translate(0.05 0.01)"/><path class="cls-1" d="M37.16,239.43H27.59a.5.5,0,1,1,0-1h9.58a.5.5,0,0,1,0,1Z" transform="translate(0.05 0.01)"/><path class="cls-1" d="M37.16,162.83H27.59a.5.5,0,1,1,0-1h9.58a.5.5,0,0,1,0,1Z" transform="translate(0.05 0.01)"/><path class="cls-1" d="M37.16,86.23H27.59a.5.5,0,0,1,0-1h9.58a.5.5,0,0,1,0,1Z" transform="translate(0.05 0.01)"/><path class="cls-1" d="M37.16,9.63H27.59a.5.5,0,0,1,0-1h9.58a.5.5,0,0,1,0,1Z" transform="translate(0.05 0.01)"/><path class="cls-2" d="M467.65,29.31H419.77a1,1,0,0,1,0-2h47.88a1,1,0,0,1,0,2Z" transform="translate(0.05 0.01)"/><path class="cls-2" d="M54.94,284.52a1,1,0,0,1-.55-1.84l54.71-35.76a1,1,0,1,1,1.22,1.59l-.13.08-54.7,35.77A1,1,0,0,1,54.94,284.52Z" transform="translate(0.05 0.01)"/><path class="cls-2" d="M109.66,248.76A1,1,0,0,1,109,247l54.71-48.66a1,1,0,0,1,1.33,1.49L110.32,248.5A1,1,0,0,1,109.66,248.76Z" transform="translate(0.05 0.01)"/><path class="cls-2" d="M164.38,200.1a1,1,0,0,1-.75-1.67l54.75-61.27a1,1,0,0,1,1.49,1.33l-54.71,61.28A1,1,0,0,1,164.38,200.1Z" transform="translate(0.05 0.01)"/><path class="cls-2" d="M219.09,138.82a1,1,0,0,1-.57-1.82l54.71-38.3a1,1,0,0,1,1.15,1.64h0l-54.71,38.3A1,1,0,0,1,219.09,138.82Z" transform="translate(0.05 0.01)"/><path class="cls-2" d="M273.8,100.52a1,1,0,0,1-.59-1.81l54.71-39.83a1,1,0,0,1,1.18,1.62l-54.72,39.83A1,1,0,0,1,273.8,100.52Z" transform="translate(0.05 0.01)"/><path class="cls-2" d="M328.52,60.69a1,1,0,0,1-.57-1.82l54.71-38.3a1,1,0,0,1,1.15,1.64h0L329.1,60.51A1,1,0,0,1,328.52,60.69Z" transform="translate(0.05 0.01)"/><g class="cls-3"><path class="cls-4" d="M467.65,86.73H419.77a1,1,0,0,1,0-2h47.88a1,1,0,0,1,0,2Z" transform="translate(0.05 0.01)"/><path class="cls-4" d="M473.77,92.45l3.37-15.71h2.24l3.37,15.71h-2.24l-.84-3.93h-2.81L476,92.45Zm3.37-5.61h2.24l-1.12-6.73Z" transform="translate(0.05 0.01)"/><path class="cls-4" d="M485.53,92.45,483,81.25h2.16l1.56,8.42,1.42-8.42h2.16l-2.52,11.2Z" transform="translate(0.05 0.01)"/><path class="cls-4" d="M495.05,95.82h-1.39a6.78,6.78,0,0,1-.76-.07l-.7-.12a2.7,2.7,0,0,1-.65-.2,3.37,3.37,0,0,1-.5-.29,1.08,1.08,0,0,1-.35-.41,1.2,1.2,0,0,1-.12-.54,2.42,2.42,0,0,1,.47-1.5,3.35,3.35,0,0,1,1.21-1,2.3,2.3,0,0,1-.79-.37.74.74,0,0,1-.33-.61,1.53,1.53,0,0,1,0-.32,3,3,0,0,1,.08-.3,1.83,1.83,0,0,1,.14-.31l.15-.28a3.11,3.11,0,0,1,.19-.28l.18-.25.19-.24.16-.2a5,5,0,0,1-1.12-3.37,5.52,5.52,0,0,1,.37-2.08,3.22,3.22,0,0,1,1.14-1.46,3.13,3.13,0,0,1,1.85-.55,3.08,3.08,0,0,1,1.09.18,2.35,2.35,0,0,1,.76.44,3.53,3.53,0,0,1,.57.71,2.25,2.25,0,0,1,1.89-1.31H499v1.83h-.71a2,2,0,0,0-.43.07.84.84,0,0,0-.38.21,4.34,4.34,0,0,1,.28.91,5.12,5.12,0,0,1,.12,1,5.66,5.66,0,0,1-.35,2.08,3.12,3.12,0,0,1-1.1,1.51,3.2,3.2,0,0,1-1.88.54l-1.12-.13-.09.15-.11.18a1,1,0,0,0-.07.18.68.68,0,0,0,0,.21.46.46,0,0,0,.22.39,1.53,1.53,0,0,0,.6.23l.74.11.79.06h.6q.5.07.89.16a4.79,4.79,0,0,1,.8.27,2.33,2.33,0,0,1,.67.42,1.9,1.9,0,0,1,.43.63A2.16,2.16,0,0,1,499,93a2.66,2.66,0,0,1-.21,1.1,2.26,2.26,0,0,1-.57.8,3,3,0,0,1-.87.52,4.85,4.85,0,0,1-1.07.29A7.83,7.83,0,0,1,495.05,95.82Zm0-1.66h.85a2.23,2.23,0,0,0,.43-.08,2,2,0,0,0,.34-.15.64.64,0,0,0,.25-.23.63.63,0,0,0,.09-.33q0-.94-1.8-1.15L493.38,92a2,2,0,0,0-.58.71,2.09,2.09,0,0,0-.24,1,.34.34,0,0,0,.1.24.61.61,0,0,0,.29.15l.39.09a3.33,3.33,0,0,0,.47,0h1.24Zm-.56-6.61q1.4,0,1.4-2.38a6.11,6.11,0,0,0-.06-.89,3.82,3.82,0,0,0-.21-.8,1.38,1.38,0,0,0-.44-.61,1.21,1.21,0,0,0-1.39,0,1.35,1.35,0,0,0-.41.58,4,4,0,0,0-.21.8,6,6,0,0,0-.06.89q0,2.42,1.38,2.42Z" transform="translate(0.05 0.01)"/><path class="cls-4" d="M499.14,92.45V90.22h2.24v2.23Z" transform="translate(0.05 0.01)"/><path class="cls-4" d="M510.75,92.62a5,5,0,0,1-1.74-.28,3.3,3.3,0,0,1-1.24-.78,3.8,3.8,0,0,1-.78-1.24,6.73,6.73,0,0,1-.43-1.58,13.4,13.4,0,0,1-.12-1.9V82.37a13.4,13.4,0,0,1,.12-1.9,6.73,6.73,0,0,1,.43-1.58,3.76,3.76,0,0,1,.78-1.23,3.33,3.33,0,0,1,1.24-.77,5.63,5.63,0,0,1,3.64,0,3,3,0,0,1,1.28,1,4.44,4.44,0,0,1,.72,1.46,8.18,8.18,0,0,1,.29,2v.52H512.7V80.53a5.82,5.82,0,0,0-.1-.68,1.88,1.88,0,0,0-.21-.58,1.94,1.94,0,0,0-.34-.43,1.23,1.23,0,0,0-.52-.29,2.63,2.63,0,0,0-.74-.09,2.27,2.27,0,0,0-.93.18,1.6,1.6,0,0,0-.61.45,2,2,0,0,0-.34.74,5.39,5.39,0,0,0-.15.91q0,.44,0,1.09v5.62a9.72,9.72,0,0,0,0,1,4.72,4.72,0,0,0,.19.91,2.58,2.58,0,0,0,.36.76,1.63,1.63,0,0,0,.6.5,1.9,1.9,0,0,0,.87.19,1.8,1.8,0,0,0,.86-.19,1.58,1.58,0,0,0,.57-.49,2.38,2.38,0,0,0,.32-.76,5.4,5.4,0,0,0,.15-.9V86.91h2.24v.54a9.46,9.46,0,0,1-.21,2.14,4.84,4.84,0,0,1-.69,1.63,3,3,0,0,1-1.3,1.07A4.8,4.8,0,0,1,510.75,92.62Z" transform="translate(0.05 0.01)"/><path class="cls-4" d="M522.07,91.57a3.7,3.7,0,0,1-5.17,0,5,5,0,0,1-.78-3v-3.4a5,5,0,0,1,.78-3,3.7,3.7,0,0,1,5.17,0,5,5,0,0,1,.78,3v3.37A5,5,0,0,1,522.07,91.57Zm-3-.86a1.27,1.27,0,0,0,.83,0,1,1,0,0,0,.3-.17.73.73,0,0,0,.2-.3c0-.13.09-.25.12-.35a2.07,2.07,0,0,0,.06-.43V84.24a2.07,2.07,0,0,0-.06-.43,1.32,1.32,0,0,0-.12-.35.73.73,0,0,0-.2-.3,1,1,0,0,0-.3-.17,1.27,1.27,0,0,0-.83,0,1,1,0,0,0-.3.17.74.74,0,0,0-.2.3,3.63,3.63,0,0,0-.12.35,2.07,2.07,0,0,0-.06.43v5.23a2.07,2.07,0,0,0,.06.43,3.63,3.63,0,0,0,.12.35.74.74,0,0,0,.2.3,1,1,0,0,0,.29.16Z" transform="translate(0.05 0.01)"/><path class="cls-4" d="M524.69,92.45V81.25h2.24v1.2q.5-.46.82-.7a3.58,3.58,0,0,1,.87-.46,3.28,3.28,0,0,1,1.19-.21,1.46,1.46,0,0,1,1.17.53,1.92,1.92,0,0,1,.45,1.29v9.55h-2.25v-8.4a1.68,1.68,0,0,0-.17-.85.74.74,0,0,0-.67-.27,1.49,1.49,0,0,0-.57.12,2.25,2.25,0,0,0-.43.22l-.4.32v8.86Z" transform="translate(0.05 0.01)"/><path class="cls-4" d="M533.38,92.45V81.25h2.24v1.2q.5-.46.82-.7a3.58,3.58,0,0,1,.87-.46,3.28,3.28,0,0,1,1.19-.21,1.46,1.46,0,0,1,1.17.53,1.92,1.92,0,0,1,.45,1.29v9.55h-2.24v-8.4a1.68,1.68,0,0,0-.17-.85.74.74,0,0,0-.67-.27,1.49,1.49,0,0,0-.57.12,2.25,2.25,0,0,0-.43.22l-.4.32v8.86Z" transform="translate(0.05 0.01)"/><path class="cls-4" d="M545.25,92.62a3.32,3.32,0,0,1-1.42-.28,2.57,2.57,0,0,1-1-.73,3.55,3.55,0,0,1-.57-1.16A7.84,7.84,0,0,1,542,89q-.08-.71-.1-1.64V85.93a15.06,15.06,0,0,1,.12-1.56,6.53,6.53,0,0,1,.4-1.32,3.18,3.18,0,0,1,.59-1,2.61,2.61,0,0,1,1-.66,3.52,3.52,0,0,1,1.38-.25,3.9,3.9,0,0,1,1.27.19,2.24,2.24,0,0,1,.91.57,3.66,3.66,0,0,1,.61.85,4.08,4.08,0,0,1,.36,1.13,12.13,12.13,0,0,1,.17,1.3v1.73h-4.49v2.27a3.23,3.23,0,0,0,.1.64,2.72,2.72,0,0,0,.19.53.86.86,0,0,0,.81.49,1.12,1.12,0,0,0,.58-.14.81.81,0,0,0,.34-.41,2.52,2.52,0,0,0,.15-.54,5.09,5.09,0,0,0,0-.68v-.47h2.23V89a4.31,4.31,0,0,1-.89,2.72A3.13,3.13,0,0,1,545.25,92.62Zm-1.1-6.89h2.23v-.67a7.12,7.12,0,0,0,0-.78,3.65,3.65,0,0,0-.15-.67.94.94,0,0,0-1.47-.51,1.06,1.06,0,0,0-.34.53,3.87,3.87,0,0,0-.15.68,7.26,7.26,0,0,0,0,.8Z" transform="translate(0.05 0.01)"/><path class="cls-4" d="M553.06,92.62a3.42,3.42,0,0,1-1.42-.27,2.6,2.6,0,0,1-1-.71,3.37,3.37,0,0,1-.58-1.12,7.3,7.3,0,0,1-.3-1.36,15.66,15.66,0,0,1-.1-1.58V86.12a15.73,15.73,0,0,1,.1-1.58,7.15,7.15,0,0,1,.31-1.36,3.43,3.43,0,0,1,.58-1.11,2.58,2.58,0,0,1,1-.71,3.42,3.42,0,0,1,1.42-.27,3.08,3.08,0,0,1,2.54,1,4.65,4.65,0,0,1,.82,2.83v.3h-2.24V84.9a5.7,5.7,0,0,0-.06-.74,3.55,3.55,0,0,0-.16-.63,1,1,0,0,0-.34-.49.93.93,0,0,0-.57-.17.83.83,0,0,0-.56.2,1.22,1.22,0,0,0-.35.57,4.39,4.39,0,0,0-.17.76,7.8,7.8,0,0,0-.06.9v3.28a8,8,0,0,0,.07.85,3.72,3.72,0,0,0,.17.7,1.13,1.13,0,0,0,.35.52.85.85,0,0,0,.55.18,1.09,1.09,0,0,0,.51-.11.9.9,0,0,0,.33-.28,1.35,1.35,0,0,0,.18-.45,3.47,3.47,0,0,0,.08-.52v-.88h2.24v.29a6.44,6.44,0,0,1-.22,1.56,3.47,3.47,0,0,1-.58,1.19,2.46,2.46,0,0,1-1,.78A4,4,0,0,1,553.06,92.62Z" transform="translate(0.05 0.01)"/><path class="cls-4" d="M560.94,92.62A2.45,2.45,0,0,1,559,92a3.06,3.06,0,0,1-.62-2V83h-1.12v-1.7h1.1V77.32h2.24v3.93h1.68v1.68h-1.68v6.52a2,2,0,0,0,.18,1,.79.79,0,0,0,.75.32,4.91,4.91,0,0,0,.75-.09V92.5A11.63,11.63,0,0,1,560.94,92.62Z" transform="translate(0.05 0.01)"/><path class="cls-4" d="M564.06,79.56V77.32h2.24v2.24Zm0,12.9V81.25h2.24v11.2Z" transform="translate(0.05 0.01)"/><path class="cls-4" d="M574.19,91.57a3.7,3.7,0,0,1-5.17,0,5,5,0,0,1-.78-3v-3.4a5,5,0,0,1,.78-3,3.7,3.7,0,0,1,5.17,0,5,5,0,0,1,.78,3v3.37A5,5,0,0,1,574.19,91.57Zm-3-.86a1.27,1.27,0,0,0,.83,0,1,1,0,0,0,.3-.17.73.73,0,0,0,.2-.3c0-.13.09-.25.12-.35a2.07,2.07,0,0,0,.06-.43V84.24a2.07,2.07,0,0,0-.06-.43,1.32,1.32,0,0,0-.12-.35.73.73,0,0,0-.2-.3A1,1,0,0,0,572,83a1.27,1.27,0,0,0-.83,0,1,1,0,0,0-.3.17.74.74,0,0,0-.2.3,3.63,3.63,0,0,0-.12.35,2.07,2.07,0,0,0-.06.43v5.23a2.07,2.07,0,0,0,.06.43,3.63,3.63,0,0,0,.12.35.74.74,0,0,0,.2.3A1,1,0,0,0,571.19,90.71Z" transform="translate(0.05 0.01)"/><path class="cls-4" d="M576.81,92.45V81.25H579v1.2q.5-.46.82-.7a3.58,3.58,0,0,1,.87-.46,3.28,3.28,0,0,1,1.19-.21,1.46,1.46,0,0,1,1.17.53,1.92,1.92,0,0,1,.45,1.29v9.55h-2.24v-8.4a1.68,1.68,0,0,0-.17-.85.74.74,0,0,0-.67-.27,1.49,1.49,0,0,0-.57.12,2.25,2.25,0,0,0-.43.22l-.4.32v8.86Z" transform="translate(0.05 0.01)"/><path class="cls-4" d="M593.38,92.62a4.13,4.13,0,0,1-3.24-1.24,5.43,5.43,0,0,1-1.25-3.4l2.24-.56q.17,3.37,2.24,3.37A1.49,1.49,0,0,0,595,89.11a3,3,0,0,0-.14-.92,2.45,2.45,0,0,0-.42-.78,5.38,5.38,0,0,0-.51-.57c-.15-.14-.36-.32-.62-.53l-2.8-2.24a4.39,4.39,0,0,1-1.23-1.54,4.75,4.75,0,0,1-.46-2.13A3.63,3.63,0,0,1,590,77.64a4,4,0,0,1,2.86-1,4.61,4.61,0,0,1,3,.93,4.1,4.1,0,0,1,1.39,2.64,3.07,3.07,0,0,0,.06.51l-2.24.56v-.45a3.42,3.42,0,0,0-.67-1.71,1.85,1.85,0,0,0-1.57-.67,1.65,1.65,0,0,0-1.25.45,1.73,1.73,0,0,0-.44,1.26,2.73,2.73,0,0,0,1.12,2.22L595,84.62A5.43,5.43,0,0,1,597.26,89a3.47,3.47,0,0,1-1.07,2.7A4.08,4.08,0,0,1,593.38,92.62Z" transform="translate(0.05 0.01)"/><path class="cls-4" d="M598.81,95.83V81.25H601v1.12l.38-.39.36-.32a2.11,2.11,0,0,1,.45-.31,3.34,3.34,0,0,1,.48-.17,2.24,2.24,0,0,1,.61-.08,2.4,2.4,0,0,1,1,.21,2.5,2.5,0,0,1,.74.5,2.29,2.29,0,0,1,.49.83,7.83,7.83,0,0,1,.3,1,8,8,0,0,1,.15,1.18q0,.75.06,1.21t0,1.27v.15a13.06,13.06,0,0,1-.08,1.42,8.5,8.5,0,0,1-.27,1.39,5.17,5.17,0,0,1-.5,1.22,2.51,2.51,0,0,1-.81.85,2.07,2.07,0,0,1-1.15.33,3.15,3.15,0,0,1-2.2-1.21v4.37Zm3.93-5a.78.78,0,0,0,.6-.26,1.62,1.62,0,0,0,.35-.75,7.13,7.13,0,0,0,.15-1V84.94a5.81,5.81,0,0,0-.07-.65,5,5,0,0,0-.15-.56,1.55,1.55,0,0,0-.23-.48A1.18,1.18,0,0,0,603,83a1,1,0,0,0-.49-.12h-.25l-.25.06-.21.07-.21.1-.19.1-.2.12-.18.11v6.94a3.25,3.25,0,0,0,1.68.45Z" transform="translate(0.05 0.01)"/><path class="cls-4" d="M611.12,92.62a3.32,3.32,0,0,1-1.42-.28,2.57,2.57,0,0,1-1-.73,3.55,3.55,0,0,1-.52-1.16,7.84,7.84,0,0,1-.3-1.41q-.08-.71-.1-1.64V85.93a15.06,15.06,0,0,1,.12-1.56,6.53,6.53,0,0,1,.32-1.32,3.18,3.18,0,0,1,.59-1,2.61,2.61,0,0,1,1-.66,3.52,3.52,0,0,1,1.38-.25,3.9,3.9,0,0,1,1.27.19,2.24,2.24,0,0,1,.91.57,3.66,3.66,0,0,1,.61.85,4.08,4.08,0,0,1,.36,1.13,12.13,12.13,0,0,1,.17,1.3v1.73H610v2.27a3.23,3.23,0,0,0,.1.64,2.72,2.72,0,0,0,.19.53.86.86,0,0,0,.81.49,1.12,1.12,0,0,0,.58-.14.81.81,0,0,0,.34-.41,2.52,2.52,0,0,0,.15-.54,5.09,5.09,0,0,0,0-.68v-.47h2.23V89a4.31,4.31,0,0,1-.89,2.72A3.13,3.13,0,0,1,611.12,92.62ZM610,85.73h2.23v-.67a7.12,7.12,0,0,0,0-.78,3.65,3.65,0,0,0-.15-.67.94.94,0,0,0-1.47-.51,1.06,1.06,0,0,0-.34.53,3.87,3.87,0,0,0-.15.68,7.26,7.26,0,0,0,0,.8Z" transform="translate(0.05 0.01)"/><path class="cls-4" d="M619.3,92.62a3.32,3.32,0,0,1-1.42-.28,2.57,2.57,0,0,1-1-.73,3.55,3.55,0,0,1-.5-1.16,7.84,7.84,0,0,1-.3-1.41q-.08-.71-.1-1.64V85.93a15.06,15.06,0,0,1,.12-1.56,6.53,6.53,0,0,1,.28-1.32,3.18,3.18,0,0,1,.59-1,2.61,2.61,0,0,1,1-.66,3.52,3.52,0,0,1,1.38-.25,3.9,3.9,0,0,1,1.27.19,2.24,2.24,0,0,1,.91.57,3.66,3.66,0,0,1,.61.85,4.08,4.08,0,0,1,.36,1.13,12.13,12.13,0,0,1,.17,1.3v1.73h-4.49v2.27a3.23,3.23,0,0,0,.1.64,2.72,2.72,0,0,0,.19.53.86.86,0,0,0,.81.49,1.12,1.12,0,0,0,.58-.14.81.81,0,0,0,.34-.41,2.52,2.52,0,0,0,.15-.54,5.09,5.09,0,0,0,0-.68v-.47h2.23V89a4.31,4.31,0,0,1-.89,2.72A3.13,3.13,0,0,1,619.3,92.62Zm-1.1-6.89h2.18v-.67a7.12,7.12,0,0,0,0-.78,3.65,3.65,0,0,0-.15-.67.94.94,0,0,0-1.47-.51,1.06,1.06,0,0,0-.34.53,3.87,3.87,0,0,0-.15.68,7.26,7.26,0,0,0,0,.8Z" transform="translate(0.05 0.01)"/><path class="cls-4" d="M626.93,92.62a2.1,2.1,0,0,1-1.3-.42,2.7,2.7,0,0,1-.86-1.14,7.47,7.47,0,0,1-.45-1.5,11.16,11.16,0,0,1-.18-1.67v-2a8.61,8.61,0,0,1,0-1,6.31,6.31,0,0,1,.12-1,6.1,6.1,0,0,1,.21-.9,3.93,3.93,0,0,1,.34-.75,2.24,2.24,0,0,1,.49-.6,2.16,2.16,0,0,1,.68-.38,2.6,2.6,0,0,1,.88-.14,2.4,2.4,0,0,1,.71.1,2.15,2.15,0,0,1,.63.32,5.16,5.16,0,0,1,.48.38l.47.47V76.77h2.18V92.45h-2.24v-1a5.37,5.37,0,0,1-1,.85A2.26,2.26,0,0,1,626.93,92.62Zm.56-1.84a4.48,4.48,0,0,0,1.68-.35v-7a3.23,3.23,0,0,0-1.68-.45.89.89,0,0,0-.9.63,3.42,3.42,0,0,0-.17.64,5.68,5.68,0,0,0-.06.78v3.11a9.72,9.72,0,0,0,.06,1,5.28,5.28,0,0,0,.17.85,1.38,1.38,0,0,0,.35.63A.77.77,0,0,0,627.49,90.78Z" transform="translate(0.05 0.01)"/><path class="cls-4" d="M478.68,114.57a4,4,0,0,1-1.27-.19,2.42,2.42,0,0,1-1-.59,5.55,5.55,0,0,1-.69-.84,3.7,3.7,0,0,1-.47-1.14q-.18-.7-.29-1.26a10.22,10.22,0,0,1-.16-1.45q0-.88-.06-1.46a9.27,9.27,0,0,1,0-1.5v-1.72q0-.65.09-1.65a10.72,10.72,0,0,1,.23-1.61,10.33,10.33,0,0,1,.43-1.34,3.24,3.24,0,0,1,.7-1.13,3.41,3.41,0,0,1,1-.68,3.5,3.5,0,0,1,1.42-.28v1.72a1.12,1.12,0,0,0-.76.28,1.88,1.88,0,0,0-.5.7,4.66,4.66,0,0,0-.28,1.06,11.16,11.16,0,0,0-.14,1.22q0,.58,0,1.31,0,.42,0,1.15t0,1q0,.28,0,1t0,1.17q0,.74,0,1.31a10.86,10.86,0,0,0,.14,1.21,4.65,4.65,0,0,0,.28,1,1.84,1.84,0,0,0,.5.69,1.13,1.13,0,0,0,.76.27Z" transform="translate(0.05 0.01)"/><path class="cls-4" d="M480.38,114V98.3h3.1l2.23,12,2.23-12H491V114h-2.26V101.62L486.54,114h-1.68l-2.24-12.4V114Z" transform="translate(0.05 0.01)"/><path class="cls-4" d="M493.27,114V98.3h3.37a7.61,7.61,0,0,1,2,.23,4.53,4.53,0,0,1,1.5.69,3,3,0,0,1,1,1.23,4.27,4.27,0,0,1,.35,1.78,3.48,3.48,0,0,1-.62,2.24,3.64,3.64,0,0,1-1.92,1.13A4.29,4.29,0,0,1,501,107a4.09,4.09,0,0,1,.7,2.56,4.16,4.16,0,0,1-4.49,4.49Zm2.24-9h1.12a2.48,2.48,0,0,0,2.8-2.81,2.68,2.68,0,0,0-.11-.82,2.41,2.41,0,0,0-.27-.59,1.21,1.21,0,0,0-.48-.4,4.29,4.29,0,0,0-.58-.25,3.36,3.36,0,0,0-.75-.13h-1.73Zm0,7.29h1.12a2.82,2.82,0,1,0,0-5.61h-1.12Z" transform="translate(0.05 0.01)"/><path class="cls-4" d="M502.19,114l5-15.71h2.25l-5,15.71Z" transform="translate(0.05 0.01)"/><path class="cls-4" d="M513.46,114.17a3,3,0,0,1-2.22-.82,4.29,4.29,0,0,1-1.14-2.14l1.68-.56q.6,1.68,1.68,1.68a1,1,0,0,0,1.12-1.12,1.69,1.69,0,0,0-.56-1.3l-2.24-1.68a6.19,6.19,0,0,1-.63-.48,4.43,4.43,0,0,1-.52-.55,2.29,2.29,0,0,1-.4-.73,3,3,0,0,1,.78-3.08,3.71,3.71,0,0,1,2.45-.76,3.55,3.55,0,0,1,1.32.23,2.72,2.72,0,0,1,1,.65,3.94,3.94,0,0,1,.6.94,5.16,5.16,0,0,1,.41,1.14l-1.68.56a5.57,5.57,0,0,0-.25-.57,3.93,3.93,0,0,0-.33-.52,1.5,1.5,0,0,0-.49-.43,1.28,1.28,0,0,0-.62-.15,1,1,0,0,0-1,1.12,1.19,1.19,0,0,0,.56,1l2.24,1.68a6.68,6.68,0,0,1,.64.57,5.31,5.31,0,0,1,.52.64,2.79,2.79,0,0,1,.39.81,3.4,3.4,0,0,1,.13,1,2.7,2.7,0,0,1-.92,2.2A3.7,3.7,0,0,1,513.46,114.17Z" transform="translate(0.05 0.01)"/><path class="cls-4" d="M521.38,114.17a3.32,3.32,0,0,1-1.42-.28,2.57,2.57,0,0,1-1-.73,3.55,3.55,0,0,1-.57-1.16,7.84,7.84,0,0,1-.3-1.41q-.08-.71-.1-1.64v-1.47a15.06,15.06,0,0,1,.12-1.56,6.53,6.53,0,0,1,.32-1.32,3.18,3.18,0,0,1,.59-1,2.61,2.61,0,0,1,1-.66,3.52,3.52,0,0,1,1.38-.25,3.9,3.9,0,0,1,1.27.19,2.24,2.24,0,0,1,.91.57,3.66,3.66,0,0,1,.61.85,4.08,4.08,0,0,1,.36,1.13,12.13,12.13,0,0,1,.17,1.3v1.77h-4.49v2.27a3.23,3.23,0,0,0,.1.64,2.72,2.72,0,0,0,.19.53.86.86,0,0,0,.81.49,1.12,1.12,0,0,0,.58-.14.81.81,0,0,0,.34-.41,2.52,2.52,0,0,0,.15-.54,5.09,5.09,0,0,0,0-.68v-.47h2.23v.45a4.31,4.31,0,0,1-.89,2.72A3.13,3.13,0,0,1,521.38,114.17Zm-1.1-6.89h2.23v-.67a7.12,7.12,0,0,0,0-.78,3.65,3.65,0,0,0-.15-.67.94.94,0,0,0-1.47-.51,1.06,1.06,0,0,0-.34.53,3.87,3.87,0,0,0-.15.68,7.26,7.26,0,0,0,0,.8Z" transform="translate(0.05 0.01)"/><path class="cls-4" d="M529.18,114.17a3.42,3.42,0,0,1-1.42-.27,2.6,2.6,0,0,1-1-.71,3.37,3.37,0,0,1-.58-1.12,7.3,7.3,0,0,1-.3-1.36,15.66,15.66,0,0,1-.1-1.58v-1.46a15.73,15.73,0,0,1,.1-1.58,7.15,7.15,0,0,1,.31-1.36,3.43,3.43,0,0,1,.58-1.11,2.58,2.58,0,0,1,1-.71,3.42,3.42,0,0,1,1.42-.27,3.08,3.08,0,0,1,2.54,1,4.65,4.65,0,0,1,.82,2.83v.3h-2.24v-.32a5.7,5.7,0,0,0-.06-.74,3.55,3.55,0,0,0-.16-.63,1,1,0,0,0-.34-.49.93.93,0,0,0-.57-.17.83.83,0,0,0-.56.2,1.22,1.22,0,0,0-.35.57,4.39,4.39,0,0,0-.17.76,7.8,7.8,0,0,0-.06.9v3.28a8,8,0,0,0,.07.85,3.72,3.72,0,0,0,.17.7,1.13,1.13,0,0,0,.35.52.85.85,0,0,0,.55.18,1.09,1.09,0,0,0,.51-.11A.9.9,0,0,0,530,112a1.35,1.35,0,0,0,.18-.45,3.47,3.47,0,0,0,.08-.52v-.88h2.24v.29a6.44,6.44,0,0,1-.22,1.56,3.47,3.47,0,0,1-.58,1.19,2.46,2.46,0,0,1-1,.78A4,4,0,0,1,529.18,114.17Z" transform="translate(0.05 0.01)"/><path class="cls-4" d="M533.47,114.57v-1.68a1.12,1.12,0,0,0,.76-.28,1.88,1.88,0,0,0,.5-.7,4.65,4.65,0,0,0,.28-1.06,11.4,11.4,0,0,0,.14-1.22v-6.94a11.1,11.1,0,0,0-.14-1.21,4.65,4.65,0,0,0-.28-1,1.84,1.84,0,0,0-.5-.69,1.13,1.13,0,0,0-.76-.27V97.74a4,4,0,0,1,1.27.19,2.42,2.42,0,0,1,1,.59,5.58,5.58,0,0,1,.69.84,3.7,3.7,0,0,1,.45,1.09q.18.7.29,1.26a10.23,10.23,0,0,1,.16,1.45q0,.88.06,1.46a9.26,9.26,0,0,1,0,1.5v1.72q0,.65-.09,1.65a10.72,10.72,0,0,1-.23,1.61,10.33,10.33,0,0,1-.43,1.34,3.24,3.24,0,0,1-.7,1.13,3.41,3.41,0,0,1-1,.68A3.5,3.5,0,0,1,533.47,114.57Z" transform="translate(0.05 0.01)"/></g><path class="cls-1" d="M367.06,411.58v-2.24l3.94-5.61.31-.42.32-.45.27-.42a4.28,4.28,0,0,0,.27-.46l.2-.46a3.24,3.24,0,0,0,.18-.53,4.51,4.51,0,0,1,.1-.54,4.53,4.53,0,0,0,0-.63,2.81,2.81,0,0,0-.43-1.59,1.53,1.53,0,0,0-2.07-.42,1.48,1.48,0,0,0-.52.66,3.9,3.9,0,0,0-.26.89,6.15,6.15,0,0,0-.08,1v.56h-2.24v-.56a5.47,5.47,0,0,1,1-3.43,3.54,3.54,0,0,1,3-1.22,3.81,3.81,0,0,1,2.92,1.07,4.23,4.23,0,0,1,1,3,6.87,6.87,0,0,1-.13,1.36,5.15,5.15,0,0,1-.4,1.21,10.35,10.35,0,0,1-.51,1q-.23.38-.64,1l-3.93,5h5.61v2.24Z" transform="translate(0.05 0.01)"/><path class="cls-1" d="M380.15,411.74a3.81,3.81,0,0,1-2.18-.61,3.56,3.56,0,0,1-1.32-1.63,6.28,6.28,0,0,1-.42-2.41v-6.73a5.35,5.35,0,0,1,1-3.41,4.11,4.11,0,0,1,5.81-.08l.08.08a5.34,5.34,0,0,1,1,3.4v6.73a5.29,5.29,0,0,1-1,3.38A3.51,3.51,0,0,1,380.15,411.74Zm0-1.84q1.68,0,1.68-2.8v-7.58a4.18,4.18,0,0,0-.14-.75,2.12,2.12,0,0,0-.29-.64,1.32,1.32,0,0,0-.49-.41,1.76,1.76,0,0,0-1.46,0,1.33,1.33,0,0,0-.49.41,2.1,2.1,0,0,0-.29.64,4.1,4.1,0,0,0-.14.75q0,.37,0,.85v6.73a6.42,6.42,0,0,0,.07,1,3.79,3.79,0,0,0,.25.89,1.53,1.53,0,0,0,.52.66A1.41,1.41,0,0,0,380.15,409.9Z" transform="translate(0.05 0.01)"/><path class="cls-1" d="M387.16,411.58V399.24h-1.68v-1.68a3.79,3.79,0,0,0,2.24-1.68h1.66v15.71Z" transform="translate(0.05 0.01)"/><path class="cls-1" d="M395.44,411.74a3.79,3.79,0,0,1-1.46-.27,3.19,3.19,0,0,1-1.11-.75,4.26,4.26,0,0,1-.76-1.13,5.83,5.83,0,0,1-.45-1.43,9,9,0,0,1-.14-1.63v-5a13,13,0,0,1,.11-1.78,7.35,7.35,0,0,1,.39-1.57,4.36,4.36,0,0,1,.72-1.28,3,3,0,0,1,1.13-.83,4.37,4.37,0,0,1,4.48.77,4.21,4.21,0,0,1,1,3h-2.24a3.14,3.14,0,0,0-.36-1.68,1.45,1.45,0,0,0-1.32-.56q-1.68,0-1.68,3.37v2.24a2.38,2.38,0,0,1,2.24-1.12,3.65,3.65,0,0,1,1.62.33,2.44,2.44,0,0,1,1,1,4.63,4.63,0,0,1,.54,1.41,9.61,9.61,0,0,1,0,3.82,5.49,5.49,0,0,1-.67,1.64,3.17,3.17,0,0,1-1.23,1.13A3.82,3.82,0,0,1,395.44,411.74Zm-.82-2.08a1.56,1.56,0,0,0,1.65,0,1.49,1.49,0,0,0,.52-.66,4,4,0,0,0,.26-.89,6.27,6.27,0,0,0,.08-1v-1.48a1.19,1.19,0,0,0-.06-.43,1.74,1.74,0,0,0-.1-.41l-.15-.34a.88.88,0,0,0-.21-.3l-.28-.21a1.06,1.06,0,0,0-.37-.15,2.24,2.24,0,0,0-.46,0,1.84,1.84,0,0,0-1.68,1.12v2.24a6.13,6.13,0,0,0,.08,1,3.89,3.89,0,0,0,.26.89,1.49,1.49,0,0,0,.45.62Z" transform="translate(0.05 0.01)"/><path class="cls-1" d="M312.49,411.58v-2.24l3.94-5.61.31-.42.32-.45.27-.42a4.28,4.28,0,0,0,.27-.46l.2-.46A3.24,3.24,0,0,0,318,401a4.51,4.51,0,0,1,.1-.54,4.53,4.53,0,0,0,0-.63,2.81,2.81,0,0,0-.43-1.59,1.53,1.53,0,0,0-2.07-.42,1.48,1.48,0,0,0-.52.66,3.9,3.9,0,0,0-.26.89,6.15,6.15,0,0,0-.08,1v.56h-2.24v-.56a5.47,5.47,0,0,1,1-3.43,3.54,3.54,0,0,1,3-1.22,3.81,3.81,0,0,1,2.92,1.07,4.23,4.23,0,0,1,1,3,6.87,6.87,0,0,1-.13,1.36,5.15,5.15,0,0,1-.4,1.21,10.35,10.35,0,0,1-.51,1q-.23.38-.64,1l-3.93,5h5.64v2.24Z" transform="translate(0.05 0.01)"/><path class="cls-1" d="M325.58,411.74a3.81,3.81,0,0,1-2.18-.61,3.56,3.56,0,0,1-1.32-1.63,6.28,6.28,0,0,1-.42-2.41v-6.73a5.35,5.35,0,0,1,1-3.41,4.11,4.11,0,0,1,5.81-.08l.08.08a5.34,5.34,0,0,1,1,3.4v6.73a5.29,5.29,0,0,1-1,3.38A3.51,3.51,0,0,1,325.58,411.74Zm0-1.84q1.68,0,1.68-2.8v-7.58a4.18,4.18,0,0,0-.14-.75,2.12,2.12,0,0,0-.29-.64,1.32,1.32,0,0,0-.49-.41,1.76,1.76,0,0,0-1.46,0,1.33,1.33,0,0,0-.49.41,2.1,2.1,0,0,0-.29.64,4.1,4.1,0,0,0-.14.75v7.58a6.42,6.42,0,0,0,.07,1,3.79,3.79,0,0,0,.25.89,1.53,1.53,0,0,0,.52.66A1.41,1.41,0,0,0,325.58,409.9Z" transform="translate(0.05 0.01)"/><path class="cls-1" d="M332.59,411.58V399.24h-1.68v-1.68a3.79,3.79,0,0,0,2.24-1.68h1.68v15.71Z" transform="translate(0.05 0.01)"/><path class="cls-1" d="M340.65,411.74a3.52,3.52,0,0,1-3-1.18,5.68,5.68,0,0,1-.89-3.47H339v1.13a4.12,4.12,0,0,0,.12.68,1.6,1.6,0,0,0,.25.56,1.23,1.23,0,0,0,.44.36,1.47,1.47,0,0,0,.67.14,1.94,1.94,0,0,0,.56-.07,1.88,1.88,0,0,0,.43-.18,1.05,1.05,0,0,0,.32-.32A4,4,0,0,0,342,409a1.9,1.9,0,0,0,.15-.5,3,3,0,0,1,.09-.53,5.87,5.87,0,0,0,0-.6v-2.76a2.72,2.72,0,0,0-.11-.52,2.24,2.24,0,0,0-.19-.42,1.05,1.05,0,0,0-.3-.33,1.46,1.46,0,0,0-.43-.2,2.1,2.1,0,0,0-.58-.07,1.52,1.52,0,0,0-1,.39,2.29,2.29,0,0,0-.64.91H337.1V395.9H344v2.24h-4.91l-.14,3.8a4.32,4.32,0,0,1,2.24-.56,3.63,3.63,0,0,1,1.35.23,2.63,2.63,0,0,1,1,.64,3.21,3.21,0,0,1,.62,1,5.62,5.62,0,0,1,.34,1.26,10.06,10.06,0,0,1,.1,1.48,14.3,14.3,0,0,1-.11,1.82,7.39,7.39,0,0,1-.38,1.57,4,4,0,0,1-.71,1.26,3.09,3.09,0,0,1-1.14.81A4.13,4.13,0,0,1,340.65,411.74Z" transform="translate(0.05 0.01)"/><path class="cls-1" d="M257.61,411.58v-2.24l3.94-5.61.31-.42.32-.45.27-.42a4.28,4.28,0,0,0,.27-.46l.2-.46a3.24,3.24,0,0,0,.18-.53,4.51,4.51,0,0,1,.1-.54,4.53,4.53,0,0,0,0-.63,2.81,2.81,0,0,0-.43-1.59,1.53,1.53,0,0,0-2.07-.42,1.48,1.48,0,0,0-.52.66,3.9,3.9,0,0,0-.26.89,6.15,6.15,0,0,0-.08,1v.56H257.6v-.56a5.47,5.47,0,0,1,1-3.43,3.54,3.54,0,0,1,3-1.22,3.81,3.81,0,0,1,2.92,1.07,4.23,4.23,0,0,1,1,3,6.87,6.87,0,0,1-.13,1.36,5.15,5.15,0,0,1-.4,1.21,10.35,10.35,0,0,1-.51,1q-.23.38-.64,1l-3.93,5h5.61v2.24Z" transform="translate(0.05 0.01)"/><path class="cls-1" d="M270.7,411.74a3.81,3.81,0,0,1-2.18-.61,3.56,3.56,0,0,1-1.32-1.63,6.28,6.28,0,0,1-.42-2.41v-6.73a5.35,5.35,0,0,1,1-3.41,4.11,4.11,0,0,1,5.81-.08l.08.08a5.34,5.34,0,0,1,1,3.4v6.73a5.29,5.29,0,0,1-1,3.38A3.51,3.51,0,0,1,270.7,411.74Zm0-1.84q1.68,0,1.68-2.8v-7.58a4.18,4.18,0,0,0-.14-.75,2.12,2.12,0,0,0-.29-.64,1.32,1.32,0,0,0-.49-.41,1.76,1.76,0,0,0-1.46,0,1.33,1.33,0,0,0-.49.41,2.1,2.1,0,0,0-.29.64,4.1,4.1,0,0,0-.14.75v7.58a6.42,6.42,0,0,0,.07,1,3.79,3.79,0,0,0,.25.89,1.53,1.53,0,0,0,.52.66A1.41,1.41,0,0,0,270.7,409.9Z" transform="translate(0.05 0.01)"/><path class="cls-1" d="M277.71,411.58V399.24H276v-1.68a3.79,3.79,0,0,0,2.24-1.68h1.68v15.71Z" transform="translate(0.05 0.01)"/><path class="cls-1" d="M286.3,411.58v-4h-4.49v-2.5l3.93-9.19h2.8v9.56h1.74v2.12h-1.74v4Zm-2.24-6.15h2.24v-6.75Z" transform="translate(0.05 0.01)"/><path class="cls-1" d="M203.16,411.58v-2.24l3.94-5.61.31-.42.32-.45.27-.42a4.28,4.28,0,0,0,.27-.46l.2-.46a3.24,3.24,0,0,0,.18-.53,4.51,4.51,0,0,1,.1-.54,4.53,4.53,0,0,0,0-.63,2.81,2.81,0,0,0-.43-1.59,1.53,1.53,0,0,0-2.07-.42,1.48,1.48,0,0,0-.52.66,3.9,3.9,0,0,0-.26.89,6.15,6.15,0,0,0-.08,1v.56h-2.24v-.56a5.47,5.47,0,0,1,.95-3.43,3.54,3.54,0,0,1,3-1.22,3.81,3.81,0,0,1,2.92,1.07,4.23,4.23,0,0,1,1,3,6.87,6.87,0,0,1-.13,1.36,5.15,5.15,0,0,1-.4,1.21,10.35,10.35,0,0,1-.51,1q-.23.38-.64,1l-3.93,5H211v2.24Z" transform="translate(0.05 0.01)"/><path class="cls-1" d="M216.25,411.74a3.81,3.81,0,0,1-2.18-.61,3.56,3.56,0,0,1-1.32-1.63,6.28,6.28,0,0,1-.42-2.41v-6.73a5.35,5.35,0,0,1,1-3.41,4.11,4.11,0,0,1,5.81-.08l.08.08a5.34,5.34,0,0,1,1,3.4v6.73a5.29,5.29,0,0,1-1,3.38A3.51,3.51,0,0,1,216.25,411.74Zm0-1.84q1.68,0,1.68-2.8v-7.58a4.18,4.18,0,0,0-.14-.75,2.12,2.12,0,0,0-.29-.64,1.32,1.32,0,0,0-.49-.41,1.76,1.76,0,0,0-1.46,0,1.33,1.33,0,0,0-.49.41,2.1,2.1,0,0,0-.29.64,4.1,4.1,0,0,0-.14.75v7.58a6.42,6.42,0,0,0,.07,1,3.79,3.79,0,0,0,.25.89,1.53,1.53,0,0,0,.52.66A1.41,1.41,0,0,0,216.25,409.9Z" transform="translate(0.05 0.01)"/><path class="cls-1" d="M223.26,411.58V399.24h-1.68v-1.68a3.79,3.79,0,0,0,2.24-1.68h1.68v15.71Z" transform="translate(0.05 0.01)"/><path class="cls-1" d="M231.24,411.74a3.81,3.81,0,0,1-2.92-1.07,4.23,4.23,0,0,1-1-3v-.56h2.24v.9a4.34,4.34,0,0,0,.13.76,1.75,1.75,0,0,0,.28.62,1.29,1.29,0,0,0,.49.38,2,2,0,0,0,1.51,0,1.28,1.28,0,0,0,.49-.38,1.75,1.75,0,0,0,.28-.62,4.43,4.43,0,0,0,.13-.76q0-.37,0-.9a3.53,3.53,0,0,0-.49-2.11,2,2,0,0,0-1.72-.73V402a1.88,1.88,0,0,0,2.24-2.24,3.1,3.1,0,0,0-.37-1.68,1.45,1.45,0,0,0-1.31-.56,1.74,1.74,0,0,0-.75.15,1.29,1.29,0,0,0-.49.38,1.75,1.75,0,0,0-.28.62,4.35,4.35,0,0,0-.13.76v.9h-2.24v-.56a4.22,4.22,0,0,1,1-3,4.49,4.49,0,0,1,5.83,0,4.23,4.23,0,0,1,1,3,3.74,3.74,0,0,1-.6,2.19,3,3,0,0,1-1.65,1.18,2.94,2.94,0,0,1,1.67,1.38,5.1,5.1,0,0,1,.57,2.55,5.47,5.47,0,0,1-.95,3.43A3.54,3.54,0,0,1,231.24,411.74Z" transform="translate(0.05 0.01)"/><path class="cls-1" d="M148.48,411.58v-2.24l3.94-5.61.31-.42.32-.45.27-.42a4.28,4.28,0,0,0,.27-.46l.2-.46A3.24,3.24,0,0,0,154,401a4.51,4.51,0,0,1,.1-.54,4.53,4.53,0,0,0,0-.63,2.81,2.81,0,0,0-.43-1.59,1.53,1.53,0,0,0-2.07-.42,1.48,1.48,0,0,0-.52.66,3.9,3.9,0,0,0-.26.89,6.15,6.15,0,0,0-.08,1v.56h-2.24v-.56a5.47,5.47,0,0,1,.95-3.43,3.54,3.54,0,0,1,3-1.22,3.81,3.81,0,0,1,2.92,1.07,4.23,4.23,0,0,1,1,3,6.87,6.87,0,0,1-.13,1.36,5.15,5.15,0,0,1-.4,1.21,10.35,10.35,0,0,1-.51,1q-.23.38-.64,1l-3.93,5h5.65v2.24Z" transform="translate(0.05 0.01)"/><path class="cls-1" d="M161.57,411.74a3.81,3.81,0,0,1-2.18-.61,3.56,3.56,0,0,1-1.32-1.63,6.28,6.28,0,0,1-.42-2.41v-6.73a5.35,5.35,0,0,1,1-3.41,4.11,4.11,0,0,1,5.81-.08l.08.08a5.34,5.34,0,0,1,1,3.4v6.73a5.29,5.29,0,0,1-1,3.38A3.51,3.51,0,0,1,161.57,411.74Zm0-1.84q1.68,0,1.68-2.8v-7.58a4.18,4.18,0,0,0-.14-.75,2.12,2.12,0,0,0-.29-.64,1.32,1.32,0,0,0-.49-.41,1.76,1.76,0,0,0-1.46,0,1.33,1.33,0,0,0-.49.41,2.1,2.1,0,0,0-.29.64,4.1,4.1,0,0,0-.14.75v7.58a6.42,6.42,0,0,0,.07,1,3.79,3.79,0,0,0,.25.89,1.53,1.53,0,0,0,.52.66A1.41,1.41,0,0,0,161.57,409.9Z" transform="translate(0.05 0.01)"/><path class="cls-1" d="M168.58,411.58V399.24H166.9v-1.68a3.79,3.79,0,0,0,2.24-1.68h1.68v15.71Z" transform="translate(0.05 0.01)"/><path class="cls-1" d="M172.57,411.58v-2.24l3.94-5.61.31-.42.32-.45.27-.42a4.28,4.28,0,0,0,.27-.46l.2-.46a3.24,3.24,0,0,0,.18-.53,4.51,4.51,0,0,1,.1-.54,4.53,4.53,0,0,0,0-.63,2.81,2.81,0,0,0-.43-1.59,1.53,1.53,0,0,0-2.07-.42,1.48,1.48,0,0,0-.52.66,3.9,3.9,0,0,0-.26.89,6.15,6.15,0,0,0-.08,1v.56h-2.22v-.56a5.47,5.47,0,0,1,.95-3.43,3.54,3.54,0,0,1,3-1.22,3.81,3.81,0,0,1,2.92,1.07,4.23,4.23,0,0,1,1,3,6.87,6.87,0,0,1-.13,1.36,5.15,5.15,0,0,1-.4,1.21,10.35,10.35,0,0,1-.51,1q-.23.38-.64,1l-3.93,5h5.61v2.24Z" transform="translate(0.05 0.01)"/><path class="cls-1" d="M95.43,411.58v-2.24l3.95-5.61.31-.42.32-.45.27-.42a4.28,4.28,0,0,0,.27-.46l.2-.46a3.24,3.24,0,0,0,.18-.53,4.51,4.51,0,0,1,.1-.54,4.53,4.53,0,0,0,0-.63,2.81,2.81,0,0,0-.43-1.59,1.53,1.53,0,0,0-2.07-.42,1.48,1.48,0,0,0-.52.66,3.9,3.9,0,0,0-.26.89,6.15,6.15,0,0,0-.08,1v.56H95.44v-.56a5.47,5.47,0,0,1,.95-3.43,3.54,3.54,0,0,1,3-1.22,3.81,3.81,0,0,1,2.92,1.07,4.23,4.23,0,0,1,1,3,6.87,6.87,0,0,1-.13,1.36,5.15,5.15,0,0,1-.4,1.21,10.35,10.35,0,0,1-.51,1q-.23.38-.64,1l-3.93,5h5.61v2.24Z" transform="translate(0.05 0.01)"/><path class="cls-1" d="M108.52,411.74a3.81,3.81,0,0,1-2.18-.61A3.56,3.56,0,0,1,105,409.5a6.28,6.28,0,0,1-.42-2.41v-6.73a5.35,5.35,0,0,1,1-3.41,4.11,4.11,0,0,1,5.81-.08l.08.08a5.34,5.34,0,0,1,1,3.4v6.73a5.29,5.29,0,0,1-1,3.38A3.51,3.51,0,0,1,108.52,411.74Zm0-1.84q1.68,0,1.68-2.8v-7.58a4.18,4.18,0,0,0-.14-.75,2.12,2.12,0,0,0-.29-.64,1.32,1.32,0,0,0-.49-.41,1.76,1.76,0,0,0-1.46,0,1.33,1.33,0,0,0-.49.41,2.1,2.1,0,0,0-.29.64,4.1,4.1,0,0,0-.14.75q0,.37,0,.85v6.73a6.42,6.42,0,0,0,.07,1,3.79,3.79,0,0,0,.25.89,1.53,1.53,0,0,0,.52.66A1.41,1.41,0,0,0,108.52,409.9Z" transform="translate(0.05 0.01)"/><path class="cls-1" d="M115.53,411.58V399.24h-1.68v-1.68a3.79,3.79,0,0,0,2.24-1.68h1.68v15.71Z" transform="translate(0.05 0.01)"/><path class="cls-1" d="M121.14,411.58V399.24h-1.68v-1.68a3.79,3.79,0,0,0,2.24-1.68h1.68v15.71Z" transform="translate(0.05 0.01)"/><path class="cls-1" d="M38.75,411.58v-2.24l3.94-5.61.31-.42.32-.45.27-.42a4.28,4.28,0,0,0,.27-.46l.2-.46a3.24,3.24,0,0,0,.18-.53,4.51,4.51,0,0,1,.1-.54,4.53,4.53,0,0,0,0-.63,2.81,2.81,0,0,0-.43-1.59,1.53,1.53,0,0,0-2.07-.42,1.48,1.48,0,0,0-.52.66,3.9,3.9,0,0,0-.26.89,6.15,6.15,0,0,0-.08,1v.56H38.76v-.56a5.47,5.47,0,0,1,1-3.43,3.54,3.54,0,0,1,3-1.22,3.81,3.81,0,0,1,2.92,1.07,4.23,4.23,0,0,1,1,3,6.87,6.87,0,0,1-.13,1.36,5.15,5.15,0,0,1-.4,1.21,10.35,10.35,0,0,1-.51,1q-.23.38-.64,1l-3.93,5h5.61v2.24Z" transform="translate(0.05 0.01)"/><path class="cls-1" d="M51.84,411.74a3.81,3.81,0,0,1-2.18-.61,3.56,3.56,0,0,1-1.28-1.63,6.28,6.28,0,0,1-.42-2.41v-6.73a5.35,5.35,0,0,1,1-3.41,4.11,4.11,0,0,1,5.81-.08l.08.08a5.34,5.34,0,0,1,1,3.4v6.73a5.29,5.29,0,0,1-1,3.38A3.51,3.51,0,0,1,51.84,411.74Zm0-1.84q1.68,0,1.68-2.8v-7.58a4.18,4.18,0,0,0-.14-.75,2.12,2.12,0,0,0-.29-.64,1.32,1.32,0,0,0-.49-.41,1.76,1.76,0,0,0-1.46,0,1.33,1.33,0,0,0-.49.41,2.1,2.1,0,0,0-.29.64,4.1,4.1,0,0,0-.14.75v7.58a6.42,6.42,0,0,0,.07,1,3.79,3.79,0,0,0,.25.89,1.53,1.53,0,0,0,.52.66A1.41,1.41,0,0,0,51.84,409.9Z" transform="translate(0.05 0.01)"/><path class="cls-1" d="M58.85,411.58V399.24H57.17v-1.68a3.79,3.79,0,0,0,2.21-1.69h1.68v15.71Z" transform="translate(0.05 0.01)"/><path class="cls-1" d="M67,411.74a3.81,3.81,0,0,1-2.18-.61,3.56,3.56,0,0,1-1.32-1.63,6.28,6.28,0,0,1-.42-2.41v-6.73a5.35,5.35,0,0,1,1-3.41,4.11,4.11,0,0,1,5.81-.08l.08.08a5.34,5.34,0,0,1,1,3.4v6.73a5.29,5.29,0,0,1-1,3.38A3.51,3.51,0,0,1,67,411.74Zm0-1.84q1.68,0,1.68-2.8v-7.58a4.18,4.18,0,0,0-.14-.75,2.12,2.12,0,0,0-.29-.64,1.32,1.32,0,0,0-.49-.41,1.76,1.76,0,0,0-1.46,0,1.33,1.33,0,0,0-.49.41,2.1,2.1,0,0,0-.29.64,4.1,4.1,0,0,0-.14.75v7.58a6.42,6.42,0,0,0,.07,1,3.79,3.79,0,0,0,.25.89,1.53,1.53,0,0,0,.52.66A1.41,1.41,0,0,0,67,409.9Z" transform="translate(0.05 0.01)"/><path class="cls-2" d="M473.77,35,477.1,19.5h2.22L482.65,35h-2.22l-.83-3.89h-2.78L476,35Zm3.33-5.55h2.22l-1.11-6.66Z" transform="translate(0.05 0.01)"/><path class="cls-2" d="M485.38,35,482.88,24H485l1.54,8.34L488,24h2.13l-2.48,11.1Z" transform="translate(0.05 0.01)"/><path class="cls-2" d="M494.83,38.37h-1.39a6.63,6.63,0,0,1-.75-.07l-.69-.12a2.69,2.69,0,0,1-.65-.2,3.33,3.33,0,0,1-.49-.29,1.06,1.06,0,0,1-.35-.4,1.19,1.19,0,0,1-.12-.53,2.39,2.39,0,0,1,.46-1.48,3.31,3.31,0,0,1,1.2-1,2.27,2.27,0,0,1-.78-.37.73.73,0,0,1-.33-.6,1.52,1.52,0,0,1,0-.31,3,3,0,0,1,.08-.3,1.81,1.81,0,0,1,.14-.31l.15-.27a3.09,3.09,0,0,1,.19-.28l.18-.24.19-.23.16-.2a5,5,0,0,1-1.11-3.33,5.45,5.45,0,0,1,.36-2.06,3.19,3.19,0,0,1,1.13-1.44,3.1,3.1,0,0,1,1.83-.54,3,3,0,0,1,1.08.17,2.32,2.32,0,0,1,.75.44,3.47,3.47,0,0,1,.57.7,2.22,2.22,0,0,1,1.87-1.3h.17v1.77H498a1.93,1.93,0,0,0-.43.07.83.83,0,0,0-.37.2,4.29,4.29,0,0,1,.27.9,5.08,5.08,0,0,1,.12,1,5.59,5.59,0,0,1-.35,2.06,3.09,3.09,0,0,1-1.12,1.43,3.16,3.16,0,0,1-1.86.54l-1.12-.13-.09.15-.11.18a1,1,0,0,0-.07.18.67.67,0,0,0,0,.2.46.46,0,0,0,.22.38,1.51,1.51,0,0,0,.6.23l.73.11.79.06h.6q.49.07.88.16a4.78,4.78,0,0,1,.79.26,2.29,2.29,0,0,1,.66.42,1.89,1.89,0,0,1,.43.62,2.14,2.14,0,0,1,.17.88,2.64,2.64,0,0,1-.21,1.08,2.25,2.25,0,0,1-.57.79,3,3,0,0,1-.86.52,4.77,4.77,0,0,1-1.06.29A7.71,7.71,0,0,1,494.83,38.37Zm0-1.64h.85a2.17,2.17,0,0,0,.42-.08,2,2,0,0,0,.34-.14.63.63,0,0,0,.25-.23.62.62,0,0,0,.09-.33q0-.93-1.78-1.14l-1.84-.23a2,2,0,0,0-.58.7,2.06,2.06,0,0,0-.24,1,.33.33,0,0,0,.1.24.61.61,0,0,0,.28.15l.38.09a3.3,3.3,0,0,0,.46,0h1.26Zm-.56-6.54q1.39,0,1.39-2.36a5.93,5.93,0,0,0-.06-.88,3.79,3.79,0,0,0-.21-.79,1.36,1.36,0,0,0-.43-.61,1.19,1.19,0,0,0-1.38,0,1.33,1.33,0,0,0-.43.61,4,4,0,0,0-.2.79,5.93,5.93,0,0,0-.06.88Q492.89,30.19,494.27,30.19Z" transform="translate(0.05 0.01)"/><path class="cls-2" d="M498.88,35V32.83h2.22V35Z" transform="translate(0.05 0.01)"/><path class="cls-2" d="M506.38,35V19.5h3.89q3.89,0,3.89,4.44a3.49,3.49,0,0,1-3.89,3.89H508.6V35Zm2.22-8.88h.56a7.2,7.2,0,0,0,1.22-.09,2.3,2.3,0,0,0,.85-.33,1.32,1.32,0,0,0,.53-.68,3.35,3.35,0,0,0,.16-1.13,6.08,6.08,0,0,0-.12-1.35,1.65,1.65,0,0,0-1.29-1.3,6,6,0,0,0-1.37-.13h-.56Z" transform="translate(0.05 0.01)"/><path class="cls-2" d="M517.18,35.2a2,2,0,0,1-1.57-.8,2.81,2.81,0,0,1-.65-1.81,3.79,3.79,0,0,1,.27-1.47,4.68,4.68,0,0,1,.58-1.05,3.58,3.58,0,0,1,1-.82,10.44,10.44,0,0,1,1.08-.58l1.27-.51.23-.1v-.8a3,3,0,0,0-.23-1.31,1,1,0,0,0-1.7-.07,2.26,2.26,0,0,0-.28,1.09v.29H515a3.65,3.65,0,0,1,.89-2.54,3.6,3.6,0,0,1,4.88,0,3.57,3.57,0,0,1,.89,2.53v5a10.83,10.83,0,0,0,.29,2.78H519.7l-.32-1.65q-.17.35-.28.54a5,5,0,0,1-.32.47,2,2,0,0,1-.42.43,2.08,2.08,0,0,1-.52.26A2,2,0,0,1,517.18,35.2Zm1.11-1.82a.85.85,0,0,0,.46-.14,1.49,1.49,0,0,0,.33-.27l.3-.39V29.49l-.46.29-.51.33a5.64,5.64,0,0,0-.46.35,2.37,2.37,0,0,0-.42.43,2.17,2.17,0,0,0-.26.5,1.71,1.71,0,0,0-.11.62q0,1.37,1.14,1.37Z" transform="translate(0.05 0.01)"/><path class="cls-2" d="M527,38.37h-1.38a6.63,6.63,0,0,1-.75-.07l-.69-.12a2.69,2.69,0,0,1-.65-.2,3.33,3.33,0,0,1-.49-.29,1.06,1.06,0,0,1-.35-.4,1.19,1.19,0,0,1-.12-.53,2.39,2.39,0,0,1,.46-1.48,3.31,3.31,0,0,1,1.2-1,2.27,2.27,0,0,1-.78-.37.73.73,0,0,1-.33-.6,1.52,1.52,0,0,1,0-.31,3,3,0,0,1,.08-.3,1.81,1.81,0,0,1,.14-.31l.15-.27a3.08,3.08,0,0,1,.19-.28l.18-.24.19-.23.16-.2a5,5,0,0,1-1.11-3.33,5.45,5.45,0,0,1,.36-2.06,3.19,3.19,0,0,1,1.13-1.44,3.1,3.1,0,0,1,1.83-.54,3,3,0,0,1,1.08.17,2.32,2.32,0,0,1,.75.44,3.47,3.47,0,0,1,.57.7,2.22,2.22,0,0,1,1.87-1.3h.17v1.77h-.7a1.93,1.93,0,0,0-.43.07.83.83,0,0,0-.37.2,4.29,4.29,0,0,1,.27.9,5.08,5.08,0,0,1,.12,1,5.59,5.59,0,0,1-.35,2.06,3.09,3.09,0,0,1-1.07,1.51,3.16,3.16,0,0,1-1.86.54l-1.14-.14-.09.15-.11.18a1,1,0,0,0-.07.18.67.67,0,0,0,0,.2.46.46,0,0,0,.22.38,1.51,1.51,0,0,0,.6.23l.73.11.79.06h.6q.49.07.88.16a4.78,4.78,0,0,1,.79.26,2.29,2.29,0,0,1,.66.42,1.89,1.89,0,0,1,.43.62,2.14,2.14,0,0,1,.17.88,2.64,2.64,0,0,1-.21,1.08,2.25,2.25,0,0,1-.57.79,3,3,0,0,1-.86.52,4.77,4.77,0,0,1-1.06.29A7.71,7.71,0,0,1,527,38.37Zm0-1.64h.85a2.17,2.17,0,0,0,.42-.08,2,2,0,0,0,.34-.14.63.63,0,0,0,.25-.23.62.62,0,0,0,.09-.33q0-.93-1.78-1.14l-1.84-.23a2,2,0,0,0-.58.7,2.06,2.06,0,0,0-.24,1,.33.33,0,0,0,.1.24.61.61,0,0,0,.28.15l.38.09a3.3,3.3,0,0,0,.46,0H527Zm-.56-6.54q1.39,0,1.39-2.36a5.93,5.93,0,0,0-.06-.88,3.79,3.79,0,0,0-.21-.79,1.36,1.36,0,0,0-.43-.61,1.19,1.19,0,0,0-1.38,0,1.33,1.33,0,0,0-.43.61,4,4,0,0,0-.2.79,5.93,5.93,0,0,0-.06.88Q525.11,30.19,526.49,30.19Z" transform="translate(0.05 0.01)"/><path class="cls-2" d="M534.7,35.2a3.28,3.28,0,0,1-1.4-.28,2.55,2.55,0,0,1-1-.72,3.53,3.53,0,0,1-.57-1.15,7.77,7.77,0,0,1-.3-1.4q-.08-.7-.1-1.63V28.56A14.91,14.91,0,0,1,531.5,27a6.47,6.47,0,0,1,.32-1.31,3.15,3.15,0,0,1,.59-1,2.57,2.57,0,0,1,1-.65,3.49,3.49,0,0,1,1.37-.25A3.85,3.85,0,0,1,536,24a2.22,2.22,0,0,1,.9.56,3.63,3.63,0,0,1,.6.84,4,4,0,0,1,.36,1.11A12,12,0,0,1,538,27.8v1.72h-4.44v2.24a3.14,3.14,0,0,0,.1.63,2.7,2.7,0,0,0,.19.52.85.85,0,0,0,.8.49,1.1,1.1,0,0,0,.57-.13.8.8,0,0,0,.33-.4,2.5,2.5,0,0,0,.15-.54,5,5,0,0,0,0-.68v-.47H538v.4a4.27,4.27,0,0,1-.88,2.69A3.09,3.09,0,0,1,534.7,35.2Zm-1.09-6.82h2.2v-.67a7.06,7.06,0,0,0,0-.77,3.62,3.62,0,0,0-.15-.66.92.92,0,0,0-1.45-.5,1,1,0,0,0-.34.52,3.93,3.93,0,0,0-.15.67,7.21,7.21,0,0,0,0,.79Z" transform="translate(0.05 0.01)"/><path class="cls-2" d="M547.38,35.2A4.09,4.09,0,0,1,544.17,34a5.37,5.37,0,0,1-1.2-3.39l2.22-.56q.19,3.36,2.19,3.36A1.47,1.47,0,0,0,549,31.71a3,3,0,0,0-.13-.92,2.43,2.43,0,0,0-.41-.77,5.29,5.29,0,0,0-.5-.56q-.23-.21-.62-.52l-2.78-2.22a4.34,4.34,0,0,1-1.23-1.52,4.7,4.7,0,0,1-.46-2.1A3.59,3.59,0,0,1,544,20.37a3.93,3.93,0,0,1,2.83-1,4.57,4.57,0,0,1,3,.92,4.05,4.05,0,0,1,1.38,2.62,2.9,2.9,0,0,0,.06.5L549,24v-.44a3.39,3.39,0,0,0-.66-1.7,1.83,1.83,0,0,0-1.51-.64,1.64,1.64,0,0,0-1.23.45,1.71,1.71,0,0,0-.43,1.24,2.7,2.7,0,0,0,1.11,2.19l2.78,2.22a5.37,5.37,0,0,1,2.2,4.29,3.44,3.44,0,0,1-1,2.67A4,4,0,0,1,547.38,35.2Z" transform="translate(0.05 0.01)"/><path class="cls-2" d="M552.92,22.28V20.06h2.22v2.22Zm0,12.77V23.94h2.22V35Z" transform="translate(0.05 0.01)"/><path class="cls-2" d="M556.86,35V33.38l3.89-7.8h-3.37V23.94h5.55v1.64L559,33.35h3.89V35Z" transform="translate(0.05 0.01)"/><path class="cls-2" d="M567.5,35.2a3.28,3.28,0,0,1-1.4-.28,2.55,2.55,0,0,1-1-.72,3.53,3.53,0,0,1-.57-1.15,7.77,7.77,0,0,1-.3-1.4q-.08-.7-.1-1.63V28.56A14.91,14.91,0,0,1,564.3,27a6.47,6.47,0,0,1,.32-1.31,3.15,3.15,0,0,1,.59-1,2.57,2.57,0,0,1,1-.65,3.49,3.49,0,0,1,1.37-.25,3.85,3.85,0,0,1,1.25.19,2.22,2.22,0,0,1,.9.56,3.63,3.63,0,0,1,.6.84,4,4,0,0,1,.36,1.11,12,12,0,0,1,.17,1.29v1.72h-4.43v2.24a3.14,3.14,0,0,0,.1.63,2.7,2.7,0,0,0,.19.52.85.85,0,0,0,.8.49,1.1,1.1,0,0,0,.57-.13.8.8,0,0,0,.33-.4,2.5,2.5,0,0,0,.15-.54,5,5,0,0,0,0-.68v-.47h2.2v.4a4.27,4.27,0,0,1-.88,2.69A3.09,3.09,0,0,1,567.5,35.2Zm-1.12-6.82h2.2v-.67a7.06,7.06,0,0,0,0-.77,3.62,3.62,0,0,0-.15-.66.92.92,0,0,0-1.45-.5,1,1,0,0,0-.34.52,3.93,3.93,0,0,0-.15.67,7.21,7.21,0,0,0,0,.79Z" transform="translate(0.05 0.01)"/><path class="cls-2" d="M580,35.58a4,4,0,0,1-1.26-.19,2.4,2.4,0,0,1-1-.58,5.51,5.51,0,0,1-.69-.83,3.66,3.66,0,0,1-.47-1.12q-.18-.69-.29-1.25a10,10,0,0,1-.16-1.43,14.2,14.2,0,0,0-.06-1.44,9.13,9.13,0,0,1,0-1.49v-1.7q0-.64.09-1.63a10.63,10.63,0,0,1,.23-1.6,10.13,10.13,0,0,1,.43-1.33,3.2,3.2,0,0,1,.69-1.12,3.38,3.38,0,0,1,1-.68,3.46,3.46,0,0,1,1.41-.27v1.66a1.11,1.11,0,0,0-.75.27,1.86,1.86,0,0,0-.49.69,4.61,4.61,0,0,0-.28,1,11.07,11.07,0,0,0-.13,1.21v6.9a10.77,10.77,0,0,0,.13,1.19,4.61,4.61,0,0,0,.28,1,1.82,1.82,0,0,0,.49.69,1.12,1.12,0,0,0,.75.27Z" transform="translate(0.05 0.01)"/><path class="cls-2" d="M581.71,35V19.5h3.07L587,31.4l2.2-11.9h3.07V35H590V22.78L587.81,35h-1.67l-2.21-12.27V35Z" transform="translate(0.05 0.01)"/><path class="cls-2" d="M594.48,35V19.5h3.33a7.52,7.52,0,0,1,1.93.23,4.48,4.48,0,0,1,1.49.69,3,3,0,0,1,1,1.21,4.22,4.22,0,0,1,.34,1.76,3.45,3.45,0,0,1-.62,2.22,3.6,3.6,0,0,1-1.9,1.11,4.24,4.24,0,0,1,2.08,1.35,4,4,0,0,1,.69,2.54A4.12,4.12,0,0,1,598.38,35Zm2.22-8.88h1.11a2.45,2.45,0,0,0,2.78-2.78,2.66,2.66,0,0,0-.11-.81,2.35,2.35,0,0,0-.27-.59,1.21,1.21,0,0,0-.47-.39,4.31,4.31,0,0,0-.58-.25,3.31,3.31,0,0,0-.74-.13h-1.71Zm0,7.22h1.11a2.79,2.79,0,1,0,0-5.55H596.7Z" transform="translate(0.05 0.01)"/><path class="cls-2" d="M603.87,35.58V33.94a1.11,1.11,0,0,0,.75-.27,1.86,1.86,0,0,0,.49-.69,4.61,4.61,0,0,0,.28-1,11.07,11.07,0,0,0,.13-1.21v-6.9a10.76,10.76,0,0,0-.14-1.29,4.61,4.61,0,0,0-.28-1,1.82,1.82,0,0,0-.49-.69,1.12,1.12,0,0,0-.75-.27V19a4,4,0,0,1,1.26.19,2.4,2.4,0,0,1,1,.58,5.51,5.51,0,0,1,.69.83,3.66,3.66,0,0,1,.47,1.12q.18.69.29,1.25a10,10,0,0,1,.16,1.43,14.2,14.2,0,0,0,.06,1.44,9.14,9.14,0,0,1,0,1.49V29a11.46,11.46,0,0,1-.14,1.6,10.63,10.63,0,0,1-.23,1.6,10.13,10.13,0,0,1-.43,1.33,3.2,3.2,0,0,1-.69,1.12,3.38,3.38,0,0,1-1,.68A3.46,3.46,0,0,1,603.87,35.58Z" transform="translate(0.05 0.01)"/></svg>