<svg id="Layer_1" data-name="Layer 1" xmlns="http://www.w3.org/2000/svg" viewBox="0 0 392.69 261.96"><defs><style>.cls-1,.cls-7{fill:#fdb833;}.cls-1,.cls-2,.cls-3,.cls-4,.cls-5,.cls-6,.cls-9{opacity:0.75;}.cls-2{fill:#d3d0cb;}.cls-3{fill:#f2efeb;}.cls-4{fill:#b2b0ad;}.cls-5,.cls-8{fill:#eaa332;}.cls-10,.cls-6{fill:#c4832d;}</style></defs><title>title</title><path class="cls-1" d="M342.63,29.48C364.68,40.24,379.2,58.8,388.9,80.68c-3.16-13.55-9.94-25.35-18.12-36.17A106.06,106.06,0,0,0,309.12,5.46c-18.41-3.94-37.12-2.5-56,1C284.19,9.6,314.66,15,342.63,29.48Z"/><path class="cls-2" d="M308.7,84.08a19.84,19.84,0,0,0-7.79-1.55c-16.35.22-26.69,23.1-24.71,37.57a58.78,58.78,0,0,0,12.74,29.63c22.86,20.82,51,36.35,79.53,49.84q2.69-5.57,5.13-11.18.93-2.13,1.82-4.26c0-27.08-8.54-54.68-18.65-80.75C340.81,96.83,324.67,90.58,308.7,84.08Z"/><path class="cls-3" d="M356.78,103.37c10.11,26.07,18.65,53.67,18.65,80.75q4.37-10.44,7.82-21a111.94,111.94,0,0,1-18.73-56.52Q360.66,105,356.78,103.37Z"/><path class="cls-2" d="M364.53,106.59a111.94,111.94,0,0,0,18.73,56.52c.68-2.11,1.33-4.23,2-6.35,0-14.64-3.64-29.28-6.11-43.92Q371.85,109.64,364.53,106.59Z"/><path class="cls-3" d="M383.74,114.91c-1.55-.7-3.09-1.39-4.65-2.08,2.47,14.64,6.07,29.28,6.11,43.92q1.39-4.74,2.57-9.51C383.41,137.3,382.91,125.59,383.74,114.91Z"/><path class="cls-2" d="M387.78,147.24A200.08,200.08,0,0,0,392.69,119c-3-1.4-6-2.76-9-4.11C382.91,125.59,383.41,137.3,387.78,147.24Z"/><path class="cls-4" d="M296.91,157.89c21.17,18.19,44.89,33.76,66.93,51q2.4-4.64,4.64-9.31c-28.52-13.49-56.67-29-79.53-49.84A64.16,64.16,0,0,0,296.91,157.89Z"/><path class="cls-5" d="M302.78,174.87a38.35,38.35,0,0,1-16.41-28.54A58.93,58.93,0,0,1,276.2,120.1c-2-14.46,8.37-37.35,24.71-37.57a19.84,19.84,0,0,1,7.79,1.55c26.94,11,54.36,21.22,80.64,33.4,1.41-10.82,2.15-21.85.55-31.81-.27-1.69-.61-3.35-1-5-9.7-21.88-24.21-40.45-46.27-51.21-28-14.45-58.44-19.87-89.5-23L250.77,7a26.21,26.21,0,0,1,1.48,6.43,58.94,58.94,0,0,1-.57,14.15L248,53.72c-.44,3.11-.93,5.89-1.46,8.27a56.43,56.43,0,0,1-2.33,7.72,33.24,33.24,0,0,1-4.26,8,33.94,33.94,0,0,1-6,6.18,29.81,29.81,0,0,1-8.7,4.85,47.19,47.19,0,0,1-9,2.17,70.77,70.77,0,0,1-10.33.69H162.18c-1,4.21-2,8.43-2.87,12.66.15.53.32,1,.47,1.56h44.4a56.38,56.38,0,0,1,15.6,1.81,22,22,0,0,1,11.81,7.72,24.15,24.15,0,0,1,4.62,12.2,58.94,58.94,0,0,1-.57,14.15L232,167.85c-.44,3.1-.93,5.89-1.46,8.27l-.06.25,5.41,3.15c21.84,12.81,43.29,24.74,60.59,43.32,10.38,11.76,20.56,23.33,30.88,34.56,3.7-4.16,7.68-10.17,10-12.45,8.76-8.68,17.35-17.84,22.55-28.87C347.1,197.27,321.51,187.94,302.78,174.87Z"/><path class="cls-6" d="M359.55,205.56c-20.8-15.93-42.84-30.66-62.65-47.67a64.15,64.15,0,0,1-8-8.16q-1.35-1.66-2.57-3.4a38.35,38.35,0,0,0,16.41,28.54c18.73,13.07,44.31,22.4,57,41.23.49-1,1-2.07,1.38-3.14A11.32,11.32,0,0,1,359.55,205.56Z"/><path class="cls-7" d="M151.77,81.56,163,1.64h33.34l-1.56,11.1H177.6L174.54,34.5h12.17l-1.6,11.37H172.95l-3.46,24.6h17.18l-1.56,11.1Z"/><path class="cls-7" d="M190.88,81.56,202.12,1.64h16.69a47.77,47.77,0,0,1,13,1.44,13.77,13.77,0,0,1,7.46,4.75,15.61,15.61,0,0,1,3,7.92,50,50,0,0,1-.52,11.77L238,53.72q-.6,4.26-1.31,7.44a45.21,45.21,0,0,1-1.87,6.22,19.93,19.93,0,0,1-6.54,9.08,17.79,17.79,0,0,1-5.22,2.89A36,36,0,0,1,216.21,81a60.25,60.25,0,0,1-8.81.58Zm18.37-11.32q2.31,0,3.65-.07a19.15,19.15,0,0,0,2.71-.33,5.67,5.67,0,0,0,2.06-.73A5.73,5.73,0,0,0,219,67.75a6.2,6.2,0,0,0,1-2.11,26,26,0,0,0,.58-3l6-43q.56-4-1.62-5.24T217.3,13Z"/><path class="cls-8" d="M135.73,195.69,147,115.77H180.3l-1.56,11.1H161.56l-3.06,21.76h12.17L169.07,160H156.91l-3.46,24.6h17.18l-1.56,11.1Z"/><path class="cls-8" d="M174.84,195.69l11.23-79.92h16.69a47.77,47.77,0,0,1,13,1.44,13.77,13.77,0,0,1,7.46,4.75,15.61,15.61,0,0,1,3,7.92,50,50,0,0,1-.52,11.77L222,167.85q-.6,4.26-1.31,7.44a45.21,45.21,0,0,1-1.87,6.22,19.93,19.93,0,0,1-6.54,9.08,17.79,17.79,0,0,1-5.22,2.89,36.06,36.06,0,0,1-6.85,1.64,60.25,60.25,0,0,1-8.81.58Zm18.37-11.32q2.31,0,3.65-.07a19.12,19.12,0,0,0,2.71-.33,5.66,5.66,0,0,0,2.06-.73,5.72,5.72,0,0,0,1.34-1.35,6.2,6.2,0,0,0,1-2.11,26,26,0,0,0,.58-3l6-43q.56-4-1.62-5.24t-7.72-1.33Z"/><g class="cls-9"><path class="cls-10" d="M296.43,222.85c-17.3-18.58-38.75-30.51-60.59-43.32l-5.41-3.15a56.46,56.46,0,0,1-2.27,7.47c-.34.88-.71,1.73-1.09,2.55q19.63,13.49,38.68,27.74c11.1,8.32,22,17,31.6,26.92,5.13,5.29,15.22,23.9,25,20.48,1.45-.51,3.18-2.1,5-4.13C317,246.18,306.81,234.62,296.43,222.85Z"/><path class="cls-10" d="M159.78,105.77c-.16-.52-.33-1-.47-1.56-.11.52-.2,1-.31,1.56Z"/></g><path class="cls-7" d="M105.24,116.66,103.65,80h7l.12,22.2,6.7-22.2h6.92L112,116.66Z"/><path class="cls-7" d="M125.23,106.18l7.71-1.44q-.16,1.12-.24,2a15.06,15.06,0,0,0,0,1.86,6.16,6.16,0,0,0,.24,1.65,2.44,2.44,0,0,0,.68,1.08,1.72,1.72,0,0,0,1.21.44q2.2,0,2.59-2.81.54-3.84-3.26-7.65l-2-2q-1-.92-1.54-1.53a17,17,0,0,1-1.3-1.65,8.86,8.86,0,0,1-1.1-2,10.11,10.11,0,0,1-.53-2.33,11.13,11.13,0,0,1,0-2.89,10.61,10.61,0,0,1,3.82-7,12.08,12.08,0,0,1,7.87-2.59,7.74,7.74,0,0,1,6.22,2.77,8.12,8.12,0,0,1,1.79,6.67l-.06.26-.09.61-7.8,1.06q0-.22.13-.7t.14-.78a9.36,9.36,0,0,0,.1-1.4,7,7,0,0,0-.15-1.34,1.94,1.94,0,0,0-.57-1.07A1.6,1.6,0,0,0,138,85a2.37,2.37,0,0,0-2,1,4.66,4.66,0,0,0-.93,2.26,6,6,0,0,0,.06,2.14,5.14,5.14,0,0,0,.82,1.86,13,13,0,0,0,1.13,1.43q.53.57,1.43,1.39t1.27,1.21a25.53,25.53,0,0,1,2.28,2.59,16.77,16.77,0,0,1,1.65,2.74,10.61,10.61,0,0,1,1,3.3,14.3,14.3,0,0,1-.06,3.82A9.45,9.45,0,0,1,141,115a11,11,0,0,1-7,2.45,9.58,9.58,0,0,1-4.39-.94,6.87,6.87,0,0,1-2.83-2.54,10.59,10.59,0,0,1-1.36-3.56A14.71,14.71,0,0,1,125.23,106.18Z"/><path class="cls-8" d="M139.63,126.87l.85-6a16.47,16.47,0,0,1-7.22,1.64,14.21,14.21,0,0,1-6.49-1.43,11,11,0,0,1-4.49-4.08c-.24-.39-.46-.8-.67-1.22h-4.11l-.63,1.88-1.39,4.09H107L96.61,195.69H130l1.56-11.1H114.34l3.46-24.6H130l1.6-11.37H119.39l3.06-21.76Z"/><path class="cls-7" d="M115.78,75H131.3l-.57,1.69a18.09,18.09,0,0,1,9.35-2.44,12.76,12.76,0,0,1,6.7,1.78l.78-5.53H130.38l3.46-24.6H146l1.6-11.37H135.43l3.06-21.76h17.18l1.56-11.1H123.89L113.58,75Z"/><path class="cls-7" d="M67.28,81.56,78.51,1.64H97.82q10.43,0,14.37,5.82t2.39,16.83a40.46,40.46,0,0,1-2.37,9.41,23.48,23.48,0,0,1-3.83,6.59A17.07,17.07,0,0,1,103,44.46a24.81,24.81,0,0,1-6.66,2.22,47.17,47.17,0,0,1-8,.69l-4.8,34.19ZM90,36a15.38,15.38,0,0,0,2.31-.16q1-.15,1.8-.36a3.7,3.7,0,0,0,1.43-.73q.65-.53,1.09-.93a3.9,3.9,0,0,0,.83-1.31q.39-.91.61-1.49a12.92,12.92,0,0,0,.46-1.86q.25-1.29.36-2.06l.34-2.42L99.3,24q.24-1.73.35-2.62t.16-2.26A7.12,7.12,0,0,0,99.68,17a9.71,9.71,0,0,0-.62-1.58,2.78,2.78,0,0,0-1.17-1.29A8.93,8.93,0,0,0,96,13.45a11,11,0,0,0-2.78-.31Z"/><path class="cls-8" d="M51.24,195.69l11.23-79.92H81.78q10.43,0,14.37,5.82t2.39,16.83a40.46,40.46,0,0,1-2.37,9.41,23.48,23.48,0,0,1-3.83,6.59A17.07,17.07,0,0,1,87,158.59a24.83,24.83,0,0,1-6.66,2.22,47.22,47.22,0,0,1-8,.69l-4.8,34.19Zm22.7-45.6a15.38,15.38,0,0,0,2.31-.16q1-.15,1.8-.36a3.7,3.7,0,0,0,1.43-.73q.65-.53,1.09-.93a3.9,3.9,0,0,0,.83-1.31q.39-.91.61-1.49a12.92,12.92,0,0,0,.46-1.86q.25-1.29.36-2.06l.34-2.42.09-.67q.24-1.73.35-2.62t.16-2.26a7.12,7.12,0,0,0-.13-2.06,9.69,9.69,0,0,0-.62-1.58,2.78,2.78,0,0,0-1.17-1.29,8.93,8.93,0,0,0-1.92-.71,11,11,0,0,0-2.78-.31Z"/><path class="cls-7" d="M21,58.69l16.83-3.15q-.34,2.44-.52,4.31a32.85,32.85,0,0,0-.11,4.06,13.42,13.42,0,0,0,.52,3.6,5.32,5.32,0,0,0,1.49,2.35,3.76,3.76,0,0,0,2.64,1q4.79,0,5.66-6.13Q48.68,56.3,40.39,48L36,43.73q-2.12-2-3.35-3.33a36.91,36.91,0,0,1-2.85-3.6,19.3,19.3,0,0,1-2.4-4.37,22.05,22.05,0,0,1-1.15-5.08,24.28,24.28,0,0,1,.11-6.3A23.16,23.16,0,0,1,34.66,5.66Q41.62,0,51.84,0A16.89,16.89,0,0,1,65.42,6q5.1,6,3.9,14.56l-.13.58L69,22.51,52,24.82q.07-.49.28-1.53t.31-1.71a20.44,20.44,0,0,0,.21-3.06,15.26,15.26,0,0,0-.32-2.93,4.23,4.23,0,0,0-1.25-2.33,3.49,3.49,0,0,0-2.45-.87,5.17,5.17,0,0,0-4.29,2.09,10.16,10.16,0,0,0-2,4.93,13.2,13.2,0,0,0,.12,4.66,11.21,11.21,0,0,0,1.78,4.06,28.29,28.29,0,0,0,2.47,3.13q1.16,1.24,3.12,3t2.78,2.64a55.57,55.57,0,0,1,5,5.66,36.58,36.58,0,0,1,3.6,6,23.15,23.15,0,0,1,2.12,7.19,31.2,31.2,0,0,1-.13,8.35,20.63,20.63,0,0,1-7.92,13.74A24,24,0,0,1,40.05,83.2a20.9,20.9,0,0,1-9.57-2,15,15,0,0,1-6.17-5.55,23.09,23.09,0,0,1-3-7.77A32.1,32.1,0,0,1,21,58.69Z"/><path class="cls-8" d="M4.95,172.82l16.83-3.15q-.34,2.44-.52,4.31a32.84,32.84,0,0,0-.11,4.06,13.42,13.42,0,0,0,.52,3.6A5.32,5.32,0,0,0,23.16,184a3.76,3.76,0,0,0,2.64,1q4.79,0,5.66-6.13,1.18-8.39-7.11-16.69l-4.42-4.26q-2.12-2-3.35-3.33a36.94,36.94,0,0,1-2.85-3.6,19.29,19.29,0,0,1-2.4-4.37,22,22,0,0,1-1.15-5.08,24.29,24.29,0,0,1,.11-6.3,23.16,23.16,0,0,1,8.33-15.38q7-5.66,17.18-5.66a16.89,16.89,0,0,1,13.58,6q5.1,6,3.9,14.56l-.13.58L53,136.64l-17,2.31q.07-.49.28-1.53t.31-1.71a20.44,20.44,0,0,0,.21-3.06,15.25,15.25,0,0,0-.32-2.93,4.23,4.23,0,0,0-1.25-2.33,3.49,3.49,0,0,0-2.45-.87,5.17,5.17,0,0,0-4.29,2.09,10.16,10.16,0,0,0-2,4.93,13.2,13.2,0,0,0,.12,4.66,11.21,11.21,0,0,0,1.78,4.06,28.29,28.29,0,0,0,2.47,3.13q1.16,1.24,3.12,3t2.78,2.64a55.57,55.57,0,0,1,5,5.66,36.57,36.57,0,0,1,3.6,6,23.15,23.15,0,0,1,2.12,7.19,31.2,31.2,0,0,1-.13,8.35A20.63,20.63,0,0,1,39.33,192,24,24,0,0,1,24,197.33a20.9,20.9,0,0,1-9.57-2,15,15,0,0,1-6.17-5.55,23.09,23.09,0,0,1-3-7.77A32.1,32.1,0,0,1,4.95,172.82Z"/><path class="cls-10" d="M1.16,244.14,6.24,208H0l.9-6.43h21L21,208H14.84L9.77,244.14Z"/><path class="cls-10" d="M19.74,230.16l2-14.3q2.12-15.08,14.55-15.08t10.33,15.08l-2,14.08a29.22,29.22,0,0,1-1,4.71,18.57,18.57,0,0,1-1.86,4.1,13.54,13.54,0,0,1-2.78,3.3,11.83,11.83,0,0,1-3.86,2.14,15.32,15.32,0,0,1-5,.78,13.58,13.58,0,0,1-4.78-.77,8.31,8.31,0,0,1-3.25-2.08,8.83,8.83,0,0,1-1.85-3.21,14.41,14.41,0,0,1-.73-4.05A26.26,26.26,0,0,1,19.74,230.16Zm16,1.94,2.58-18.38q.88-6.29-3-6.29a3.65,3.65,0,0,0-2,.58,4.1,4.1,0,0,0-1.4,1.58,11.4,11.4,0,0,0-.81,2,14.7,14.7,0,0,0-.45,2.14l-2.58,18.38q-.88,6.26,2.95,6.26T35.75,232.09Z"/><path class="cls-10" d="M56.86,244.14l6-42.53h10.3L73.69,230l8.88-28.36h9.95l-6,42.53H80.21l4-29.92q-1.36,4.61-4.58,15t-4.58,15H68.63l-1-30.1-4.42,30.1Z"/><path class="cls-10" d="M89.28,244.14l15.17-42.53h7.61l3.19,42.53h-8.48l-.47-9.1h-5.55l-2.93,9.1Zm12.8-14.39h4.4l.07-15.78Z"/><path class="cls-10" d="M118,244.14l6-42.53h9.36a22.32,22.32,0,0,1,5.53.6,10.64,10.64,0,0,1,4,1.89,6.66,6.66,0,0,1,2.28,3.47,12.53,12.53,0,0,1,.21,5.23q-.19,1.32-.43,2.36a16.86,16.86,0,0,1-.77,2.37,11.06,11.06,0,0,1-1.27,2.36,10.26,10.26,0,0,1-2,2,11.77,11.77,0,0,1-2.86,1.65q2.12,12.15,3.77,20.56h-8.91l-2.11-19.59h-1.42l-2.75,19.59Zm12.09-24.84h2.46a2.75,2.75,0,0,0,1.79-.66A4.61,4.61,0,0,0,135.6,217a14.27,14.27,0,0,0,.71-1.87,11.32,11.32,0,0,0,.36-1.61,11.92,11.92,0,0,0,.11-1.56,12.58,12.58,0,0,0-.13-1.78,3,3,0,0,0-.67-1.61,1.8,1.8,0,0,0-1.44-.63h-2.86Z"/><path class="cls-10" d="M144.5,244.14l6-42.53h8.6l-2.27,16.14,8.93-16.14h9.62L164.24,219,170,244.14h-8.93L157.4,224.7l-2.12,4-2.17,15.43Z"/><path class="cls-10" d="M171.65,244.14l6-42.53h17.75l-.83,5.91H185.4l-1.63,11.58h6.47l-.85,6h-6.47l-1.84,13.09h9.14l-.83,5.91Z"/><path class="cls-10" d="M196.51,244.14,201.59,208h-6.24l.9-6.43h21l-.9,6.43h-6.12l-5.07,36.11Z"/></svg>