<svg id="Layer_1" data-name="Layer 1" xmlns="http://www.w3.org/2000/svg" xmlns:xlink="http://www.w3.org/1999/xlink" viewBox="0 0 746.88 342.56"><defs><style>.cls-1{fill:none;}.cls-2{fill:url(#linear-gradient);}.cls-3{fill:url(#linear-gradient-2);}.cls-4{fill:url(#linear-gradient-3);}.cls-5{fill:url(#linear-gradient-4);}.cls-6{fill:url(#linear-gradient-5);}.cls-7{fill:url(#linear-gradient-6);}.cls-8{fill:url(#linear-gradient-7);}.cls-9{fill:url(#linear-gradient-8);}.cls-10{fill:url(#linear-gradient-9);}.cls-11{fill:url(#linear-gradient-10);}.cls-12{fill:url(#linear-gradient-11);}.cls-13{fill:url(#linear-gradient-12);}.cls-14{fill:url(#linear-gradient-13);}.cls-15{fill:url(#linear-gradient-14);}.cls-16{fill:url(#linear-gradient-15);}.cls-17{fill:url(#linear-gradient-16);}.cls-18{fill:url(#linear-gradient-17);}.cls-19{fill:url(#linear-gradient-18);}.cls-20{fill:url(#linear-gradient-19);}.cls-21{fill:url(#linear-gradient-20);}.cls-22{fill:url(#linear-gradient-21);}.cls-23{fill:url(#linear-gradient-22);}.cls-24{fill:url(#linear-gradient-23);}.cls-25{fill:url(#linear-gradient-24);}.cls-26{fill:url(#linear-gradient-25);}.cls-27{fill:url(#linear-gradient-26);}.cls-28{fill:url(#linear-gradient-27);}.cls-29{fill:url(#linear-gradient-28);}.cls-30{fill:url(#linear-gradient-29);}</style><linearGradient id="linear-gradient" x1="437.46" y1="14" x2="387.79" y2="349.51" gradientUnits="userSpaceOnUse"><stop offset="0" stop-color="#fdb833"/><stop offset="1" stop-color="#c4832d"/></linearGradient><linearGradient id="linear-gradient-2" x1="627.78" y1="42.17" x2="578.12" y2="377.68" xlink:href="#linear-gradient"/><linearGradient id="linear-gradient-3" x1="424.67" y1="12.11" x2="375.01" y2="347.62" xlink:href="#linear-gradient"/><linearGradient id="linear-gradient-4" x1="588.5" y1="36.36" x2="538.83" y2="371.87" xlink:href="#linear-gradient"/><linearGradient id="linear-gradient-5" x1="510.7" y1="24.84" x2="461.03" y2="360.35" xlink:href="#linear-gradient"/><linearGradient id="linear-gradient-6" x1="443.94" y1="14.96" x2="394.27" y2="350.47" xlink:href="#linear-gradient"/><linearGradient id="linear-gradient-7" x1="565.06" y1="32.89" x2="515.39" y2="368.4" xlink:href="#linear-gradient"/><linearGradient id="linear-gradient-8" x1="435.71" y1="13.74" x2="386.04" y2="349.25" xlink:href="#linear-gradient"/><linearGradient id="linear-gradient-9" x1="554.28" y1="31.29" x2="504.62" y2="366.8" xlink:href="#linear-gradient"/><linearGradient id="linear-gradient-10" x1="58.63" y1="-14.25" x2="12.14" y2="311.75" xlink:href="#linear-gradient"/><linearGradient id="linear-gradient-11" x1="94.86" y1="-9.09" x2="48.37" y2="316.91" xlink:href="#linear-gradient"/><linearGradient id="linear-gradient-12" x1="155.34" y1="-0.46" x2="108.84" y2="325.54" xlink:href="#linear-gradient"/><linearGradient id="linear-gradient-13" x1="199.96" y1="5.9" x2="153.47" y2="331.9" xlink:href="#linear-gradient"/><linearGradient id="linear-gradient-14" x1="240.17" y1="11.64" x2="193.68" y2="337.64" xlink:href="#linear-gradient"/><linearGradient id="linear-gradient-15" x1="280.08" y1="17.33" x2="233.59" y2="343.33" xlink:href="#linear-gradient"/><linearGradient id="linear-gradient-16" x1="314" y1="22.17" x2="267.5" y2="348.17" xlink:href="#linear-gradient"/><linearGradient id="linear-gradient-17" x1="343.43" y1="26.37" x2="296.94" y2="352.37" xlink:href="#linear-gradient"/><linearGradient id="linear-gradient-18" x1="74.33" y1="-12.01" x2="27.84" y2="313.98" xlink:href="#linear-gradient"/><linearGradient id="linear-gradient-19" x1="143.6" y1="-2.14" x2="97.1" y2="323.86" xlink:href="#linear-gradient"/><linearGradient id="linear-gradient-20" x1="205.53" y1="6.7" x2="159.03" y2="332.7" xlink:href="#linear-gradient"/><linearGradient id="linear-gradient-21" x1="262.56" y1="14.83" x2="216.06" y2="340.83" xlink:href="#linear-gradient"/><linearGradient id="linear-gradient-22" x1="326.73" y1="23.98" x2="280.23" y2="349.98" xlink:href="#linear-gradient"/><linearGradient id="linear-gradient-23" x1="74.62" y1="-11.97" x2="28.13" y2="314.03" xlink:href="#linear-gradient"/><linearGradient id="linear-gradient-24" x1="143.89" y1="-2.09" x2="97.39" y2="323.91" xlink:href="#linear-gradient"/><linearGradient id="linear-gradient-25" x1="205.83" y1="6.74" x2="159.33" y2="332.74" xlink:href="#linear-gradient"/><linearGradient id="linear-gradient-26" x1="262.85" y1="14.87" x2="216.35" y2="340.87" xlink:href="#linear-gradient"/><linearGradient id="linear-gradient-27" x1="327.02" y1="24.02" x2="280.52" y2="350.02" xlink:href="#linear-gradient"/><linearGradient id="linear-gradient-28" x1="216.53" y1="8.27" x2="170.03" y2="334.27" xlink:href="#linear-gradient"/><linearGradient id="linear-gradient-29" x1="190.63" y1="4.57" x2="144.13" y2="330.57" xlink:href="#linear-gradient"/></defs><title>title</title><path class="cls-1" d="M331.66,21.33q-3.23-1.91-11.48-2l-12,85.13q3.43,0,5.43-.1a28.5,28.5,0,0,0,4-.5,8.43,8.43,0,0,0,3.06-1.09,8.53,8.53,0,0,0,2-2,9.23,9.23,0,0,0,1.46-3.14,38.81,38.81,0,0,0,.87-4.52l9-64Q334.89,23.25,331.66,21.33Z"/><path class="cls-2" d="M368.1,305.08a17.83,17.83,0,0,0,0-3.42c2.68-.47,3-2.17,3.76-6.32s1.61-13.91,1.61-13.91,3.05-.57,3.75-7.63,1.93-17.73,1.93-17.73c5-5.7,3.9-18.78,4.76-29.42s1.61-29.71,3.18-38.15a27.59,27.59,0,0,1,6.07-13.16c3.49-.4,6.27-3.2,6.82-10.17a249.91,249.91,0,0,1,4.57-28.38c2.17-10.18,2.89-14.61,3.68-20.51s1-13.42,1.43-19.65,2.47-8.75,2.47-8.75,5.21,11.6,7.67,18.95,7.15,14.34,12.08,20.94,11.78,11.58,12.26,14c.77,8.88-2.78,23.17-2.78,23.17-3.56,13.14-7.61,15.66-12.43,30.28S417.14,221,408.83,243.11,387.14,282.4,380.44,291a141.18,141.18,0,0,0-10.33,14.94s-5.76,10.07,4.82,17.39c0,0-11.23-4.42-6.09-18.07Z"/><path class="cls-3" d="M604.56,164.14s.9-11.88,6.15-21.1c0,0-.93-24.38,6.69-46.54a31,31,0,0,1,8.18-5.56s-6.44,15.74-8.26,26.44-1.94,13.24-2,18.2a12.85,12.85,0,0,0,2.72,8.15S611.38,153.47,604.56,164.14Z"/><path class="cls-4" d="M452.2,133.46S450,106,440.68,91.62,424.84,66.4,419.35,65.84s-9.18.75-13.66,6.12-9.12,9.87-10.29,20.37-2.71,30.83-8.6,47.3-12.91,30.13-7.32,34.66c0,0-3.35,4.39-3.58,9.36s-.32,28.09-3.45,46.72-3.79,20.16-3.28,21.86a48.21,48.21,0,0,1-1.9,12.24c-1.81,5.56-4.37,11.47-2.56,13.71,0,0-2,8.77-4.89,14.65a3.63,3.63,0,0,0,.19,3.91,48.64,48.64,0,0,1-5.14,10.6c-3.58,5.57-6.9,11.93-9.6,14.51a25.29,25.29,0,0,1-9.63,5.7,8.42,8.42,0,0,0-5,4.83s3.4-3.23,6.95-3.41,4.68.8,5.07,1.93,2.64,5.07,5.22,5.2,6.92,1.91,10.11,4.67a7.6,7.6,0,0,0,10.82-1s-6.52,2.21-9.17-1-5.48-5.83-3.1-14.2,3.38-9.27,4.45-10.1,4.1,1.08,5.24-3,.53-11.33.53-11.33c1,.11,2.76.33,3.26-2.15a167.71,167.71,0,0,0,2-17.85,3.43,3.43,0,0,0,2.87-2.6c.6-2.39,2.4-22,2.4-22,3.86-2.69,3.66-15.19,4.85-30.16s2.11-30.48,3.14-37.76,6.33-13.5,6.33-13.5c3.66-.34,5.57-3.43,6.23-9.12s3.16-23.59,5.92-34.14,4-24.15,4.12-33.49S412.36,85,412.36,85s3.24,5.43,9.65,21.92a139.59,139.59,0,0,0,7.32,14,91.53,91.53,0,0,0,9.67,12c2.24,2.51,4.6,4.67,6.06,8.17a3.32,3.32,0,0,0,4.52,2.1s2.7-1,2.81-3.32S452.2,133.46,452.2,133.46Z"/><path class="cls-5" d="M563.78,220.39c6.26-2.91,10.92-9.6,14-12.94s5.2-8.64,7.36-12.41,6.38-10.35,6.38-10.35-14,10.91-19.92,17.57-9.16,9.88-11.9,14.65-5.42,11.86-9.87,13.95c-2.86,1.21-6-.53-6.68-4a9.34,9.34,0,0,0,.2,5.3s-6.62-.33-7.83-6.19c0,0,.78,10.19,8.27,11s12.64-2.19,15.86-6.28S563.78,220.39,563.78,220.39Z"/><path class="cls-6" d="M519.83,121.66s-10.79,19.49-14.1,27.08-7.9,14.42-8.86,19.17-7.28,7.52-7.28,7.52,5.95-1,9.25-3.7a63.53,63.53,0,0,1-4.18,16.92c-3.69,9.52-6.79,19-9,23.19a67.16,67.16,0,0,1-7.12,10.27,38,38,0,0,1,5.78-2.14,64.2,64.2,0,0,1-6.16,10.4,34.1,34.1,0,0,1-6.64,6.44s3.51-1,5-.53a18.51,18.51,0,0,1-4.15,6.79c-2.78,2.59-5.32,4.93-7.35,5.78,0,0,3.56-.48,5.36.45A43.48,43.48,0,0,1,459,261.19a21.82,21.82,0,0,0,6.43-1.91s-7,10.46-9.87,13.87c-4.49,5.26-7.06,5.82-9.76,5.27s-2.31-5.83-2.31-5.83a9.69,9.69,0,0,0-.6,5.77c.71,3,3.64,3.41,7.21,2.79a8.52,8.52,0,0,1,6.93,1.61c1.29.9,1.43,2.56,5.51,2a7.67,7.67,0,0,0,5.72-4c-3.16,2.84-4.85,1.25-5,.46s.81-1.6,2.73-6.3S469.38,261,469.38,261c2.27,2,3.2,7.28,3.2,7.28a89.15,89.15,0,0,1,2.87-17.3c2.36,1.6,3.46,5,3.46,5a84.27,84.27,0,0,1,2.77-18.24,10.15,10.15,0,0,1,3.85,4.52c.87-13.84,3.82-20.89,3.82-20.89a22,22,0,0,1,2.82,5.05c.12-7.29,1.36-13.45,3.34-25.72s8.13-27.33,8.13-27.33a13,13,0,0,0,3.32,6.32c-.35-5.06.36-7.75,5.4-17.68s14.22-36.12,14.22-36.12A21.33,21.33,0,0,1,519.83,121.66Z"/><path class="cls-7" d="M409.7,247.43l-.39.29Z"/><path class="cls-8" d="M552.61,117s0,0,0,0Z"/><path class="cls-9" d="M357.71,62.26c8.91-.65,18.21-1.51,18.21-1.51,9.38-.87,12.81-2.64,22.95-4.85s15-1.88,28.46-.8,32.65.18,40.64-.37,16.83-.3,16.83-.3c2.93-5.37,9.14-11.48,13.3-16.23a62,62,0,0,0,6.35-8.5c-8.6-.85-22.35-1.37-35.08-1.36s-35.4,1.28-46.76,2.19S391.92,33.77,381.2,35c-5.38.61-12.69,1.22-20,1.73-.16,1.54-.35,3.14-.58,4.82Z"/><path class="cls-10" d="M743.2,119.78c-6-13.13-18.43-22.37-22.2-23.86a158.59,158.59,0,0,1-18.57-8.86C697,83.78,682.61,86,682.61,86s1-10.58-4-24.39S660.56,38.28,651.15,36,633,46.72,633,46.72C628.64,34.3,616.17,7.5,588.2,3.19,560-1.14,542-2.05,527.87,6.82c0,0,14.23,2.61,25.85,11.44,0,0-18.83-9.1-29.59-10.94A182.26,182.26,0,0,0,484.69,5c-15.6.72-37.23,1.12-50.34.59s-47.87-1.68-61.5-2.09c-5.93-.18-13.58-.31-23.17-.08a21.92,21.92,0,0,1,6.49,5.69A27.49,27.49,0,0,1,361.42,23a65.56,65.56,0,0,1-.11,12.69c20.54-1.67,44.33-5,62.8-6.41,33.56-2.53,83.68-3.78,100.13,2.17,0,0-13.29-1.87-17.92-1.74,0,0-3.06,4.36-6.38,8.16S490.07,48.2,487,53.06c-7,11.22-7.65,18.47-7.65,18.47s-8.19.66-9.64,8.47-3.61,5.77-3.61,5.77-16.26-14-29.68-21.71S413.83,51.4,396,62.76s-32.49,34.47-42.4,48.78c-8.15,11.77-17.65,27.06-21.39,35.86a21.16,21.16,0,0,1,4,4,27.49,27.49,0,0,1,5.24,13.89,77.74,77.74,0,0,1-.79,18.53l-5.48,39c-.61,4.32-1.28,8.16-2,11.4a71.74,71.74,0,0,1-3,9.83,38.22,38.22,0,0,1-3.61,7.21c2.57,8.42,4.51,14.06,10.86,21.39a151.2,151.2,0,0,0,12.07,13.82A105,105,0,0,0,358,294a87.6,87.6,0,0,0,4-10.49c1.24-4.52,1.26-5,1.26-5s-1.34-1.37-.89-4.58,3.28-8.75,4.37-13.15a22.5,22.5,0,0,0,.92-8.6c-.14-3.26,2.33-13.54,3.32-20.69s2.3-16.16,2.89-27.28.77-18.05.93-21.49,3.18-8.16,3.18-8.16a12.22,12.22,0,0,1-1.94-7.46c.21-4.61,2.26-8.87,4.69-15.14s6.13-14.86,8.09-23.2a247.13,247.13,0,0,0,4.72-34.92c.67-11.27,5.41-16.45,9.81-22.17a18,18,0,0,1,13.85-7.62c4.82-.45,8.07,2.45,11.56,6.79S438,84,439.59,86.36s6.46,10.18,8.19,15.84a139.28,139.28,0,0,1,4.1,19.06c1.81,11.82,1.61,15,1.69,18.58,0,0,.81,2.64,5.16,2.24a12.86,12.86,0,0,0,7.32-3.47,4.86,4.86,0,0,0,3.21-.25s.8-2.91,1.43-5.3,3.93-8.3,3.93-8.3c-2.15-2.86-.91-5.89,2.31-10,7.87-10.63,16.87-24.94,19.77-30s16.74-28.42,16.74-28.42c-4.29,8.19-13,24.65-18.74,34.94s-16.77,24.34-18.63,27.72a4.75,4.75,0,0,0,.69,5.76A45,45,0,0,0,471,138.23s-3.21,14-17.31,33.74a30.2,30.2,0,0,1,4.53,0c-2.12,2.28-9.89,13.73-14.75,18.84a25.85,25.85,0,0,1,5.67-1.3A114.81,114.81,0,0,1,433.67,206a64.15,64.15,0,0,1,7-1.91S432,215.23,426.39,219a31.94,31.94,0,0,1,6.26-1.36,102.54,102.54,0,0,0-15.68,22c-1.79,3.46-6,6.81-7.26,7.79,1.48-1.07,7-4.72,12.46-3.23,6.31,1.74,9.53,15,8.87,12.28,0,0,.27-3.44,1.68-12.78,1.82-12.05,6.86-24.8,6.86-24.8,2.33,2.87,2.7,8,2.7,8,3.24-6.27,5.28-21.53,5.28-21.53a17.74,17.74,0,0,1,2.52,6c3.52-5.86,4.74-19.37,4.74-19.37a28.54,28.54,0,0,1,2.72,5.06c4.25-7.24,5.91-22.39,5.91-22.39a12.72,12.72,0,0,1,3.09,5c.93-5.77,4.53-16.51,8.29-29.16s7.44-20.42,8.47-20.37,2.87-1.43,6.32-5.9,8.51-13.17,14.66-21.67,24.46-40.42,24.46-40.42-15.79,31.68-24.26,44.19-13.1,18.32-14.59,20.14-4.74,5.1-6,5.21c0,0-2.18,3.21-2.49,5.76s7,5.46,13.85.46,18.83-13.69,24.74-18c0,0,6.12,6.5,15.24,6.45A39.28,39.28,0,0,0,545.5,125a24.47,24.47,0,0,1,5.11,4.28c2.24,2.56,5.35,7.66,7.87,10.53s4.89,5.81,9.72,7.69,9.56.57,14.34-1.77,8.72-6.63,15.81-13.21a83.73,83.73,0,0,1,11.9-9.5c.34-10.56,4.62-24.26,4.62-24.26s-7.92,8.45-15.12,17.47-13.7,13.31-19.37,14.56a37.46,37.46,0,0,1-16.81-.29c-4.22-1.26-7.42-3.29-8.59-4.59,0,0-2.68-2.73-2.39-8.85,0,.76.13,11.14,16.9,12.95,17.42,1.88,25.65-10,36.84-24.39S627.58,89.1,627.58,89.1s-9.81,22.61-10.47,45.38a11.9,11.9,0,0,0,3,9.33s-22,31.26-27.4,41.27-10.26,13.38-9.5,22.43c-1.39,4.4-3.15,12.72-18.63,15.71,0,0,4,3.89,8.7,2.83a6.25,6.25,0,0,0,8.35-1.5c4.3.57,7.46-4,10.75-15.36s9.92-18.78,17.07-28.57,17.77-31,17.77-31a8.2,8.2,0,0,0,6.55-5.46c2.83-10.16,6.77-52.47,5.41-61.27S637.58,70.65,629.7,71s-14.47,2.31-29.49,12.25-35.9,23.13-35.9,23.13,15.32-11,35.51-25S631.09,69.11,633,69.15s7.75,1.54,8,13.82-.83,24.25-.83,24.25a246.14,246.14,0,0,1-5,37.33c-1.17,5.11-6.88,6.12-6.88,6.12s0,.39-3.81,8-13.15,22.67-13.15,22.67.77,1.38,5.78,1.5,10.15-3.05,10.15-3.05c6.36-5.18,16.78-18.16,20.45-22.5s15-18.79,22.51-28.66,10-22.77,10-22.77,2.89-.34,4.51,1.4.25,4.05,1.57,7.43,8,6.39,8,6.39c1.77,6.24,6.46,14.84,9.47,20.09s8.1,14.54,9.27,22.66-1.69,23.67-2.45,28.84-.49,5.87.27,6.89,8.62,3.35,9.52-22.29-3.6-30.39-7-38.82-16.89-22.17-16.89-22.17c.32-2.14-2.05-3.45-3.68-9.71s-10.55-8-10.55-8c.29-1.41.45-3.29.45-3.29A30.25,30.25,0,0,1,696,94.06c.44,3.26,3.9,2.94,5.28,2.81s2.91-1.34,6.31,1.84,6.9,3.92,19.55,15.27,10.72,31.72,10.33,35.83.36,5,1.24,5.13,2.85.12,5.4-4.09S749.17,132.91,743.2,119.78Z"/><path class="cls-11" d="M1.73,341.32l7.55-53.71H0l1.34-9.56H32.52l-1.34,9.56h-9.1l-7.55,53.71Z"/><path class="cls-12" d="M29.37,320.52l3-21.27Q35.51,276.82,54,276.82t15.37,22.43l-2.94,21a43.44,43.44,0,0,1-1.55,7,27.64,27.64,0,0,1-2.77,6.1,20.15,20.15,0,0,1-4.13,4.9,17.61,17.61,0,0,1-5.74,3.18,22.81,22.81,0,0,1-7.47,1.16,20.19,20.19,0,0,1-7.12-1.14,12.36,12.36,0,0,1-4.84-3.09,13.13,13.13,0,0,1-2.76-4.78,21.47,21.47,0,0,1-1.09-6A39.05,39.05,0,0,1,29.37,320.52Zm23.81,2.88L57,296.05q1.31-9.35-4.42-9.35a5.42,5.42,0,0,0-3,.86,6.09,6.09,0,0,0-2.09,2.36,16.94,16.94,0,0,0-1.21,3,21.81,21.81,0,0,0-.68,3.18L41.76,323.4q-1.31,9.32,4.39,9.32T53.18,323.4Z"/><path class="cls-13" d="M84.58,341.32l8.89-63.27H108.8l.82,42.18,13.2-42.18h14.8l-8.89,63.27h-9.42l6-44.5q-2,6.85-6.82,22.25t-6.82,22.25h-9.56l-1.47-44.78L94,341.32Z"/><path class="cls-14" d="M132.81,341.32l22.57-63.27h11.32l4.75,63.27H158.82l-.7-13.53h-8.26l-4.36,13.53Zm19-21.41h6.54l.1-23.48Z"/><path class="cls-15" d="M175.52,341.32l8.89-63.27h13.92a33.22,33.22,0,0,1,8.22.9,15.84,15.84,0,0,1,5.91,2.81,9.9,9.9,0,0,1,3.39,5.17,18.65,18.65,0,0,1,.31,7.79q-.28,2-.63,3.52a25.11,25.11,0,0,1-1.15,3.53,16.47,16.47,0,0,1-1.88,3.52,15.25,15.25,0,0,1-3,3,17.52,17.52,0,0,1-4.25,2.46q3.16,18.07,5.61,30.58H197.66l-3.15-29.14h-2.11l-4.1,29.14Zm18-36.94h3.66a4.09,4.09,0,0,0,2.67-1,6.85,6.85,0,0,0,1.88-2.5,21.25,21.25,0,0,0,1.06-2.78,16.91,16.91,0,0,0,.53-2.39,17.7,17.7,0,0,0,.17-2.32,18.7,18.7,0,0,0-.19-2.65,4.52,4.52,0,0,0-1-2.39,2.68,2.68,0,0,0-2.14-.93h-4.25Z"/><path class="cls-16" d="M215,341.32l8.89-63.27h12.79l-3.37,24,13.29-24h14.31L244.32,304l8.6,37.37H239.63l-5.5-28.93-3.16,6-3.23,23Z"/><path class="cls-17" d="M255.35,341.32l8.89-63.27h26.4l-1.24,8.79H275.8l-2.42,17.22H283l-1.26,9h-9.63l-2.74,19.47H283l-1.24,8.79Z"/><path class="cls-18" d="M292.32,341.32l7.55-53.71h-9.28l1.34-9.56h31.18l-1.34,9.56h-9.1l-7.55,53.71Z"/><path class="cls-19" d="M88.12,72.25a54.45,54.45,0,0,0-5.36-8.88,82.71,82.71,0,0,0-7.4-8.42Q74.15,53.7,71.23,51T66.58,46.5a42.1,42.1,0,0,1-3.67-4.66,16.68,16.68,0,0,1-2.65-6,19.65,19.65,0,0,1-.18-6.93,15.12,15.12,0,0,1,3-7.33,7.69,7.69,0,0,1,6.38-3.1,5.19,5.19,0,0,1,3.65,1.29A6.29,6.29,0,0,1,75,23.18a22.69,22.69,0,0,1,.48,4.36,30.41,30.41,0,0,1-.31,4.56q-.14,1-.46,2.54t-.42,2.28l25.32-3.43.28-2,.19-.86Q101.83,18,94.24,9T74,0Q58.85,0,48.48,8.42T36.09,31.31a36.14,36.14,0,0,0-.16,9.38,32.82,32.82,0,0,0,1.71,7.56,28.72,28.72,0,0,0,3.58,6.51,55,55,0,0,0,4.23,5.35q1.83,2,5,5L57,71.4Q69.34,83.75,67.58,96.23q-1.28,9.11-8.41,9.11a5.59,5.59,0,0,1-3.93-1.42,7.92,7.92,0,0,1-2.22-3.5,20,20,0,0,1-.77-5.35,48.89,48.89,0,0,1,.16-6q.26-2.77.77-6.41l-25,4.69a47.74,47.74,0,0,0,.53,13.61,34.35,34.35,0,0,0,4.42,11.56,22.29,22.29,0,0,0,9.18,8.26,31.09,31.09,0,0,0,14.24,3,35.68,35.68,0,0,0,22.78-8A30.69,30.69,0,0,0,91.08,95.37,46.41,46.41,0,0,0,91.28,83,34.43,34.43,0,0,0,88.12,72.25Z"/><path class="cls-20" d="M167.37,36.13q2.3-16.38-3.55-25T142.45,2.44H113.72L97,121.33h24.17l7.15-50.85a70.18,70.18,0,0,0,11.9-1,36.91,36.91,0,0,0,9.91-3.3,25.39,25.39,0,0,0,8-6.21,34.92,34.92,0,0,0,5.7-9.81A60.19,60.19,0,0,0,167.37,36.13Zm-22-7.73q-.09,2-.24,3.37t-.51,3.9l-.14,1-.51,3.6q-.16,1.16-.53,3.07a19.17,19.17,0,0,1-.69,2.77q-.32.86-.91,2.21a5.8,5.8,0,0,1-1.23,1.95q-.65.59-1.61,1.39a5.49,5.49,0,0,1-2.13,1.09q-1.17.3-2.68.53a22.89,22.89,0,0,1-3.43.23l4.77-33.95a16.34,16.34,0,0,1,4.13.46,13.29,13.29,0,0,1,2.86,1.06A4.13,4.13,0,0,1,144.28,23a14.48,14.48,0,0,1,.93,2.34A10.57,10.57,0,0,1,145.4,28.4Z"/><path class="cls-21" d="M214.11,68.22l2.38-16.91h-18.1L202.94,19H228.5l2.32-16.51h-49.6L166.37,108.07h9.37v.69l.21-.69h16.7l-.76,2.25a17.79,17.79,0,0,1,10.39-3.08,12.9,12.9,0,0,1,12.54,8.9l1.59-11.32H190.87L196,68.22Z"/><polygon class="cls-22" points="272.3 68.22 274.67 51.32 256.57 51.32 261.12 18.95 286.68 18.95 289 2.44 239.4 2.44 222.69 121.33 272.3 121.33 274.62 104.81 249.06 104.81 254.2 68.22 272.3 68.22"/><path class="cls-23" d="M357.21,23.45a23.22,23.22,0,0,0-4.42-11.79q-3.7-4.92-11.09-7.07T322.42,2.44H297.59L280.88,121.33h24.57a89.61,89.61,0,0,0,13.1-.86A53.61,53.61,0,0,0,328.73,118a26.48,26.48,0,0,0,7.77-4.29,29.64,29.64,0,0,0,9.72-13.51A67.2,67.2,0,0,0,349,91q1.06-4.72,2-11.06l5.48-39A74.41,74.41,0,0,0,357.21,23.45Zm-23.15,5.68-9,64a38.81,38.81,0,0,1-.87,4.52,9.23,9.23,0,0,1-1.46,3.14,8.53,8.53,0,0,1-2,2,8.43,8.43,0,0,1-3.06,1.09,28.5,28.5,0,0,1-4,.5q-2,.1-5.43.1l12-85.13q8.25.07,11.48,2T334.06,29.13Z"/><path class="cls-24" d="M68.12,214.56a54.44,54.44,0,0,0-5.36-8.88,82.68,82.68,0,0,0-7.4-8.42q-1.21-1.25-4.14-3.93t-4.65-4.52a42.1,42.1,0,0,1-3.67-4.66,16.68,16.68,0,0,1-2.65-6,19.64,19.64,0,0,1-.18-6.93,15.12,15.12,0,0,1,3-7.33,7.69,7.69,0,0,1,6.38-3.1A5.19,5.19,0,0,1,53.12,162,6.29,6.29,0,0,1,55,165.49a22.69,22.69,0,0,1,.48,4.36,30.41,30.41,0,0,1-.31,4.56q-.14,1-.46,2.54t-.42,2.28l25.32-3.43.28-2L80,173q1.78-12.68-5.81-21.66t-20.2-9q-15.19,0-25.55,8.42t-12.4,22.88a36.14,36.14,0,0,0-.16,9.38,32.83,32.83,0,0,0,1.71,7.56,28.73,28.73,0,0,0,3.58,6.51,55,55,0,0,0,4.23,5.35q1.83,2,5,5L37,213.7q12.33,12.35,10.58,24.83-1.28,9.11-8.41,9.11a5.59,5.59,0,0,1-3.93-1.42,7.92,7.92,0,0,1-2.22-3.5,20,20,0,0,1-.77-5.35,49,49,0,0,1,.16-6q.26-2.77.77-6.41l-25,4.69a47.75,47.75,0,0,0,.53,13.61,34.36,34.36,0,0,0,4.42,11.56A22.29,22.29,0,0,0,22.28,263a31.09,31.09,0,0,0,14.24,3,35.68,35.68,0,0,0,22.78-8,30.69,30.69,0,0,0,11.79-20.44,46.41,46.41,0,0,0,.19-12.42A34.43,34.43,0,0,0,68.12,214.56Z"/><path class="cls-25" d="M143.82,153.4q-5.85-8.65-21.37-8.65H93.72L77,263.63h24.17l7.15-50.85a70.18,70.18,0,0,0,11.9-1,36.91,36.91,0,0,0,9.91-3.3,25.39,25.39,0,0,0,8-6.21,34.93,34.93,0,0,0,5.7-9.81,60.19,60.19,0,0,0,3.52-14Q149.67,162.05,143.82,153.4Zm-18.41,17.3q-.09,2-.24,3.37t-.51,3.9l-.14,1-.51,3.6q-.16,1.16-.53,3.07a19.15,19.15,0,0,1-.69,2.77q-.32.86-.91,2.21a5.8,5.8,0,0,1-1.23,1.95q-.65.59-1.62,1.39A5.49,5.49,0,0,1,116.9,195q-1.17.3-2.68.53a22.89,22.89,0,0,1-3.43.23l4.77-33.95a16.34,16.34,0,0,1,4.13.46,13.28,13.28,0,0,1,2.86,1.06,4.13,4.13,0,0,1,1.75,1.92,14.48,14.48,0,0,1,.93,2.34A10.57,10.57,0,0,1,125.41,170.71Z"/><path class="cls-26" d="M194.11,210.53l2.38-16.91h-18.1l4.55-32.36H208.5L210,150.82a15.36,15.36,0,0,1-3.25,3.51A16.37,16.37,0,0,1,196.31,158a14.83,14.83,0,0,1-6.78-1.5,11.81,11.81,0,0,1-4.82-4.38,16,16,0,0,1-2.06-5.36,18.77,18.77,0,0,1-.26-2h-2.14L177,154.26l-1,2.87H161.47l-.18-4-.29-6.8L144.51,263.63h49.6l2.32-16.51H170.87L176,210.53Z"/><polygon class="cls-27" points="252.29 210.53 254.67 193.62 236.57 193.62 241.12 161.26 266.68 161.26 269 144.75 219.4 144.75 202.69 263.63 252.29 263.63 254.62 247.12 229.06 247.12 234.2 210.53 252.29 210.53"/><path class="cls-28" d="M336.44,183.25a74.43,74.43,0,0,0,.78-17.5A23.22,23.22,0,0,0,332.8,154q-3.7-4.92-11.09-7.07t-19.28-2.15H277.59L260.88,263.63h24.57a89.62,89.62,0,0,0,13.1-.86,53.62,53.62,0,0,0,10.18-2.44A26.47,26.47,0,0,0,316.5,256a29.64,29.64,0,0,0,9.72-13.51,67.18,67.18,0,0,0,2.79-9.25q1.06-4.72,2-11.06Zm-22.38-11.82-9,64a38.8,38.8,0,0,1-.87,4.52,9.22,9.22,0,0,1-1.46,3.14,8.52,8.52,0,0,1-2,2,8.44,8.44,0,0,1-3.06,1.09,28.5,28.5,0,0,1-4,.5q-2,.1-5.43.1l12-85.13q8.25.07,11.48,2T314.06,171.43Z"/><path class="cls-29" d="M209.19,114.53a8.58,8.58,0,0,0-6.9-3.07,13.39,13.39,0,0,0-8.73,2.88,11.76,11.76,0,0,0-4.23,7.82,12.33,12.33,0,0,0-.06,3.2,11.21,11.21,0,0,0,.58,2.58,9.82,9.82,0,0,0,1.22,2.22,18.76,18.76,0,0,0,1.45,1.83q.63.68,1.7,1.69l2.24,2.17q4.21,4.22,3.61,8.48-.44,3.11-2.87,3.11a1.91,1.91,0,0,1-1.34-.49,2.7,2.7,0,0,1-.76-1.2,6.81,6.81,0,0,1-.26-1.83,16.7,16.7,0,0,1,.05-2.06q.09-.95.26-2.19l-8.55,1.6a16.31,16.31,0,0,0,.18,4.65,11.74,11.74,0,0,0,1.51,3.95,7.61,7.61,0,0,0,3.13,2.82,10.62,10.62,0,0,0,4.86,1,12.19,12.19,0,0,0,7.78-2.72,10.48,10.48,0,0,0,4-7,15.85,15.85,0,0,0,.07-4.24,11.76,11.76,0,0,0-1.08-3.65,18.58,18.58,0,0,0-1.83-3,28.24,28.24,0,0,0-2.53-2.88q-.41-.43-1.41-1.34t-1.59-1.55a14.39,14.39,0,0,1-1.25-1.59,5.69,5.69,0,0,1-.91-2.06,6.71,6.71,0,0,1-.06-2.37,5.16,5.16,0,0,1,1-2.5,2.63,2.63,0,0,1,2.18-1.06,1.77,1.77,0,0,1,1.25.44,2.15,2.15,0,0,1,.63,1.18,7.74,7.74,0,0,1,.16,1.49,10.37,10.37,0,0,1-.11,1.56q0,.34-.16.87t-.14.78L211,122.9l.1-.68.06-.29A9,9,0,0,0,209.19,114.53Z"/><path class="cls-30" d="M165.52,152.9l-1.76-40.6h7.78l.13,24.61,7.43-24.61h7.67L173,152.9Z"/></svg>